<svg xmlns="http://www.w3.org/2000/svg" width="1140" height="610" viewBox="0 0 1140 610"><rect width="1140" height="610" rx="16" fill="#0b1020"/><g font-family="monospace" fill="#e5e7eb"><text x="30" y="46" font-size="26" font-weight="bold">Via drill operations</text><text x="30" y="78" font-size="15" fill="#94a3b8">Actual Excellon output: five physical locations, 0.60 mm drill, y = 1 mm</text><rect x="902" y="24" width="208" height="48" rx="10" fill="#14532d"/><text x="1006" y="55" text-anchor="middle" font-size="22">5 operations</text><text x="390" y="131" text-anchor="middle" font-size="15">Shared</text><text x="390" y="151" text-anchor="middle" font-size="15">via records</text><text x="390" y="176" text-anchor="middle" font-size="13" fill="#94a3b8">x = -6 mm</text><text x="545" y="131" text-anchor="middle" font-size="15">Via + partial</text><text x="545" y="151" text-anchor="middle" font-size="15">route transition</text><text x="545" y="176" text-anchor="middle" font-size="13" fill="#94a3b8">x = -3 mm</text><text x="700" y="131" text-anchor="middle" font-size="15">Via + full</text><text x="700" y="151" text-anchor="middle" font-size="15">route transition</text><text x="700" y="176" text-anchor="middle" font-size="13" fill="#94a3b8">x = 0 mm</text><text x="855" y="131" text-anchor="middle" font-size="15">Repeated</text><text x="855" y="151" text-anchor="middle" font-size="15">route-only via</text><text x="855" y="176" text-anchor="middle" font-size="13" fill="#94a3b8">x = 3 mm</text><text x="1010" y="131" text-anchor="middle" font-size="15">True blind</text><text x="1010" y="151" text-anchor="middle" font-size="15">via (control)</text><text x="1010" y="176" text-anchor="middle" font-size="13" fill="#94a3b8">x = 6 mm</text><rect x="24" y="204" width="1092" height="94" rx="10" fill="#111827"/><text x="42" y="242" font-size="20">drill-L1-L2.drl</text><text x="42" y="269" font-size="15" fill="#94a3b8">1 operations</text><circle cx="390" cy="244" r="23" fill="none" stroke="#334155" stroke-dasharray="4 4"/><circle cx="545" cy="244" r="23" fill="none" stroke="#334155" stroke-dasharray="4 4"/><circle cx="700" cy="244" r="23" fill="none" stroke="#334155" stroke-dasharray="4 4"/><circle cx="855" cy="244" r="23" fill="none" stroke="#334155" stroke-dasharray="4 4"/><circle cx="1010" cy="244" r="25" fill="#4ade80"/><text x="1010" y="251" text-anchor="middle" font-size="22" font-weight="bold" fill="#0b1020">1</text><text x="1010" y="288" text-anchor="middle" font-size="13" fill="#4ade80">1 hit</text><rect x="24" y="316" width="1092" height="94" rx="10" fill="#111827"/><text x="42" y="354" font-size="20">drill-L1-L4.drl</text><text x="42" y="381" font-size="15" fill="#94a3b8">3 operations</text><circle cx="390" cy="356" r="25" fill="#4ade80"/><text x="390" y="363" text-anchor="middle" font-size="22" font-weight="bold" fill="#0b1020">1</text><text x="390" y="400" text-anchor="middle" font-size="13" fill="#4ade80">1 hit</text><circle cx="545" cy="356" r="25" fill="#4ade80"/><text x="545" y="363" text-anchor="middle" font-size="22" font-weight="bold" fill="#0b1020">1</text><text x="545" y="400" text-anchor="middle" font-size="13" fill="#4ade80">1 hit</text><circle cx="700" cy="356" r="25" fill="#4ade80"/><text x="700" y="363" text-anchor="middle" font-size="22" font-weight="bold" fill="#0b1020">1</text><text x="700" y="400" text-anchor="middle" font-size="13" fill="#4ade80">1 hit</text><circle cx="855" cy="356" r="23" fill="none" stroke="#334155" stroke-dasharray="4 4"/><circle cx="1010" cy="356" r="23" fill="none" stroke="#334155" stroke-dasharray="4 4"/><rect x="24" y="428" width="1092" height="94" rx="10" fill="#111827"/><text x="42" y="466" font-size="20">drill-L2-L3.drl</text><text x="42" y="493" font-size="15" fill="#94a3b8">1 operations</text><circle cx="390" cy="468" r="23" fill="none" stroke="#334155" stroke-dasharray="4 4"/><circle cx="545" cy="468" r="23" fill="none" stroke="#334155" stroke-dasharray="4 4"/><circle cx="700" cy="468" r="23" fill="none" stroke="#334155" stroke-dasharray="4 4"/><circle cx="855" cy="468" r="25" fill="#4ade80"/><text x="855" y="475" text-anchor="middle" font-size="22" font-weight="bold" fill="#0b1020">1</text><text x="855" y="512" text-anchor="middle" font-size="13" fill="#4ade80">1 hit</text><circle cx="1010" cy="468" r="23" fill="none" stroke="#334155" stroke-dasharray="4 4"/><text x="30" y="582" font-size="14" fill="#94a3b8">Numbers = emitted hits at a location. Red = redundant operation. Dashed circle = no drill.</text></g></svg>