<svg version="1.1" xmlns="http://www.w3.org/2000/svg" xmlns:xlink="http://www.w3.org/1999/xlink" stroke-linecap="round" stroke-linejoin="round" stroke-width="0" fill-rule="evenodd" clip-rule="evenodd" id="gN8NXVjrIsPR_bottom" viewBox="-15000 -5000 30000 10000" width="30mm" height="10mm"><defs><style>.gN8NXVjrIsPR_fr4 {color: #666666;}
.gN8NXVjrIsPR_cu {color: #cccccc;}
.gN8NXVjrIsPR_cf {color: #cc9933;}
.gN8NXVjrIsPR_sm {color: #004200; opacity: 0.7490196078431373;}
.gN8NXVjrIsPR_ss {color: #ffffff;}
.gN8NXVjrIsPR_sp {color: #999999;}
.gN8NXVjrIsPR_out {color: #000000;}</style><rect x="-475" y="-400" width="950" height="800" id="wC5WJ3d0_KbM_pad-10"/><circle cx="0" cy="0" r="1000" id="wC5WJ3d0_KbM_pad-14"/><rect x="-475" y="-400" width="950" height="800" id="Fd9j-ZBXDOd5_pad-10"/><circle cx="0" cy="0" r="1000" id="Fd9j-ZBXDOd5_pad-14"/><rect x="-332.5" y="-280" width="665" height="560" id="PDil2YxrbNrM_pad-11"/><circle cx="0" cy="0" r="1000" id="PDil2YxrbNrM_pad-14"/><g id="gN8NXVjrIsPR_bottom_copper"><use xlink:href="#wC5WJ3d0_KbM_pad-10" x="7955" y="3825"/><use xlink:href="#wC5WJ3d0_KbM_pad-10" x="7955" y="2175"/><use xlink:href="#wC5WJ3d0_KbM_pad-14" x="11000" y="0"/><use xlink:href="#wC5WJ3d0_KbM_pad-14" x="8460" y="0"/><use xlink:href="#wC5WJ3d0_KbM_pad-14" x="5920" y="0"/><use xlink:href="#wC5WJ3d0_KbM_pad-14" x="3380" y="0"/><use xlink:href="#wC5WJ3d0_KbM_pad-14" x="840" y="0"/><use xlink:href="#wC5WJ3d0_KbM_pad-14" x="-1700" y="0"/><use xlink:href="#wC5WJ3d0_KbM_pad-14" x="-4240" y="0"/><use xlink:href="#wC5WJ3d0_KbM_pad-14" x="-6780" y="0"/><use xlink:href="#wC5WJ3d0_KbM_pad-14" x="-9320" y="0"/><use xlink:href="#wC5WJ3d0_KbM_pad-14" x="-11860" y="0"/></g><g id="gN8NXVjrIsPR_bottom_silkscreen"><path d="M 7080 2175 7080 4425 8830 4425 8830 2175" fill="none" stroke-width="100"/><path d="M 6602.443 2812.135 6623.345 2803.559 6638.145 2787.827 6647.812 2758.032 6644.86 2736.016 6634.951 2716.614 6612.079 2697.668 6552.044 2684.439 6491.692 2694.82 6467.389 2710.307 6456.016 2726.407 6450.86 2757.773 6457.45 2785.108 6476.68 2805.348 6503.822 2812.135 M 6623.38 3078.85 6631.623 3089.363 6640.455 3106.119 6647.812 3127.474 6646.343 3153.757 6638.983 3176.756 6625.735 3193.183 6609.543 3203.039 6591.878 3199.754 6578.63 3186.612 6568.326 3163.614 6562.438 3137.33 6559.494 3114.332 6556.55 3137.33 6549.19 3163.614 6537.414 3186.612 6521.222 3201.397 6503.558 3204.682 6484.422 3198.111 6468.23 3183.327 6454.982 3160.328 6450.86 3142.915 6451.449 3114.661 6454.982 3091.663 6459.692 3075.893" fill="none" stroke-width="50"/></g><g id="gN8NXVjrIsPR_bottom_soldermask"><use xlink:href="#Fd9j-ZBXDOd5_pad-10" x="7955" y="3825"/><use xlink:href="#Fd9j-ZBXDOd5_pad-10" x="7955" y="2175"/><use xlink:href="#Fd9j-ZBXDOd5_pad-14" x="11000" y="0"/><use xlink:href="#Fd9j-ZBXDOd5_pad-14" x="8460" y="0"/><use xlink:href="#Fd9j-ZBXDOd5_pad-14" x="5920" y="0"/><use xlink:href="#Fd9j-ZBXDOd5_pad-14" x="3380" y="0"/><use xlink:href="#Fd9j-ZBXDOd5_pad-14" x="840" y="0"/><use xlink:href="#Fd9j-ZBXDOd5_pad-14" x="-1700" y="0"/><use xlink:href="#Fd9j-ZBXDOd5_pad-14" x="-4240" y="0"/><use xlink:href="#Fd9j-ZBXDOd5_pad-14" x="-6780" y="0"/><use xlink:href="#Fd9j-ZBXDOd5_pad-14" x="-9320" y="0"/><use xlink:href="#Fd9j-ZBXDOd5_pad-14" x="-11860" y="0"/></g><g id="gN8NXVjrIsPR_bottom_solderpaste"><use xlink:href="#PDil2YxrbNrM_pad-11" x="7955" y="3825"/><use xlink:href="#PDil2YxrbNrM_pad-11" x="7955" y="2175"/><use xlink:href="#PDil2YxrbNrM_pad-14" x="11000" y="0"/><use xlink:href="#PDil2YxrbNrM_pad-14" x="8460" y="0"/><use xlink:href="#PDil2YxrbNrM_pad-14" x="5920" y="0"/><use xlink:href="#PDil2YxrbNrM_pad-14" x="3380" y="0"/><use xlink:href="#PDil2YxrbNrM_pad-14" x="840" y="0"/><use xlink:href="#PDil2YxrbNrM_pad-14" x="-1700" y="0"/><use xlink:href="#PDil2YxrbNrM_pad-14" x="-4240" y="0"/><use xlink:href="#PDil2YxrbNrM_pad-14" x="-6780" y="0"/><use xlink:href="#PDil2YxrbNrM_pad-14" x="-9320" y="0"/><use xlink:href="#PDil2YxrbNrM_pad-14" x="-11860" y="0"/></g><clipPath id="gN8NXVjrIsPR_bottom_outline"><path d="M -15000 -5000 15000 -5000 15000 5000 -15000 5000 -15000 -5000" fill="none" stroke-width="50"/></clipPath><mask id="gN8NXVjrIsPR_bottom_mech-mask"><g fill="#000" stroke="#000"><rect x="-15000" y="-5000" width="30000" height="10000" fill="#fff"/></g></mask><mask id="gN8NXVjrIsPR_bottom_cf-mask"><g fill="#fff" stroke="#fff"><use xlink:href="#gN8NXVjrIsPR_bottom_soldermask"/></g></mask><mask id="gN8NXVjrIsPR_bottom_sm-mask"><g fill="#000" stroke="#000"><rect x="-15000" y="-5000" width="30000" height="10000" fill="#fff"/><use xlink:href="#gN8NXVjrIsPR_bottom_soldermask"/></g></mask></defs><g transform="translate(0,0) scale(1,-1)"><g mask="url(#gN8NXVjrIsPR_bottom_mech-mask)" clip-path="url(#gN8NXVjrIsPR_bottom_outline)" transform="translate(0,0) scale(-1,1)"><rect x="-15000" y="-5000" width="30000" height="10000" fill="currentColor" class="gN8NXVjrIsPR_fr4"/><use xlink:href="#gN8NXVjrIsPR_bottom_copper" fill="currentColor" stroke="currentColor" class="gN8NXVjrIsPR_cu"/><use xlink:href="#gN8NXVjrIsPR_bottom_copper" fill="currentColor" stroke="currentColor" class="gN8NXVjrIsPR_cf" mask="url(#gN8NXVjrIsPR_bottom_cf-mask)"/><g mask="url(#gN8NXVjrIsPR_bottom_sm-mask)"><rect x="-15000" y="-5000" width="30000" height="10000" fill="currentColor" class="gN8NXVjrIsPR_sm"/><use xlink:href="#gN8NXVjrIsPR_bottom_silkscreen" fill="currentColor" stroke="currentColor" class="gN8NXVjrIsPR_ss"/></g><use xlink:href="#gN8NXVjrIsPR_bottom_solderpaste" fill="currentColor" stroke="currentColor" class="gN8NXVjrIsPR_sp"/></g></g></svg>