<svg version="1.1" xmlns="http://www.w3.org/2000/svg" xmlns:xlink="http://www.w3.org/1999/xlink" stroke-linecap="round" stroke-linejoin="round" stroke-width="0" fill-rule="evenodd" clip-rule="evenodd" id="gN8NXVjrIsPR_top" viewBox="-15000 -5000 30000 10000" width="30mm" height="10mm"><defs><style>.gN8NXVjrIsPR_fr4 {color: #666666;}
.gN8NXVjrIsPR_cu {color: #cccccc;}
.gN8NXVjrIsPR_cf {color: #cc9933;}
.gN8NXVjrIsPR_sm {color: #004200; opacity: 0.7490196078431373;}
.gN8NXVjrIsPR_ss {color: #ffffff;}
.gN8NXVjrIsPR_sp {color: #999999;}
.gN8NXVjrIsPR_out {color: #000000;}</style><circle cx="0" cy="0" r="1000" id="IqU-WgXNqVDI_pad-12"/><circle cx="0" cy="0" r="1000" id="Yv50o4eVieUX_pad-12"/><circle cx="0" cy="0" r="1000" id="a08SXNycuXGM_pad-12"/><g id="gN8NXVjrIsPR_top_copper"><use xlink:href="#IqU-WgXNqVDI_pad-12" x="11000" y="0"/><use xlink:href="#IqU-WgXNqVDI_pad-12" x="8460" y="0"/><use xlink:href="#IqU-WgXNqVDI_pad-12" x="5920" y="0"/><use xlink:href="#IqU-WgXNqVDI_pad-12" x="3380" y="0"/><use xlink:href="#IqU-WgXNqVDI_pad-12" x="840" y="0"/><use xlink:href="#IqU-WgXNqVDI_pad-12" x="-1700" y="0"/><use xlink:href="#IqU-WgXNqVDI_pad-12" x="-4240" y="0"/><use xlink:href="#IqU-WgXNqVDI_pad-12" x="-6780" y="0"/><use xlink:href="#IqU-WgXNqVDI_pad-12" x="-9320" y="0"/><use xlink:href="#IqU-WgXNqVDI_pad-12" x="-11860" y="0"/></g><g id="gN8NXVjrIsPR_top_silkscreen"><path d="M 10082.426 -1235.879 10238.149 -1235.879 M 10162.6 -1235.879 10162.6 -1425.712 M 10529.719 -1274.366 10574.855 -1235.879 10574.855 -1425.71 M 10940.442 -1429.14 10915.56 -1421.399 10892.816 -1397.846 10875.996 -1317.905 10892.017 -1258.071 10911.674 -1241.03 10945.708 -1232.188 10977.751 -1242.802 10996.512 -1262.201 11012.578 -1335.082 11004.582 -1381.095 10990.333 -1407.687 10965.024 -1425.8 10940.442 -1429.14 M 11272.166 -1235.879 11272.462 -1341.685 11274.504 -1370.468 11279.727 -1391.788 11289.74 -1408.004 11302.84 -1418.726 11322.41 -1426.47 11347.103 -1429.399 11364.435 -1426.467 11378.65 -1418.744 11387.156 -1409.696 11390.809 -1403.748 11396.396 -1388.584 11399.004 -1368.495 11400.409 -1236.165 M 11650.426 -1235.879 11806.149 -1235.879 M 11730.6 -1235.879 11730.6 -1425.712" fill="none" stroke-width="50"/><path d="M 7542.426 -1235.879 7698.149 -1235.879 M 7622.6 -1235.879 7622.6 -1425.712 M 7958.915 -1269.794 7963.174 -1255.842 7975.76 -1242.83 7996.386 -1234.007 8009.625 -1232.188 8032.529 -1233.864 8049.711 -1241.397 8059.107 -1252.95 8062.482 -1266.376 8062.258 -1275.306 8058.225 -1290.254 8040.72 -1319.317 7996.638 -1374.603 7950.285 -1425.453 8074.289 -1425.453 M 8400.442 -1429.14 8375.56 -1421.399 8352.816 -1397.846 8335.996 -1317.905 8352.017 -1258.071 8371.674 -1241.03 8405.708 -1232.188 8437.751 -1242.802 8456.512 -1262.201 8472.578 -1335.082 8464.582 -1381.095 8450.333 -1407.687 8425.024 -1425.8 8400.442 -1429.14 M 8732.166 -1235.879 8732.462 -1341.685 8734.504 -1370.468 8739.727 -1391.788 8749.74 -1408.004 8762.84 -1418.726 8782.41 -1426.47 8807.103 -1429.399 8824.435 -1426.467 8838.65 -1418.744 8847.156 -1409.696 8850.809 -1403.748 8856.396 -1388.584 8859.004 -1368.495 8860.409 -1236.165 M 9110.426 -1235.879 9266.149 -1235.879 M 9190.6 -1235.879 9190.6 -1425.712" fill="none" stroke-width="50"/><path d="M 5201.775 -1424.351 5201.775 -1240.796 5255.596 -1235.879 5293.371 -1237.523 5316.158 -1242.574 5325.74 -1246.692 5333.627 -1252.052 5339.452 -1258.789 5344.59 -1277.057 5344.107 -1293.258 5338.85 -1304.989 5329.413 -1313.025 5316.394 -1318.144 5291.455 -1322.047 5205.343 -1325.096 M 5276.855 -1332.846 5350.799 -1425.712 M 5645.719 -1274.366 5690.855 -1235.879 5690.855 -1425.71 M 6060.287 -1235.879 6060.287 -1425.712 M 6387.004 -1425.712 6387.004 -1235.879 6517.571 -1425.712 6515.009 -1235.879" fill="none" stroke-width="50"/><path d="M 2661.775 -1424.351 2661.775 -1240.796 2715.596 -1235.879 2753.371 -1237.523 2776.158 -1242.574 2785.74 -1246.692 2793.627 -1252.052 2799.452 -1258.789 2804.59 -1277.057 2804.107 -1293.258 2798.85 -1304.989 2789.413 -1313.025 2776.394 -1318.144 2751.455 -1322.047 2665.343 -1325.096 M 2736.855 -1332.846 2810.799 -1425.712 M 3074.915 -1269.794 3079.174 -1255.842 3091.76 -1242.83 3112.386 -1234.007 3125.625 -1232.188 3148.529 -1233.864 3165.711 -1241.397 3175.107 -1252.95 3178.482 -1266.376 3178.258 -1275.306 3174.225 -1290.254 3156.72 -1319.317 3112.638 -1374.603 3066.285 -1425.453 3190.289 -1425.453 M 3520.287 -1235.879 3520.287 -1425.712 M 3847.004 -1425.712 3847.004 -1235.879 3977.571 -1425.712 3975.009 -1235.879" fill="none" stroke-width="50"/><path d="M 315.793 -1235.879 397.623 -1425.712 468.782 -1235.879 M 848.135 -1277.557 839.559 -1256.655 823.827 -1241.855 794.032 -1232.188 772.016 -1235.14 752.614 -1245.049 733.668 -1267.921 720.439 -1327.956 730.82 -1388.308 746.307 -1412.611 762.407 -1423.984 793.773 -1429.14 821.108 -1422.55 841.348 -1403.32 848.135 -1376.178 M 1240.135 -1277.557 1231.559 -1256.655 1215.827 -1241.855 1186.032 -1232.188 1164.016 -1235.14 1144.614 -1245.049 1125.668 -1267.921 1112.439 -1327.956 1122.82 -1388.308 1138.307 -1412.611 1154.407 -1423.984 1185.773 -1429.14 1213.108 -1422.55 1233.348 -1403.32 1240.135 -1376.178" fill="none" stroke-width="50"/><path d="M -2092.55 -1239.784 -2127.106 -1232.188 -2163.619 -1235.221 -2187.038 -1247.359 -2205.524 -1271.472 -2216.209 -1323.531 -2210.509 -1379.949 -2198.158 -1400.295 -2179.095 -1416.686 -2156.118 -1427.005 -2132.021 -1429.14 -2109.598 -1420.973 -2091.647 -1400.391 -2079.216 -1341.611 -2139.713 -1341.477 M -1820.996 -1425.712 -1820.996 -1235.879 -1690.429 -1425.712 -1692.991 -1235.879 M -1429.953 -1425.712 -1427.885 -1239.822 -1400.059 -1235.879 -1378.743 -1236.337 -1344.117 -1245.702 -1318.511 -1265.925 -1303.871 -1293.155 -1298.035 -1321.39 -1297.472 -1342.648 -1300.142 -1360.867 -1305.603 -1376.277 -1323.135 -1399.595 -1346.54 -1414.439 -1384.943 -1424.841 -1429.953 -1425.712" fill="none" stroke-width="50"/><path d="M -4961.574 -1235.879 -4805.851 -1235.879 M -4881.4 -1235.879 -4881.4 -1425.712 M -4514.281 -1274.366 -4469.145 -1235.879 -4469.145 -1425.71 M -4099.713 -1235.879 -4099.713 -1425.712 M -3772.996 -1425.712 -3772.996 -1235.879 -3642.429 -1425.712 -3644.991 -1235.879" fill="none" stroke-width="50"/><path d="M -7501.574 -1235.879 -7345.851 -1235.879 M -7421.4 -1235.879 -7421.4 -1425.712 M -7085.085 -1269.794 -7080.826 -1255.842 -7068.24 -1242.83 -7047.614 -1234.007 -7034.375 -1232.188 -7011.471 -1233.864 -6994.289 -1241.397 -6984.893 -1252.95 -6981.518 -1266.376 -6981.742 -1275.306 -6985.775 -1290.254 -7003.28 -1319.317 -7047.362 -1374.603 -7093.715 -1425.453 -6969.711 -1425.453 M -6639.713 -1235.879 -6639.713 -1425.712 M -6312.996 -1425.712 -6312.996 -1235.879 -6182.429 -1425.712 -6184.991 -1235.879" fill="none" stroke-width="50"/><path d="M -10234.225 -1424.351 -10234.225 -1240.796 -10180.404 -1235.879 -10142.629 -1237.523 -10119.842 -1242.574 -10110.26 -1246.692 -10102.373 -1252.052 -10096.548 -1258.789 -10091.41 -1277.057 -10091.893 -1293.258 -10097.15 -1304.989 -10106.587 -1313.025 -10119.606 -1318.144 -10144.545 -1322.047 -10230.657 -1325.096 M -10159.145 -1332.846 -10085.201 -1425.712 M -9790.281 -1274.366 -9745.145 -1235.879 -9745.145 -1425.71 M -9379.558 -1429.14 -9404.44 -1421.399 -9427.184 -1397.846 -9444.004 -1317.905 -9427.983 -1258.071 -9408.326 -1241.03 -9374.292 -1232.188 -9342.249 -1242.802 -9323.488 -1262.201 -9307.422 -1335.082 -9315.418 -1381.095 -9329.667 -1407.687 -9354.976 -1425.8 -9379.558 -1429.14 M -9047.834 -1235.879 -9047.538 -1341.685 -9045.496 -1370.468 -9040.273 -1391.788 -9030.26 -1408.004 -9017.16 -1418.726 -8997.59 -1426.47 -8972.897 -1429.399 -8955.565 -1426.467 -8941.35 -1418.744 -8932.844 -1409.696 -8929.191 -1403.748 -8923.604 -1388.584 -8920.996 -1368.495 -8919.591 -1236.165 M -8669.574 -1235.879 -8513.851 -1235.879 M -8589.4 -1235.879 -8589.4 -1425.712" fill="none" stroke-width="50"/><path d="M -12774.225 -1424.351 -12774.225 -1240.796 -12720.404 -1235.879 -12682.629 -1237.523 -12659.842 -1242.574 -12650.26 -1246.692 -12642.373 -1252.052 -12636.548 -1258.789 -12631.41 -1277.057 -12631.893 -1293.258 -12637.15 -1304.989 -12646.587 -1313.025 -12659.606 -1318.144 -12684.545 -1322.047 -12770.657 -1325.096 M -12699.145 -1332.846 -12625.201 -1425.712 M -12361.085 -1269.794 -12356.826 -1255.842 -12344.24 -1242.83 -12323.614 -1234.007 -12310.375 -1232.188 -12287.471 -1233.864 -12270.289 -1241.397 -12260.893 -1252.95 -12257.518 -1266.376 -12257.742 -1275.306 -12261.775 -1290.254 -12279.28 -1319.317 -12323.362 -1374.603 -12369.715 -1425.453 -12245.711 -1425.453 M -11919.558 -1429.14 -11944.44 -1421.399 -11967.184 -1397.846 -11984.004 -1317.905 -11967.983 -1258.071 -11948.326 -1241.03 -11914.292 -1232.188 -11882.249 -1242.802 -11863.488 -1262.201 -11847.422 -1335.082 -11855.418 -1381.095 -11869.667 -1407.687 -11894.976 -1425.8 -11919.558 -1429.14 M -11587.834 -1235.879 -11587.538 -1341.685 -11585.496 -1370.468 -11580.273 -1391.788 -11570.26 -1408.004 -11557.16 -1418.726 -11537.59 -1426.47 -11512.897 -1429.399 -11495.565 -1426.467 -11481.35 -1418.744 -11472.844 -1409.696 -11469.191 -1403.748 -11463.604 -1388.584 -11460.996 -1368.495 -11459.591 -1236.165 M -11209.574 -1235.879 -11053.851 -1235.879 M -11129.4 -1235.879 -11129.4 -1425.712" fill="none" stroke-width="50"/></g><g id="gN8NXVjrIsPR_top_soldermask"><use xlink:href="#Yv50o4eVieUX_pad-12" x="11000" y="0"/><use xlink:href="#Yv50o4eVieUX_pad-12" x="8460" y="0"/><use xlink:href="#Yv50o4eVieUX_pad-12" x="5920" y="0"/><use xlink:href="#Yv50o4eVieUX_pad-12" x="3380" y="0"/><use xlink:href="#Yv50o4eVieUX_pad-12" x="840" y="0"/><use xlink:href="#Yv50o4eVieUX_pad-12" x="-1700" y="0"/><use xlink:href="#Yv50o4eVieUX_pad-12" x="-4240" y="0"/><use xlink:href="#Yv50o4eVieUX_pad-12" x="-6780" y="0"/><use xlink:href="#Yv50o4eVieUX_pad-12" x="-9320" y="0"/><use xlink:href="#Yv50o4eVieUX_pad-12" x="-11860" y="0"/></g><g id="gN8NXVjrIsPR_top_solderpaste"><use xlink:href="#a08SXNycuXGM_pad-12" x="11000" y="0"/><use xlink:href="#a08SXNycuXGM_pad-12" x="8460" y="0"/><use xlink:href="#a08SXNycuXGM_pad-12" x="5920" y="0"/><use xlink:href="#a08SXNycuXGM_pad-12" x="3380" y="0"/><use xlink:href="#a08SXNycuXGM_pad-12" x="840" y="0"/><use xlink:href="#a08SXNycuXGM_pad-12" x="-1700" y="0"/><use xlink:href="#a08SXNycuXGM_pad-12" x="-4240" y="0"/><use xlink:href="#a08SXNycuXGM_pad-12" x="-6780" y="0"/><use xlink:href="#a08SXNycuXGM_pad-12" x="-9320" y="0"/><use xlink:href="#a08SXNycuXGM_pad-12" x="-11860" y="0"/></g><clipPath id="gN8NXVjrIsPR_top_outline"><path d="M -15000 -5000 15000 -5000 15000 5000 -15000 5000 -15000 -5000" fill="none" stroke-width="50"/></clipPath><mask id="gN8NXVjrIsPR_top_mech-mask"><g fill="#000" stroke="#000"><rect x="-15000" y="-5000" width="30000" height="10000" fill="#fff"/></g></mask><mask id="gN8NXVjrIsPR_top_cf-mask"><g fill="#fff" stroke="#fff"><use xlink:href="#gN8NXVjrIsPR_top_soldermask"/></g></mask><mask id="gN8NXVjrIsPR_top_sm-mask"><g fill="#000" stroke="#000"><rect x="-15000" y="-5000" width="30000" height="10000" fill="#fff"/><use xlink:href="#gN8NXVjrIsPR_top_soldermask"/></g></mask></defs><g transform="translate(0,0) scale(1,-1)"><g mask="url(#gN8NXVjrIsPR_top_mech-mask)" clip-path="url(#gN8NXVjrIsPR_top_outline)"><rect x="-15000" y="-5000" width="30000" height="10000" fill="currentColor" class="gN8NXVjrIsPR_fr4"/><use xlink:href="#gN8NXVjrIsPR_top_copper" fill="currentColor" stroke="currentColor" class="gN8NXVjrIsPR_cu"/><use xlink:href="#gN8NXVjrIsPR_top_copper" fill="currentColor" stroke="currentColor" class="gN8NXVjrIsPR_cf" mask="url(#gN8NXVjrIsPR_top_cf-mask)"/><g mask="url(#gN8NXVjrIsPR_top_sm-mask)"><rect x="-15000" y="-5000" width="30000" height="10000" fill="currentColor" class="gN8NXVjrIsPR_sm"/><use xlink:href="#gN8NXVjrIsPR_top_silkscreen" fill="currentColor" stroke="currentColor" class="gN8NXVjrIsPR_ss"/></g><use xlink:href="#gN8NXVjrIsPR_top_solderpaste" fill="currentColor" stroke="currentColor" class="gN8NXVjrIsPR_sp"/></g></g></svg>