<svg version="1.1" xmlns="http://www.w3.org/2000/svg" xmlns:xlink="http://www.w3.org/1999/xlink" stroke-linecap="round" stroke-linejoin="round" stroke-width="0" fill-rule="evenodd" clip-rule="evenodd" id="cgZfJajsydf0_top" viewBox="-11000 -11000 22000 22000" width="22mm" height="22mm"><defs><style>.cgZfJajsydf0_fr4 {color: #666666;}
.cgZfJajsydf0_cu {color: #cccccc;}
.cgZfJajsydf0_cf {color: #cc9933;}
.cgZfJajsydf0_sm {color: #004200; opacity: 0.7490196078431373;}
.cgZfJajsydf0_ss {color: #ffffff;}
.cgZfJajsydf0_sp {color: #999999;}
.cgZfJajsydf0_out {color: #000000;}</style><rect x="-175" y="-725" width="350" height="1450" id="wShHIeaWSCwQ_pad-11"/><circle cx="0" cy="0" r="2810" id="wShHIeaWSCwQ_pad-13"/><rect x="-871.004" y="-182.0035" width="1742.008" height="364.007" id="wShHIeaWSCwQ_pad-14"/><rect x="-750" y="-750" width="1500" height="1500" id="wShHIeaWSCwQ_pad-17"/><circle cx="0" cy="0" r="750" id="wShHIeaWSCwQ_pad-19"/><rect x="-475" y="-400" width="950" height="800" id="wShHIeaWSCwQ_pad-21"/><rect x="-400" y="-475" width="800" height="950" id="wShHIeaWSCwQ_pad-24"/><circle cx="0" cy="0" r="300" id="wShHIeaWSCwQ_pad-26"/><rect x="-175" y="-725" width="350" height="1450" id="IRnojut3D3Rv_pad-11"/><circle cx="0" cy="0" r="2810" id="IRnojut3D3Rv_pad-13"/><rect x="-871.004" y="-182.0035" width="1742.008" height="364.007" id="IRnojut3D3Rv_pad-14"/><rect x="-750" y="-750" width="1500" height="1500" id="IRnojut3D3Rv_pad-17"/><circle cx="0" cy="0" r="750" id="IRnojut3D3Rv_pad-19"/><rect x="-475" y="-400" width="950" height="800" id="IRnojut3D3Rv_pad-21"/><rect x="-400" y="-475" width="800" height="950" id="IRnojut3D3Rv_pad-24"/><rect x="-122.5" y="-507.5" width="245" height="1015" id="SU5inElHKD2d_pad-12"/><circle cx="0" cy="0" r="2810" id="SU5inElHKD2d_pad-13"/><rect x="-609.703" y="-127.4025" width="1219.406" height="254.805" id="SU5inElHKD2d_pad-15"/><circle cx="0" cy="0" r="750" id="SU5inElHKD2d_pad-19"/><rect x="-332.5" y="-280" width="665" height="560" id="SU5inElHKD2d_pad-22"/><rect x="-280" y="-332.5" width="560" height="665" id="SU5inElHKD2d_pad-25"/><circle cx="0" cy="0" r="1910" id="T1lf2Yicwp-w_pad-10"/><circle cx="0" cy="0" r="500" id="T1lf2Yicwp-w_pad-11"/><circle cx="0" cy="0" r="150" id="T1lf2Yicwp-w_pad-12"/><g id="cgZfJajsydf0_top_copper"><use xlink:href="#wShHIeaWSCwQ_pad-11" x="9250" y="-9725"/><use xlink:href="#wShHIeaWSCwQ_pad-11" x="8750" y="-9725"/><use xlink:href="#wShHIeaWSCwQ_pad-11" x="8250" y="-9725"/><use xlink:href="#wShHIeaWSCwQ_pad-11" x="7750" y="-9725"/><use xlink:href="#wShHIeaWSCwQ_pad-11" x="7250" y="-9725"/><use xlink:href="#wShHIeaWSCwQ_pad-11" x="6750" y="-9725"/><use xlink:href="#wShHIeaWSCwQ_pad-11" x="6250" y="-9725"/><use xlink:href="#wShHIeaWSCwQ_pad-11" x="5750" y="-9725"/><use xlink:href="#wShHIeaWSCwQ_pad-11" x="5250" y="-9725"/><use xlink:href="#wShHIeaWSCwQ_pad-11" x="4750" y="-9725"/><use xlink:href="#wShHIeaWSCwQ_pad-11" x="4250" y="-9725"/><use xlink:href="#wShHIeaWSCwQ_pad-11" x="3750" y="-9725"/><use xlink:href="#wShHIeaWSCwQ_pad-11" x="1250" y="-9725"/><use xlink:href="#wShHIeaWSCwQ_pad-11" x="750" y="-9725"/><use xlink:href="#wShHIeaWSCwQ_pad-11" x="250" y="-9725"/><use xlink:href="#wShHIeaWSCwQ_pad-11" x="-250" y="-9725"/><use xlink:href="#wShHIeaWSCwQ_pad-11" x="-750" y="-9725"/><use xlink:href="#wShHIeaWSCwQ_pad-11" x="-1250" y="-9725"/><use xlink:href="#wShHIeaWSCwQ_pad-11" x="-1750" y="-9725"/><use xlink:href="#wShHIeaWSCwQ_pad-11" x="-2250" y="-9725"/><use xlink:href="#wShHIeaWSCwQ_pad-11" x="-2750" y="-9725"/><use xlink:href="#wShHIeaWSCwQ_pad-11" x="-3250" y="-9725"/><use xlink:href="#wShHIeaWSCwQ_pad-11" x="-3750" y="-9725"/><use xlink:href="#wShHIeaWSCwQ_pad-11" x="-4250" y="-9725"/><use xlink:href="#wShHIeaWSCwQ_pad-11" x="-4750" y="-9725"/><use xlink:href="#wShHIeaWSCwQ_pad-11" x="-5250" y="-9725"/><use xlink:href="#wShHIeaWSCwQ_pad-11" x="-5750" y="-9725"/><use xlink:href="#wShHIeaWSCwQ_pad-11" x="-6250" y="-9725"/><use xlink:href="#wShHIeaWSCwQ_pad-11" x="-6750" y="-9725"/><use xlink:href="#wShHIeaWSCwQ_pad-11" x="-7250" y="-9725"/><use xlink:href="#wShHIeaWSCwQ_pad-11" x="-7750" y="-9725"/><use xlink:href="#wShHIeaWSCwQ_pad-11" x="-8250" y="-9725"/><use xlink:href="#wShHIeaWSCwQ_pad-11" x="-8750" y="-9725"/><use xlink:href="#wShHIeaWSCwQ_pad-11" x="-9250" y="-9725"/><use xlink:href="#wShHIeaWSCwQ_pad-13" x="4200" y="11000"/><use xlink:href="#wShHIeaWSCwQ_pad-14" x="-1129.038" y="-1925.064"/><use xlink:href="#wShHIeaWSCwQ_pad-14" x="-1129.038" y="-1275.078"/><use xlink:href="#wShHIeaWSCwQ_pad-14" x="-1129.038" y="-625.092"/><use xlink:href="#wShHIeaWSCwQ_pad-14" x="-1129.038" y="24.894"/><use xlink:href="#wShHIeaWSCwQ_pad-14" x="-1129.038" y="675.134"/><use xlink:href="#wShHIeaWSCwQ_pad-14" x="-1129.038" y="1325.12"/><use xlink:href="#wShHIeaWSCwQ_pad-14" x="-1129.038" y="1975.106"/><use xlink:href="#wShHIeaWSCwQ_pad-14" x="-1129.038" y="2625.092"/><use xlink:href="#wShHIeaWSCwQ_pad-14" x="-1129.038" y="3275.078"/><use xlink:href="#wShHIeaWSCwQ_pad-14" x="-1129.038" y="3925.064"/><use xlink:href="#wShHIeaWSCwQ_pad-14" x="-6870.962" y="-1925.064"/><use xlink:href="#wShHIeaWSCwQ_pad-14" x="-6870.962" y="-1275.078"/><use xlink:href="#wShHIeaWSCwQ_pad-14" x="-6870.962" y="-625.092"/><use xlink:href="#wShHIeaWSCwQ_pad-14" x="-6870.962" y="24.894"/><use xlink:href="#wShHIeaWSCwQ_pad-14" x="-6870.962" y="675.134"/><use xlink:href="#wShHIeaWSCwQ_pad-14" x="-6870.962" y="1325.12"/><use xlink:href="#wShHIeaWSCwQ_pad-14" x="-6870.962" y="1975.106"/><use xlink:href="#wShHIeaWSCwQ_pad-14" x="-6870.962" y="2625.092"/><use xlink:href="#wShHIeaWSCwQ_pad-14" x="-6870.962" y="3275.078"/><use xlink:href="#wShHIeaWSCwQ_pad-14" x="-6870.962" y="3925.064"/><use xlink:href="#wShHIeaWSCwQ_pad-17" x="-6080" y="7000"/><use xlink:href="#wShHIeaWSCwQ_pad-19" x="-3540" y="7000"/><use xlink:href="#wShHIeaWSCwQ_pad-19" x="-1000" y="7000"/><use xlink:href="#wShHIeaWSCwQ_pad-19" x="1540" y="7000"/><use xlink:href="#wShHIeaWSCwQ_pad-19" x="4080" y="7000"/><use xlink:href="#wShHIeaWSCwQ_pad-21" x="6000" y="3825"/><use xlink:href="#wShHIeaWSCwQ_pad-21" x="6000" y="2175"/><use xlink:href="#wShHIeaWSCwQ_pad-21" x="3000" y="3825"/><use xlink:href="#wShHIeaWSCwQ_pad-21" x="3000" y="2175"/><use xlink:href="#wShHIeaWSCwQ_pad-24" x="4175" y="-2000"/><use xlink:href="#wShHIeaWSCwQ_pad-24" x="5825" y="-2000"/><use xlink:href="#wShHIeaWSCwQ_pad-24" x="4825" y="-5000"/><use xlink:href="#wShHIeaWSCwQ_pad-24" x="3175" y="-5000"/><path d="M -1000 7000 -1988.709 7988.709" fill="none" stroke-width="150"/><path d="M -1988.709 7988.709 -10472.656 7988.709" fill="none" stroke-width="150"/><path d="M -10472.656 7988.709 -10472.656 1636.823" fill="none" stroke-width="150"/><path d="M -10472.656 1636.823 -9840.316 1004.483" fill="none" stroke-width="150"/><path d="M -9840.316 1004.483 -9841.809 998.247" fill="none" stroke-width="150"/><path d="M -9841.809 998.247 -9841.809 998.247" fill="none" stroke-width="150"/><path d="M -9662.7 25.137 -9662.7 25.137" fill="none" stroke-width="150"/><path d="M -9662.7 25.137 -9662.7 -585.805" fill="none" stroke-width="150"/><path d="M -9662.7 -585.805 -9389.027 -859.478" fill="none" stroke-width="150"/><path d="M -9389.027 -859.478 -9281.56 -1010.413" fill="none" stroke-width="150"/><path d="M -9281.56 -1010.413 -9281.56 -1010.413" fill="none" stroke-width="150"/><path d="M -8569.15 -1412.028 -8569.15 -1412.028" fill="none" stroke-width="150"/><path d="M -8569.15 -1412.028 -7782.213 -625.092" fill="none" stroke-width="150"/><path d="M -7782.213 -625.092 -6870.962 -625.092" fill="none" stroke-width="150"/><path d="M -6870.962 -625.092 -5703.551 -625.092" fill="none" stroke-width="150"/><path d="M -5703.551 -625.092 -5645.203 -683.44" fill="none" stroke-width="150"/><path d="M -5645.203 -683.44 -5570.781 -708.438" fill="none" stroke-width="150"/><path d="M -5570.781 -708.438 -5570.781 -708.438" fill="none" stroke-width="150"/><path d="M 3639.83 -7556.013 3639.83 -7556.013" fill="none" stroke-width="150"/><path d="M 3639.83 -7556.013 3639.83 -9614.83" fill="none" stroke-width="150"/><path d="M 3639.83 -9614.83 3750 -9725" fill="none" stroke-width="150"/><path d="M -3540 7000 -3540 2390.221" fill="none" stroke-width="150"/><path d="M -3540 2390.221 -2973.686 1823.906" fill="none" stroke-width="150"/><path d="M -2973.686 1823.906 -2932.344 1823.906" fill="none" stroke-width="150"/><path d="M -2932.344 1823.906 -2932.344 1823.906" fill="none" stroke-width="150"/><path d="M 400 300 400 300" fill="none" stroke-width="150"/><path d="M 400 300 -853.932 300" fill="none" stroke-width="150"/><path d="M -853.932 300 -1129.038 24.894" fill="none" stroke-width="150"/><path d="M 2600 500 2600 500" fill="none" stroke-width="150"/><path d="M 2600 500 2124.894 24.894" fill="none" stroke-width="150"/><path d="M 2124.894 24.894 -1129.038 24.894" fill="none" stroke-width="150"/><path d="M 6000 2175 6573.767 2175" fill="none" stroke-width="150"/><path d="M 6573.767 2175 7900 3501.233" fill="none" stroke-width="150"/><path d="M 7900 3501.233 7900 3744.163" fill="none" stroke-width="150"/><path d="M 7900 3744.163 7188.198 4455.965" fill="none" stroke-width="150"/><path d="M 7188.198 4455.965 6624.035 4455.965" fill="none" stroke-width="150"/><path d="M 6624.035 4455.965 4080 7000" fill="none" stroke-width="150"/><path d="M 6000 2175 3355.699 -469.301" fill="none" stroke-width="150"/><path d="M 3355.699 -469.301 -943.873 -469.301" fill="none" stroke-width="150"/><path d="M -943.873 -469.301 -973.247 -469.301" fill="none" stroke-width="150"/><path d="M -973.247 -469.301 -1129.038 -625.092" fill="none" stroke-width="150"/><path d="M 1540 7000 -1662.031 10202.031" fill="none" stroke-width="150"/><path d="M -1662.031 10202.031 -8633.576 10202.031" fill="none" stroke-width="150"/><path d="M -8633.576 10202.031 -8797.031 10202.031" fill="none" stroke-width="150"/><path d="M -8797.031 10202.031 -8797.031 10202.031" fill="none" stroke-width="150"/><path d="M 400 -1100 400 -1100" fill="none" stroke-width="150"/><path d="M 400 -1100 -953.96 -1100" fill="none" stroke-width="150"/><path d="M -953.96 -1100 -1129.038 -1275.078" fill="none" stroke-width="150"/><path d="M 3000 2175 -929.144 2175" fill="none" stroke-width="150"/><path d="M -929.144 2175 -1129.038 1975.106" fill="none" stroke-width="150"/><path d="M 7750 -9725 7750 -9014.35" fill="none" stroke-width="150"/><path d="M 7750 -9014.35 6131.256 -7395.606" fill="none" stroke-width="150"/><path d="M 6131.256 -7395.606 5570.606 -7395.606" fill="none" stroke-width="150"/><path d="M 5570.606 -7395.606 3175 -5000" fill="none" stroke-width="150"/><path d="M -1129.038 1975.106 75.106 1975.106" fill="none" stroke-width="150"/><path d="M 75.106 1975.106 284.239 2184.239" fill="none" stroke-width="150"/><path d="M 284.239 2184.239 400 2300" fill="none" stroke-width="150"/><path d="M 400 2300 400 2300" fill="none" stroke-width="150"/><path d="M -4200 3950 -4200 3950" fill="none" stroke-width="150"/><path d="M -4200 3950 -4200 5120" fill="none" stroke-width="150"/><path d="M -4200 5120 -6080 7000" fill="none" stroke-width="150"/><path d="M 3175 -5000 3175 -3841.934" fill="none" stroke-width="150"/><path d="M 3175 -3841.934 3770.156 -3246.777" fill="none" stroke-width="150"/><path d="M 3770.156 -3246.777 3770.156 -3202.969" fill="none" stroke-width="150"/><path d="M 3770.156 -3202.969 3770.156 -3202.969" fill="none" stroke-width="150"/><path d="M 3800 929.375 3800 929.375" fill="none" stroke-width="150"/><path d="M 3800 929.375 3800 1375" fill="none" stroke-width="150"/><path d="M 3800 1375 3000 2175" fill="none" stroke-width="150"/><path d="M 3000 3825 2625.47 3825" fill="none" stroke-width="150"/><path d="M 2625.47 3825 2183.259 4267.211" fill="none" stroke-width="150"/><path d="M 2183.259 4267.211 2094.531 4337.344" fill="none" stroke-width="150"/><path d="M 2094.531 4337.344 2094.531 4337.344" fill="none" stroke-width="150"/><path d="M 7300 3600 7300 3600" fill="none" stroke-width="150"/><path d="M 7300 3600 6225 3600" fill="none" stroke-width="150"/><path d="M 6225 3600 6000 3825" fill="none" stroke-width="150"/><path d="M 3000 3825 2450.078 3275.078" fill="none" stroke-width="150"/><path d="M 2450.078 3275.078 -1129.038 3275.078" fill="none" stroke-width="150"/><path d="M 4175 -2000 4175 -1184.026" fill="none" stroke-width="150"/><path d="M 4175 -1184.026 4481.844 -877.182" fill="none" stroke-width="150"/><path d="M 4481.844 -877.182 4607.969 -689.531" fill="none" stroke-width="150"/><path d="M 4607.969 -689.531 4607.969 -689.531" fill="none" stroke-width="150"/><path d="M 2094.531 2661.719 2094.531 2661.719" fill="none" stroke-width="150"/><path d="M 2094.531 2661.719 2094.531 2919.531" fill="none" stroke-width="150"/><path d="M 2094.531 2919.531 3000 3825" fill="none" stroke-width="150"/><path d="M -1129.038 3275.078 -2304.047 3275.078" fill="none" stroke-width="150"/><path d="M -2304.047 3275.078 -2895 2684.125" fill="none" stroke-width="150"/><path d="M -2895 2684.125 -2932.344 2661.719" fill="none" stroke-width="150"/><path d="M -2932.344 2661.719 -2932.344 2661.719" fill="none" stroke-width="150"/><path d="M -8544.438 739.625 -8544.438 739.625" fill="none" stroke-width="150"/><path d="M -8544.438 739.625 -8760.392 523.671" fill="none" stroke-width="150"/><path d="M -8760.392 523.671 -9705.013 523.671" fill="none" stroke-width="150"/><path d="M -9705.013 523.671 -10028.75 423.645" fill="none" stroke-width="150"/><path d="M -10028.75 423.645 -9943.094 450.111" fill="none" stroke-width="150"/><path d="M -9943.094 450.111 -10172.585 220.619" fill="none" stroke-width="150"/><path d="M -10172.585 220.619 -10172.585 -4939.471" fill="none" stroke-width="150"/><path d="M -10172.585 -4939.471 -10172.585 -5083.847" fill="none" stroke-width="150"/><path d="M -10172.585 -5083.847 -9215.938 -6040.494" fill="none" stroke-width="150"/><path d="M -9215.938 -6040.494 -9215.938 -6135.312" fill="none" stroke-width="150"/><path d="M -9215.938 -6135.312 -9215.938 -6135.312" fill="none" stroke-width="150"/><path d="M 4825 -5000 4825 -3000" fill="none" stroke-width="150"/><path d="M 4825 -3000 5825 -2000" fill="none" stroke-width="150"/><path d="M 4825 -5000 4825 -3000" fill="none" stroke-width="150"/><path d="M 4825 -3000 5825 -2000" fill="none" stroke-width="150"/><path d="M -6283.594 -7392.031 -6283.594 -7392.031" fill="none" stroke-width="150"/><path d="M -6283.594 -7392.031 -6283.594 -4562.557" fill="none" stroke-width="150"/><path d="M -6283.594 -4562.557 -9213.297 -1632.853" fill="none" stroke-width="150"/><path d="M -9213.297 -1632.853 -9388.025 -1921.25" fill="none" stroke-width="150"/><path d="M -9388.025 -1921.25 -9388.025 -1921.25" fill="none" stroke-width="150"/><path d="M -9388.025 -1921.25 -8403.125 -295.625" fill="none" stroke-width="150"/><path d="M -8403.125 -295.625 -8403.125 -295.625" fill="none" stroke-width="150"/><path d="M -8403.125 -295.625 -8695.339 -777.939" fill="none" stroke-width="150"/><path d="M -8695.339 -777.939 -8155.927 -238.526" fill="none" stroke-width="150"/><path d="M -8155.927 -238.526 -7273.041 -238.526" fill="none" stroke-width="150"/><path d="M -7273.041 -238.526 -7134.382 -238.526" fill="none" stroke-width="150"/><path d="M -7134.382 -238.526 -6870.962 24.894" fill="none" stroke-width="150"/><path d="M -5445.781 -7392.031 -5445.781 -7392.031" fill="none" stroke-width="150"/><path d="M -5445.781 -7392.031 -5047.648 -6993.898" fill="none" stroke-width="150"/><path d="M -5047.648 -6993.898 -5047.648 -330.815" fill="none" stroke-width="150"/><path d="M -5047.648 -330.815 -6053.597 675.134" fill="none" stroke-width="150"/><path d="M -6053.597 675.134 -6870.962 675.134" fill="none" stroke-width="150"/><path d="M -4750 -9725 -4750 -7798.343" fill="none" stroke-width="150"/><path d="M -4750 -7798.343 -4945.239 -7603.104" fill="none" stroke-width="150"/><path d="M -4945.239 -7603.104 -4945.239 -7633.787" fill="none" stroke-width="150"/><path d="M -4945.239 -7633.787 -4945.239 -6992.557" fill="none" stroke-width="150"/><path d="M -4945.239 -6992.557 -4945.239 -6992.557" fill="none" stroke-width="150"/><path d="M -4945.239 -6992.557 -4735.859 -6783.177" fill="none" stroke-width="150"/><path d="M -4735.859 -6783.177 -4735.859 -6690.524" fill="none" stroke-width="150"/><path d="M -4735.859 -6690.524 -4735.859 33.053" fill="none" stroke-width="150"/><path d="M -4735.859 33.053 -6002.807 1300" fill="none" stroke-width="150"/><path d="M -6002.807 1300 -6845.842 1300" fill="none" stroke-width="150"/><path d="M -6845.842 1300 -6870.962 1325.12" fill="none" stroke-width="150"/><path d="M -2094.531 -7392.031 -2094.531 -7392.031" fill="none" stroke-width="150"/><path d="M -2094.531 -7392.031 -2094.531 -2342.4" fill="none" stroke-width="150"/><path d="M -2094.531 -2342.4 -3649.538 -787.394" fill="none" stroke-width="150"/><path d="M -3649.538 -787.394 -3649.538 -180.303" fill="none" stroke-width="150"/><path d="M -3649.538 -180.303 -3750 -79.84" fill="none" stroke-width="150"/><path d="M -3750 -79.84 -3633.387 103.062" fill="none" stroke-width="150"/><path d="M -3633.387 103.062 -3633.387 103.062" fill="none" stroke-width="150"/><path d="M -4552.775 1901.636 -4552.775 1901.636" fill="none" stroke-width="150"/><path d="M -4552.775 1901.636 -6797.492 1901.636" fill="none" stroke-width="150"/><path d="M -6797.492 1901.636 -6870.962 1975.106" fill="none" stroke-width="150"/><path d="M -5445.781 2661.719 -5445.781 2661.719" fill="none" stroke-width="150"/><path d="M -5445.781 2661.719 -6834.335 2661.719" fill="none" stroke-width="150"/><path d="M -6834.335 2661.719 -6870.962 2625.092" fill="none" stroke-width="150"/><path d="M -3750 -9725 -3750 -1138.765" fill="none" stroke-width="150"/><path d="M -3750 -1138.765 -4314.58 -574.186" fill="none" stroke-width="150"/><path d="M -4314.58 -574.186 -4314.58 1273.948" fill="none" stroke-width="150"/><path d="M -4314.58 1273.948 -4030.931 1557.597" fill="none" stroke-width="150"/><path d="M -4030.931 1557.597 -4030.931 2085.598" fill="none" stroke-width="150"/><path d="M -4030.931 2085.598 -5071.154 3125.822" fill="none" stroke-width="150"/><path d="M -5071.154 3125.822 -5283.824 3072.774" fill="none" stroke-width="150"/><path d="M -5283.824 3072.774 -5722.997 3137.488" fill="none" stroke-width="150"/><path d="M -5722.997 3137.488 -5681.253 3131.336" fill="none" stroke-width="150"/><path d="M -5681.253 3131.336 -5710.045 3131.336" fill="none" stroke-width="150"/><path d="M -5710.045 3131.336 -6727.22 3131.336" fill="none" stroke-width="150"/><path d="M -6727.22 3131.336 -6870.962 3275.078" fill="none" stroke-width="150"/><path d="M -3250 -9725 -3250 -6350" fill="none" stroke-width="150"/><path d="M -3250 -6350 -2984.978 -6084.978" fill="none" stroke-width="150"/><path d="M -2984.978 -6084.978 -2900 -6000" fill="none" stroke-width="150"/><path d="M -2900 -6000 -2900 -6000" fill="none" stroke-width="150"/><path d="M -5426.875 3624.531 -5426.875 3624.531" fill="none" stroke-width="150"/><path d="M -5426.875 3624.531 -5727.408 3925.064" fill="none" stroke-width="150"/><path d="M -5727.408 3925.064 -6870.962 3925.064" fill="none" stroke-width="150"/><path d="M -4250 -9725 -4250 -7360.228" fill="none" stroke-width="150"/><path d="M -4250 -7360.228 -4378.614 -7231.615" fill="none" stroke-width="150"/><path d="M -4378.614 -7231.615 -4420.303 -7290.769" fill="none" stroke-width="150"/><path d="M -4420.303 -7290.769 -4420.303 -7290.769" fill="none" stroke-width="150"/><path d="M -1275.625 -5700 -1275.625 -5700" fill="none" stroke-width="150"/><path d="M -1275.625 -5700 -1275.625 -4575.735" fill="none" stroke-width="150"/><path d="M -1275.625 -4575.735 579.855 -2720.255" fill="none" stroke-width="150"/><path d="M 579.855 -2720.255 700 -2700" fill="none" stroke-width="150"/><path d="M 700 -2700 700 -2700" fill="none" stroke-width="150"/><path d="M 1000 4100 1000 4100" fill="none" stroke-width="150"/><path d="M 1000 4100 -954.102 4100" fill="none" stroke-width="150"/><path d="M -954.102 4100 -1129.038 3925.064" fill="none" stroke-width="150"/><path d="M 400 -5800 400 -5800" fill="none" stroke-width="150"/><path d="M 400 -5800 1338.569 -4861.431" fill="none" stroke-width="150"/><path d="M 1338.569 -4861.431 1338.569 -2440.068" fill="none" stroke-width="150"/><path d="M 1338.569 -2440.068 823.566 -1925.064" fill="none" stroke-width="150"/><path d="M 823.566 -1925.064 -1129.038 -1925.064" fill="none" stroke-width="150"/><use xlink:href="#wShHIeaWSCwQ_pad-26" x="-9841.809" y="998.247"/><use xlink:href="#wShHIeaWSCwQ_pad-26" x="-9662.7" y="25.137"/><use xlink:href="#wShHIeaWSCwQ_pad-26" x="-9281.56" y="-1010.413"/><use xlink:href="#wShHIeaWSCwQ_pad-26" x="-8569.15" y="-1412.028"/><use xlink:href="#wShHIeaWSCwQ_pad-26" x="-5570.781" y="-708.438"/><use xlink:href="#wShHIeaWSCwQ_pad-26" x="3639.83" y="-7556.013"/><use xlink:href="#wShHIeaWSCwQ_pad-26" x="-2932.344" y="1823.906"/><use xlink:href="#wShHIeaWSCwQ_pad-26" x="400" y="300"/><use xlink:href="#wShHIeaWSCwQ_pad-26" x="2600" y="500"/><use xlink:href="#wShHIeaWSCwQ_pad-26" x="-8797.031" y="10202.031"/><use xlink:href="#wShHIeaWSCwQ_pad-26" x="400" y="-1100"/><use xlink:href="#wShHIeaWSCwQ_pad-26" x="400" y="2300"/><use xlink:href="#wShHIeaWSCwQ_pad-26" x="-4200" y="3950"/><use xlink:href="#wShHIeaWSCwQ_pad-26" x="3770.156" y="-3202.969"/><use xlink:href="#wShHIeaWSCwQ_pad-26" x="3800" y="929.375"/><use xlink:href="#wShHIeaWSCwQ_pad-26" x="2094.531" y="4337.344"/><use xlink:href="#wShHIeaWSCwQ_pad-26" x="7300" y="3600"/><use xlink:href="#wShHIeaWSCwQ_pad-26" x="4607.969" y="-689.531"/><use xlink:href="#wShHIeaWSCwQ_pad-26" x="2094.531" y="2661.719"/><use xlink:href="#wShHIeaWSCwQ_pad-26" x="-2932.344" y="2661.719"/><use xlink:href="#wShHIeaWSCwQ_pad-26" x="-8544.438" y="739.625"/><use xlink:href="#wShHIeaWSCwQ_pad-26" x="-9215.938" y="-6135.312"/><use xlink:href="#wShHIeaWSCwQ_pad-26" x="-6283.594" y="-7392.031"/><use xlink:href="#wShHIeaWSCwQ_pad-26" x="-5445.781" y="-7392.031"/><use xlink:href="#wShHIeaWSCwQ_pad-26" x="-2094.531" y="-7392.031"/><use xlink:href="#wShHIeaWSCwQ_pad-26" x="-3633.387" y="103.062"/><use xlink:href="#wShHIeaWSCwQ_pad-26" x="-4552.775" y="1901.636"/><use xlink:href="#wShHIeaWSCwQ_pad-26" x="-5445.781" y="2661.719"/><use xlink:href="#wShHIeaWSCwQ_pad-26" x="-2900" y="-6000"/><use xlink:href="#wShHIeaWSCwQ_pad-26" x="-5426.875" y="3624.531"/><use xlink:href="#wShHIeaWSCwQ_pad-26" x="-4420.303" y="-7290.769"/><use xlink:href="#wShHIeaWSCwQ_pad-26" x="-1275.625" y="-5700"/><use xlink:href="#wShHIeaWSCwQ_pad-26" x="700" y="-2700"/><use xlink:href="#wShHIeaWSCwQ_pad-26" x="1000" y="4100"/><use xlink:href="#wShHIeaWSCwQ_pad-26" x="400" y="-5800"/></g><g id="cgZfJajsydf0_top_silkscreen"><path d="M -2228.604 -2326.206 -5771.396 -2326.206 -5771.396 4326.206 -2228.604 4326.206 -2228.604 -2326.206" fill="none" stroke-width="100"/><path d="M -6745.136 8146.021 -6745.136 7896.015 M -6745.136 8110.453 -6718.857 8134.28 -6692.972 8146.021 -6653.75 8146.021 -6627.472 8134.28 -6601.194 8110.453 -6588.25 8074.541 -6588.25 8050.714 -6601.194 8015.147 -6627.472 7991.32 -6653.75 7979.235 -6692.972 7979.235 -6718.857 7991.32 -6745.136 8015.147 M -6334.667 8215.918 -6306.667 8215.918 M -6320.684 8133.369 -6320.684 7968.614 M -6047.786 8146.021 -6047.786 7963.721 M -6047.786 8093.935 -6007.922 8133.188 -5981.224 8146.021 -5941.36 8146.021 -5914.845 8133.188 -5901.496 8093.935 -5901.496 7963.721 M -5656.825 8157.042 -5600.405 8205.151 -5600.405 7967.862" fill="none" stroke-width="45"/><path d="M -4205.136 8146.021 -4205.136 7896.015 M -4205.136 8110.453 -4178.857 8134.28 -4152.972 8146.021 -4113.75 8146.021 -4087.472 8134.28 -4061.194 8110.453 -4048.25 8074.541 -4048.25 8050.714 -4061.194 8015.147 -4087.472 7991.32 -4113.75 7979.235 -4152.972 7979.235 -4178.857 7991.32 -4205.136 8015.147 M -3794.667 8215.918 -3766.667 8215.918 M -3780.684 8133.369 -3780.684 7968.614 M -3507.786 8146.021 -3507.786 7963.721 M -3507.786 8093.935 -3467.922 8133.188 -3441.224 8146.021 -3401.36 8146.021 -3374.845 8133.188 -3361.496 8093.935 -3361.496 7963.721 M -3155.331 8162.758 -3150.007 8180.197 -3134.274 8196.462 -3108.491 8207.492 -3091.943 8209.765 -3063.312 8207.67 -3041.835 8198.253 -3030.09 8183.812 -3025.872 8167.03 -3026.152 8155.868 -3031.193 8137.183 -3053.074 8100.854 -3108.177 8031.747 -3166.118 7968.184 -3011.112 7968.184" fill="none" stroke-width="45"/><path d="M -1665.136 8146.021 -1665.136 7896.015 M -1665.136 8110.453 -1638.857 8134.28 -1612.972 8146.021 -1573.75 8146.021 -1547.472 8134.28 -1521.194 8110.453 -1508.25 8074.541 -1508.25 8050.714 -1521.194 8015.147 -1547.472 7991.32 -1573.75 7979.235 -1612.972 7979.235 -1638.857 7991.32 -1665.136 8015.147 M -1254.667 8215.918 -1226.667 8215.918 M -1240.684 8133.369 -1240.684 7968.614 M -967.786 8146.021 -967.786 7963.721 M -967.786 8093.935 -927.922 8133.188 -901.224 8146.021 -861.36 8146.021 -834.845 8133.188 -821.496 8093.935 -821.496 7963.721 M -625.412 8179.224 -612.27 8189.528 -591.325 8200.568 -564.631 8209.765 -531.777 8207.928 -503.03 8198.728 -482.495 8182.168 -470.175 8161.928 -474.282 8139.848 -490.709 8123.288 -519.457 8110.408 -552.312 8103.048 -581.059 8099.368 -552.312 8095.688 -519.457 8086.488 -490.709 8071.768 -472.228 8051.527 -468.122 8029.448 -476.335 8005.527 -494.816 7985.287 -523.564 7968.727 -545.33 7963.575 -580.648 7964.311 -609.396 7968.727 -629.108 7974.615" fill="none" stroke-width="45"/><path d="M 874.864 8146.021 874.864 7896.015 M 874.864 8110.453 901.143 8134.28 927.028 8146.021 966.25 8146.021 992.528 8134.28 1018.806 8110.453 1031.75 8074.541 1031.75 8050.714 1018.806 8015.147 992.528 7991.32 966.25 7979.235 927.028 7979.235 901.143 7991.32 874.864 8015.147 M 1285.333 8215.918 1313.333 8215.918 M 1299.316 8133.369 1299.316 7968.614 M 1572.214 8146.021 1572.214 7963.721 M 1572.214 8093.935 1612.078 8133.188 1638.776 8146.021 1678.64 8146.021 1705.155 8133.188 1718.504 8093.935 1718.504 7963.721 M 2032.499 8205.151 1903.116 8046.53 2079.654 8046.53 M 2030.989 8097.642 2030.989 7967.861" fill="none" stroke-width="45"/><path d="M 3414.864 8146.021 3414.864 7896.015 M 3414.864 8110.453 3441.143 8134.28 3467.028 8146.021 3506.25 8146.021 3532.528 8134.28 3558.806 8110.453 3571.75 8074.541 3571.75 8050.714 3558.806 8015.147 3532.528 7991.32 3506.25 7979.235 3467.028 7979.235 3441.143 7991.32 3414.864 8015.147 M 3825.333 8215.918 3853.333 8215.918 M 3839.316 8133.369 3839.316 7968.614 M 4112.214 8146.021 4112.214 7963.721 M 4112.214 8093.935 4152.078 8133.188 4178.776 8146.021 4218.64 8146.021 4245.155 8133.188 4258.504 8093.935 4258.504 7963.721 M 4452.259 8205.151 4452.259 8084.855 4519.705 8100.675 4567.862 8094.724 4587.027 8083.984 4600.336 8068.744 4610.511 8027.21 4605.699 8005.633 4593.072 7988.651 4568.258 7972.88 4539.582 7964.582 4512.616 7963.251 4489.907 7967.582 4471.55 7976.072 4452.259 7993.538 M 4452.259 8205.151 4610.511 8205.151" fill="none" stroke-width="45"/><path d="M -3658.267 9652.212 -3657.79 9401.725 -3662.369 9370.378 -3671.059 9353.413 -3683.245 9339.923 -3697.832 9329.59 -3729.853 9317.142 -3758.389 9313.552 -3797.068 9317.717 -3825.582 9329.147 -3839.453 9340.22 -3849.569 9353.647 -3856.236 9369.079 -3859.758 9386.166 -3860.441 9404.558 M -3314.173 9584.86 -3235.185 9652.212 -3235.185 9320.007 M -2937.746 9216.306 -2642.74 9216.306 M -2195.867 9569.429 -2195.867 9300.196 -2214.006 9249.96 -2232.697 9232.889 -2268.977 9216.306 -2323.947 9216.306 -2360.776 9232.889 -2397.606 9266.543 -2415.745 9317.268 M -2195.867 9519.191 -2232.697 9552.845 -2268.977 9569.429 -2323.947 9569.429 -2360.776 9552.845 -2397.606 9519.191 -2415.745 9468.466 -2415.745 9434.812 -2397.606 9384.575 -2360.776 9350.921 -2323.947 9333.851 -2268.977 9333.851 -2232.697 9350.921 -2195.867 9384.575 M -1916.236 9569.429 -1916.236 9314.21 M -1916.236 9460.05 -1892.519 9515.003 -1845.086 9551.463 -1797.653 9569.429 -1726.504 9569.429 M -1455.247 9457.284 -1218.62 9457.284 M -1218.62 9494.665 -1238.142 9532.047 -1258.255 9551.008 -1297.299 9569.429 -1356.455 9569.429 -1396.09 9551.008 -1435.725 9513.627 -1455.247 9457.284 -1455.247 9419.901 -1435.725 9364.1 -1396.09 9326.718 -1356.455 9307.757 -1297.299 9307.757 -1258.255 9326.718 -1218.62 9364.1 M -970.81 9457.284 -734.184 9457.284 M -734.184 9494.665 -753.706 9532.047 -773.819 9551.008 -812.862 9569.429 -872.019 9569.429 -911.653 9551.008 -951.288 9513.627 -970.81 9457.284 -970.81 9419.901 -951.288 9364.1 -911.653 9326.718 -872.019 9307.757 -812.862 9307.757 -773.819 9326.718 -734.184 9364.1 M -470.464 9569.429 -470.464 9314.21 M -470.464 9496.509 -414.655 9551.463 -377.278 9569.429 -321.468 9569.429 -284.347 9551.463 -265.658 9496.509 -265.658 9314.21 M 6.556 9569.429 6.556 9219.42 M 6.556 9519.634 43.346 9552.991 79.585 9569.429 134.495 9569.429 171.285 9552.991 208.074 9519.634 226.195 9469.357 226.195 9435.999 208.074 9386.206 171.285 9352.848 134.495 9335.929 79.585 9335.929 43.346 9352.848 6.556 9386.206 M 581.212 9667.285 620.412 9667.285 M 600.788 9551.716 600.788 9321.06 M 1085.248 9669.917 1085.248 9321.244 M 1569.685 9669.917 1569.685 9321.244" fill="none" stroke-width="63"/><path d="M 6875 2175 6875 4425 5125 4425 5125 2175" fill="none" stroke-width="100"/><path d="M 7250.649 4651.149 7434.204 4651.149 7439.121 4597.329 7437.477 4559.554 7432.426 4536.766 7428.308 4527.184 7422.948 4519.298 7416.211 4513.472 7397.943 4508.335 7381.742 4508.817 7370.011 4514.075 7361.975 4523.512 7356.856 4536.531 7352.953 4561.47 7349.904 4647.582 M 7342.154 4576.07 7249.288 4502.126 M 7400.634 4322.385 7439.121 4277.249 7249.29 4277.249 M 7190.032 4107.283 7190.032 3938.709 M 7391.817 3683.353 7237.969 3683.353 7209.263 3693.718 7199.508 3704.398 7190.032 3725.129 7190.032 3756.541 7199.508 3777.586 7218.739 3798.632 7247.725 3808.997 M 7363.109 3683.353 7382.34 3704.398 7391.817 3725.129 7391.817 3756.541 7382.34 3777.586 7363.109 3798.632 7334.123 3808.997 7314.893 3808.997 7286.186 3798.632 7266.955 3777.586 7257.2 3756.541 7257.2 3725.129 7266.955 3704.398 7286.186 3683.353 M 7391.817 3523.563 7245.977 3523.563 M 7329.314 3523.563 7360.716 3510.011 7381.55 3482.906 7391.817 3455.802 7391.817 3415.145 M 7327.734 3260.141 7327.734 3124.926 M 7349.094 3124.926 7370.455 3136.081 7381.29 3147.574 7391.817 3169.885 7391.817 3203.689 7381.29 3226.337 7359.93 3248.985 7327.734 3260.141 7306.372 3260.141 7274.486 3248.985 7253.124 3226.337 7242.29 3203.689 7242.29 3169.885 7253.124 3147.574 7274.486 3124.926 M 7327.734 2983.32 7327.734 2848.105 M 7349.094 2848.105 7370.455 2859.261 7381.29 2870.754 7391.817 2893.064 7391.817 2926.868 7381.29 2949.516 7359.93 2972.165 7327.734 2983.32 7306.372 2983.32 7274.486 2972.165 7253.124 2949.516 7242.29 2926.868 7242.29 2893.064 7253.124 2870.754 7274.486 2848.105 M 7391.817 2697.408 7245.977 2697.408 M 7350.148 2697.408 7381.55 2665.517 7391.817 2644.159 7391.817 2612.268 7381.55 2591.055 7350.148 2580.376 7245.977 2580.376 M 7391.817 2424.825 7191.812 2424.825 M 7363.362 2424.825 7382.424 2403.802 7391.817 2383.094 7391.817 2351.717 7382.424 2330.694 7363.362 2309.672 7334.633 2299.317 7315.571 2299.317 7287.118 2309.672 7268.056 2330.694 7258.388 2351.717 7258.388 2383.094 7268.056 2403.802 7287.118 2424.825 M 7447.734 2096.45 7447.734 2074.05 M 7381.695 2085.264 7249.891 2085.264 M 7449.238 1808.43 7249.997 1808.43 M 7449.238 1531.609 7249.997 1531.609" fill="none" stroke-width="36"/><path d="M 3875 2175 3875 4425 2125 4425 2125 2175" fill="none" stroke-width="100"/><path d="M 1647.443 4512.79 1668.345 4521.366 1683.145 4537.098 1692.812 4566.892 1689.86 4588.909 1679.951 4608.311 1657.079 4627.257 1597.044 4640.485 1536.692 4630.104 1512.389 4614.618 1501.016 4598.518 1495.86 4567.152 1502.45 4539.816 1521.68 4519.576 1548.822 4512.79 M 1650.634 4322.385 1689.121 4277.249 1499.29 4277.249 M 1440.032 4107.283 1440.032 3938.709 M 1641.817 3683.353 1487.969 3683.353 1459.263 3693.718 1449.508 3704.398 1440.032 3725.129 1440.032 3756.541 1449.508 3777.586 1468.739 3798.632 1497.725 3808.997 M 1613.109 3683.353 1632.34 3704.398 1641.817 3725.129 1641.817 3756.541 1632.34 3777.586 1613.109 3798.632 1584.123 3808.997 1564.893 3808.997 1536.186 3798.632 1516.955 3777.586 1507.2 3756.541 1507.2 3725.129 1516.955 3704.398 1536.186 3683.353 M 1641.817 3523.563 1495.977 3523.563 M 1579.314 3523.563 1610.716 3510.011 1631.55 3482.906 1641.817 3455.802 1641.817 3415.145 M 1577.734 3260.141 1577.734 3124.926 M 1599.094 3124.926 1620.455 3136.081 1631.29 3147.574 1641.817 3169.885 1641.817 3203.689 1631.29 3226.337 1609.93 3248.985 1577.734 3260.141 1556.372 3260.141 1524.486 3248.985 1503.124 3226.337 1492.29 3203.689 1492.29 3169.885 1503.124 3147.574 1524.486 3124.926 M 1577.734 2983.32 1577.734 2848.105 M 1599.094 2848.105 1620.455 2859.261 1631.29 2870.754 1641.817 2893.064 1641.817 2926.868 1631.29 2949.516 1609.93 2972.165 1577.734 2983.32 1556.372 2983.32 1524.486 2972.165 1503.124 2949.516 1492.29 2926.868 1492.29 2893.064 1503.124 2870.754 1524.486 2848.105 M 1641.817 2697.408 1495.977 2697.408 M 1600.148 2697.408 1631.55 2665.517 1641.817 2644.159 1641.817 2612.268 1631.55 2591.055 1600.148 2580.376 1495.977 2580.376 M 1641.817 2424.825 1441.812 2424.825 M 1613.362 2424.825 1632.424 2403.802 1641.817 2383.094 1641.817 2351.717 1632.424 2330.694 1613.362 2309.672 1584.633 2299.317 1565.571 2299.317 1537.118 2309.672 1518.056 2330.694 1508.388 2351.717 1508.388 2383.094 1518.056 2403.802 1537.118 2424.825 M 1697.734 2096.45 1697.734 2074.05 M 1631.695 2085.264 1499.891 2085.264 M 1699.238 1808.43 1499.997 1808.43 M 1699.238 1531.609 1499.997 1531.609" fill="none" stroke-width="36"/><path d="M 5825 -1125 3575 -1125 3575 -2875 5825 -2875" fill="none" stroke-width="100"/><path d="M 4732.955 -749.351 4732.955 -565.796 4786.775 -560.879 4824.55 -562.523 4847.338 -567.574 4856.92 -571.692 4864.806 -577.052 4870.632 -583.789 4875.769 -602.057 4875.287 -618.258 4870.029 -629.989 4860.592 -638.025 4847.573 -643.144 4822.634 -647.047 4736.522 -650.096 M 4808.034 -657.846 4881.978 -750.712 M 5030.915 -594.794 5035.174 -580.842 5047.76 -567.83 5068.386 -559.007 5081.625 -557.188 5104.529 -558.864 5121.711 -566.397 5131.107 -577.95 5134.482 -591.376 5134.258 -600.306 5130.225 -615.254 5112.72 -644.317 5068.638 -699.603 5022.285 -750.453 5146.289 -750.453" fill="none" stroke-width="36"/><path d="M 3175 -5875 5425 -5875 5425 -4125 3175 -4125" fill="none" stroke-width="100"/><path d="M 4947.75 -6439.121 4947.75 -6249.288 4821.421 -6249.288 M 4669.63 -6439.121 4669.63 -6249.288 M 4669.63 -6439.121 4545.899 -6439.121 M 4669.63 -6344.205 4583.019 -6344.205 M 4669.63 -6249.288 4545.899 -6249.288 M 4397.184 -6249.288 4395.117 -6435.178 4367.29 -6439.121 4345.974 -6438.663 4311.348 -6429.298 4285.742 -6409.075 4271.102 -6381.845 4265.266 -6353.61 4264.703 -6332.352 4267.373 -6314.133 4272.834 -6298.723 4290.366 -6275.405 4313.772 -6260.561 4352.174 -6250.159 4397.184 -6249.288 M 4138.41 -6190.032 3969.836 -6190.032 M 3841.834 -6249.288 3841.834 -6435.539 3803.618 -6439.121 3769.432 -6436.882 3747.203 -6430.856 3737.263 -6425.986 3721.411 -6411.7 3714.367 -6396.356 3712.771 -6373.925 3719.088 -6359.823 3728.947 -6352.028 3744.668 -6345.778 3767.405 -6341.296 3798.306 -6338.805 3838.527 -6338.528 M 3584.769 -6439.121 3562.425 -6251.694 3504.913 -6382.592 3443.297 -6249.288 3416.194 -6439.121 M 3298.173 -6250.649 3298.173 -6434.204 3244.352 -6439.121 3206.577 -6437.477 3183.79 -6432.426 3174.208 -6428.308 3166.321 -6422.948 3160.496 -6416.211 3155.358 -6397.943 3155.841 -6381.742 3161.098 -6370.011 3170.535 -6361.975 3183.554 -6356.856 3208.493 -6352.953 3294.605 -6349.904 M 3223.093 -6342.154 3149.149 -6249.288" fill="none" stroke-width="36"/></g><g id="cgZfJajsydf0_top_soldermask"><use xlink:href="#IRnojut3D3Rv_pad-11" x="9250" y="-9725"/><use xlink:href="#IRnojut3D3Rv_pad-11" x="8750" y="-9725"/><use xlink:href="#IRnojut3D3Rv_pad-11" x="8250" y="-9725"/><use xlink:href="#IRnojut3D3Rv_pad-11" x="7750" y="-9725"/><use xlink:href="#IRnojut3D3Rv_pad-11" x="7250" y="-9725"/><use xlink:href="#IRnojut3D3Rv_pad-11" x="6750" y="-9725"/><use xlink:href="#IRnojut3D3Rv_pad-11" x="6250" y="-9725"/><use xlink:href="#IRnojut3D3Rv_pad-11" x="5750" y="-9725"/><use xlink:href="#IRnojut3D3Rv_pad-11" x="5250" y="-9725"/><use xlink:href="#IRnojut3D3Rv_pad-11" x="4750" y="-9725"/><use xlink:href="#IRnojut3D3Rv_pad-11" x="4250" y="-9725"/><use xlink:href="#IRnojut3D3Rv_pad-11" x="3750" y="-9725"/><use xlink:href="#IRnojut3D3Rv_pad-11" x="1250" y="-9725"/><use xlink:href="#IRnojut3D3Rv_pad-11" x="750" y="-9725"/><use xlink:href="#IRnojut3D3Rv_pad-11" x="250" y="-9725"/><use xlink:href="#IRnojut3D3Rv_pad-11" x="-250" y="-9725"/><use xlink:href="#IRnojut3D3Rv_pad-11" x="-750" y="-9725"/><use xlink:href="#IRnojut3D3Rv_pad-11" x="-1250" y="-9725"/><use xlink:href="#IRnojut3D3Rv_pad-11" x="-1750" y="-9725"/><use xlink:href="#IRnojut3D3Rv_pad-11" x="-2250" y="-9725"/><use xlink:href="#IRnojut3D3Rv_pad-11" x="-2750" y="-9725"/><use xlink:href="#IRnojut3D3Rv_pad-11" x="-3250" y="-9725"/><use xlink:href="#IRnojut3D3Rv_pad-11" x="-3750" y="-9725"/><use xlink:href="#IRnojut3D3Rv_pad-11" x="-4250" y="-9725"/><use xlink:href="#IRnojut3D3Rv_pad-11" x="-4750" y="-9725"/><use xlink:href="#IRnojut3D3Rv_pad-11" x="-5250" y="-9725"/><use xlink:href="#IRnojut3D3Rv_pad-11" x="-5750" y="-9725"/><use xlink:href="#IRnojut3D3Rv_pad-11" x="-6250" y="-9725"/><use xlink:href="#IRnojut3D3Rv_pad-11" x="-6750" y="-9725"/><use xlink:href="#IRnojut3D3Rv_pad-11" x="-7250" y="-9725"/><use xlink:href="#IRnojut3D3Rv_pad-11" x="-7750" y="-9725"/><use xlink:href="#IRnojut3D3Rv_pad-11" x="-8250" y="-9725"/><use xlink:href="#IRnojut3D3Rv_pad-11" x="-8750" y="-9725"/><use xlink:href="#IRnojut3D3Rv_pad-11" x="-9250" y="-9725"/><use xlink:href="#IRnojut3D3Rv_pad-13" x="4200" y="11000"/><use xlink:href="#IRnojut3D3Rv_pad-14" x="-1129.038" y="-1925.064"/><use xlink:href="#IRnojut3D3Rv_pad-14" x="-1129.038" y="-1275.078"/><use xlink:href="#IRnojut3D3Rv_pad-14" x="-1129.038" y="-625.092"/><use xlink:href="#IRnojut3D3Rv_pad-14" x="-1129.038" y="24.894"/><use xlink:href="#IRnojut3D3Rv_pad-14" x="-1129.038" y="675.134"/><use xlink:href="#IRnojut3D3Rv_pad-14" x="-1129.038" y="1325.12"/><use xlink:href="#IRnojut3D3Rv_pad-14" x="-1129.038" y="1975.106"/><use xlink:href="#IRnojut3D3Rv_pad-14" x="-1129.038" y="2625.092"/><use xlink:href="#IRnojut3D3Rv_pad-14" x="-1129.038" y="3275.078"/><use xlink:href="#IRnojut3D3Rv_pad-14" x="-1129.038" y="3925.064"/><use xlink:href="#IRnojut3D3Rv_pad-14" x="-6870.962" y="-1925.064"/><use xlink:href="#IRnojut3D3Rv_pad-14" x="-6870.962" y="-1275.078"/><use xlink:href="#IRnojut3D3Rv_pad-14" x="-6870.962" y="-625.092"/><use xlink:href="#IRnojut3D3Rv_pad-14" x="-6870.962" y="24.894"/><use xlink:href="#IRnojut3D3Rv_pad-14" x="-6870.962" y="675.134"/><use xlink:href="#IRnojut3D3Rv_pad-14" x="-6870.962" y="1325.12"/><use xlink:href="#IRnojut3D3Rv_pad-14" x="-6870.962" y="1975.106"/><use xlink:href="#IRnojut3D3Rv_pad-14" x="-6870.962" y="2625.092"/><use xlink:href="#IRnojut3D3Rv_pad-14" x="-6870.962" y="3275.078"/><use xlink:href="#IRnojut3D3Rv_pad-14" x="-6870.962" y="3925.064"/><use xlink:href="#IRnojut3D3Rv_pad-17" x="-6080" y="7000"/><use xlink:href="#IRnojut3D3Rv_pad-19" x="-3540" y="7000"/><use xlink:href="#IRnojut3D3Rv_pad-19" x="-1000" y="7000"/><use xlink:href="#IRnojut3D3Rv_pad-19" x="1540" y="7000"/><use xlink:href="#IRnojut3D3Rv_pad-19" x="4080" y="7000"/><use xlink:href="#IRnojut3D3Rv_pad-21" x="6000" y="3825"/><use xlink:href="#IRnojut3D3Rv_pad-21" x="6000" y="2175"/><use xlink:href="#IRnojut3D3Rv_pad-21" x="3000" y="3825"/><use xlink:href="#IRnojut3D3Rv_pad-21" x="3000" y="2175"/><use xlink:href="#IRnojut3D3Rv_pad-24" x="4175" y="-2000"/><use xlink:href="#IRnojut3D3Rv_pad-24" x="5825" y="-2000"/><use xlink:href="#IRnojut3D3Rv_pad-24" x="4825" y="-5000"/><use xlink:href="#IRnojut3D3Rv_pad-24" x="3175" y="-5000"/></g><g id="cgZfJajsydf0_top_solderpaste"><use xlink:href="#SU5inElHKD2d_pad-12" x="9250" y="-9725"/><use xlink:href="#SU5inElHKD2d_pad-12" x="8750" y="-9725"/><use xlink:href="#SU5inElHKD2d_pad-12" x="8250" y="-9725"/><use xlink:href="#SU5inElHKD2d_pad-12" x="7750" y="-9725"/><use xlink:href="#SU5inElHKD2d_pad-12" x="7250" y="-9725"/><use xlink:href="#SU5inElHKD2d_pad-12" x="6750" y="-9725"/><use xlink:href="#SU5inElHKD2d_pad-12" x="6250" y="-9725"/><use xlink:href="#SU5inElHKD2d_pad-12" x="5750" y="-9725"/><use xlink:href="#SU5inElHKD2d_pad-12" x="5250" y="-9725"/><use xlink:href="#SU5inElHKD2d_pad-12" x="4750" y="-9725"/><use xlink:href="#SU5inElHKD2d_pad-12" x="4250" y="-9725"/><use xlink:href="#SU5inElHKD2d_pad-12" x="3750" y="-9725"/><use xlink:href="#SU5inElHKD2d_pad-12" x="1250" y="-9725"/><use xlink:href="#SU5inElHKD2d_pad-12" x="750" y="-9725"/><use xlink:href="#SU5inElHKD2d_pad-12" x="250" y="-9725"/><use xlink:href="#SU5inElHKD2d_pad-12" x="-250" y="-9725"/><use xlink:href="#SU5inElHKD2d_pad-12" x="-750" y="-9725"/><use xlink:href="#SU5inElHKD2d_pad-12" x="-1250" y="-9725"/><use xlink:href="#SU5inElHKD2d_pad-12" x="-1750" y="-9725"/><use xlink:href="#SU5inElHKD2d_pad-12" x="-2250" y="-9725"/><use xlink:href="#SU5inElHKD2d_pad-12" x="-2750" y="-9725"/><use xlink:href="#SU5inElHKD2d_pad-12" x="-3250" y="-9725"/><use xlink:href="#SU5inElHKD2d_pad-12" x="-3750" y="-9725"/><use xlink:href="#SU5inElHKD2d_pad-12" x="-4250" y="-9725"/><use xlink:href="#SU5inElHKD2d_pad-12" x="-4750" y="-9725"/><use xlink:href="#SU5inElHKD2d_pad-12" x="-5250" y="-9725"/><use xlink:href="#SU5inElHKD2d_pad-12" x="-5750" y="-9725"/><use xlink:href="#SU5inElHKD2d_pad-12" x="-6250" y="-9725"/><use xlink:href="#SU5inElHKD2d_pad-12" x="-6750" y="-9725"/><use xlink:href="#SU5inElHKD2d_pad-12" x="-7250" y="-9725"/><use xlink:href="#SU5inElHKD2d_pad-12" x="-7750" y="-9725"/><use xlink:href="#SU5inElHKD2d_pad-12" x="-8250" y="-9725"/><use xlink:href="#SU5inElHKD2d_pad-12" x="-8750" y="-9725"/><use xlink:href="#SU5inElHKD2d_pad-12" x="-9250" y="-9725"/><use xlink:href="#SU5inElHKD2d_pad-13" x="4200" y="11000"/><use xlink:href="#SU5inElHKD2d_pad-15" x="-1129.038" y="-1925.064"/><use xlink:href="#SU5inElHKD2d_pad-15" x="-1129.038" y="-1275.078"/><use xlink:href="#SU5inElHKD2d_pad-15" x="-1129.038" y="-625.092"/><use xlink:href="#SU5inElHKD2d_pad-15" x="-1129.038" y="24.894"/><use xlink:href="#SU5inElHKD2d_pad-15" x="-1129.038" y="675.134"/><use xlink:href="#SU5inElHKD2d_pad-15" x="-1129.038" y="1325.12"/><use xlink:href="#SU5inElHKD2d_pad-15" x="-1129.038" y="1975.106"/><use xlink:href="#SU5inElHKD2d_pad-15" x="-1129.038" y="2625.092"/><use xlink:href="#SU5inElHKD2d_pad-15" x="-1129.038" y="3275.078"/><use xlink:href="#SU5inElHKD2d_pad-15" x="-1129.038" y="3925.064"/><use xlink:href="#SU5inElHKD2d_pad-15" x="-6870.962" y="-1925.064"/><use xlink:href="#SU5inElHKD2d_pad-15" x="-6870.962" y="-1275.078"/><use xlink:href="#SU5inElHKD2d_pad-15" x="-6870.962" y="-625.092"/><use xlink:href="#SU5inElHKD2d_pad-15" x="-6870.962" y="24.894"/><use xlink:href="#SU5inElHKD2d_pad-15" x="-6870.962" y="675.134"/><use xlink:href="#SU5inElHKD2d_pad-15" x="-6870.962" y="1325.12"/><use xlink:href="#SU5inElHKD2d_pad-15" x="-6870.962" y="1975.106"/><use xlink:href="#SU5inElHKD2d_pad-15" x="-6870.962" y="2625.092"/><use xlink:href="#SU5inElHKD2d_pad-15" x="-6870.962" y="3275.078"/><use xlink:href="#SU5inElHKD2d_pad-15" x="-6870.962" y="3925.064"/><use xlink:href="#SU5inElHKD2d_pad-19" x="-3540" y="7000"/><use xlink:href="#SU5inElHKD2d_pad-19" x="-1000" y="7000"/><use xlink:href="#SU5inElHKD2d_pad-19" x="1540" y="7000"/><use xlink:href="#SU5inElHKD2d_pad-19" x="4080" y="7000"/><use xlink:href="#SU5inElHKD2d_pad-22" x="6000" y="3825"/><use xlink:href="#SU5inElHKD2d_pad-22" x="6000" y="2175"/><use xlink:href="#SU5inElHKD2d_pad-22" x="3000" y="3825"/><use xlink:href="#SU5inElHKD2d_pad-22" x="3000" y="2175"/><use xlink:href="#SU5inElHKD2d_pad-25" x="4175" y="-2000"/><use xlink:href="#SU5inElHKD2d_pad-25" x="5825" y="-2000"/><use xlink:href="#SU5inElHKD2d_pad-25" x="4825" y="-5000"/><use xlink:href="#SU5inElHKD2d_pad-25" x="3175" y="-5000"/></g><g id="cgZfJajsydf0_top_drill1"><use xlink:href="#T1lf2Yicwp-w_pad-10" x="4200" y="11000"/><use xlink:href="#T1lf2Yicwp-w_pad-11" x="-6080" y="7000"/><use xlink:href="#T1lf2Yicwp-w_pad-11" x="-3540" y="7000"/><use xlink:href="#T1lf2Yicwp-w_pad-11" x="-1000" y="7000"/><use xlink:href="#T1lf2Yicwp-w_pad-11" x="1540" y="7000"/><use xlink:href="#T1lf2Yicwp-w_pad-11" x="4080" y="7000"/><use xlink:href="#T1lf2Yicwp-w_pad-12" x="-9841.8" y="998.2"/><use xlink:href="#T1lf2Yicwp-w_pad-12" x="-9662.7" y="25.1"/><use xlink:href="#T1lf2Yicwp-w_pad-12" x="-9281.6" y="-1010.4"/><use xlink:href="#T1lf2Yicwp-w_pad-12" x="-8569.1" y="-1412"/><use xlink:href="#T1lf2Yicwp-w_pad-12" x="-5570.8" y="-708.4"/><use xlink:href="#T1lf2Yicwp-w_pad-12" x="3639.8" y="-7556"/><use xlink:href="#T1lf2Yicwp-w_pad-12" x="-2932.3" y="1823.9"/><use xlink:href="#T1lf2Yicwp-w_pad-12" x="400" y="300"/><use xlink:href="#T1lf2Yicwp-w_pad-12" x="2600" y="500"/><use xlink:href="#T1lf2Yicwp-w_pad-12" x="-8797" y="10202"/><use xlink:href="#T1lf2Yicwp-w_pad-12" x="400" y="-1100"/><use xlink:href="#T1lf2Yicwp-w_pad-12" x="400" y="2300"/><use xlink:href="#T1lf2Yicwp-w_pad-12" x="-4200" y="3950"/><use xlink:href="#T1lf2Yicwp-w_pad-12" x="3770.2" y="-3203"/><use xlink:href="#T1lf2Yicwp-w_pad-12" x="3800" y="929.4"/><use xlink:href="#T1lf2Yicwp-w_pad-12" x="2094.5" y="4337.3"/><use xlink:href="#T1lf2Yicwp-w_pad-12" x="7300" y="3600"/><use xlink:href="#T1lf2Yicwp-w_pad-12" x="4608" y="-689.5"/><use xlink:href="#T1lf2Yicwp-w_pad-12" x="2094.5" y="2661.7"/><use xlink:href="#T1lf2Yicwp-w_pad-12" x="-2932.3" y="2661.7"/><use xlink:href="#T1lf2Yicwp-w_pad-12" x="-8544.4" y="739.6"/><use xlink:href="#T1lf2Yicwp-w_pad-12" x="-9215.9" y="-6135.3"/><use xlink:href="#T1lf2Yicwp-w_pad-12" x="-6283.6" y="-7392"/><use xlink:href="#T1lf2Yicwp-w_pad-12" x="-5445.8" y="-7392"/><use xlink:href="#T1lf2Yicwp-w_pad-12" x="-2094.5" y="-7392"/><use xlink:href="#T1lf2Yicwp-w_pad-12" x="-3633.4" y="103.1"/><use xlink:href="#T1lf2Yicwp-w_pad-12" x="-4552.8" y="1901.6"/><use xlink:href="#T1lf2Yicwp-w_pad-12" x="-5445.8" y="2661.7"/><use xlink:href="#T1lf2Yicwp-w_pad-12" x="-2900" y="-6000"/><use xlink:href="#T1lf2Yicwp-w_pad-12" x="-5426.9" y="3624.5"/><use xlink:href="#T1lf2Yicwp-w_pad-12" x="-4420.3" y="-7290.8"/><use xlink:href="#T1lf2Yicwp-w_pad-12" x="-1275.6" y="-5700"/><use xlink:href="#T1lf2Yicwp-w_pad-12" x="700" y="-2700"/><use xlink:href="#T1lf2Yicwp-w_pad-12" x="1000" y="4100"/><use xlink:href="#T1lf2Yicwp-w_pad-12" x="400" y="-5800"/></g><clipPath id="cgZfJajsydf0_top_outline"><path d="M -9000 11000 10000 11000 10195.09 10980.785 10382.683 10923.88 10555.57 10831.47 10707.107 10707.107 10831.47 10555.57 10923.88 10382.683 10980.785 10195.09 11000 10000 11000 -6500 10990.393 -6597.545 10961.94 -6691.342 10915.735 -6777.785 10853.553 -6853.553 10777.785 -6915.735 10691.342 -6961.94 10597.545 -6990.393 10500 -7000 10402.455 -7009.607 10308.658 -7038.06 10222.215 -7084.265 10146.447 -7146.447 10084.265 -7222.215 10038.06 -7308.658 10009.607 -7402.455 10000 -7500 10000 -11000 3280 -11000 3280 -8000 3268.471 -7882.946 3234.328 -7770.39 3178.882 -7666.658 3104.264 -7575.736 3013.342 -7501.118 2909.61 -7445.672 2797.054 -7411.529 2680 -7400 2562.946 -7411.529 2450.39 -7445.672 2346.658 -7501.118 2255.736 -7575.736 2181.118 -7666.658 2125.672 -7770.39 2091.529 -7882.946 2080 -8000 2080 -11000 -10000 -11000 -10000 -7500 -10009.607 -7402.455 -10038.06 -7308.658 -10084.265 -7222.215 -10146.447 -7146.447 -10222.215 -7084.265 -10308.658 -7038.06 -10402.455 -7009.607 -10500 -7000 -10597.545 -6990.393 -10691.342 -6961.94 -10777.785 -6915.735 -10853.553 -6853.553 -10915.735 -6777.785 -10961.94 -6691.342 -10990.393 -6597.545 -11000 -6500 -11000 10000 -10980.785 10195.09 -10923.88 10382.683 -10831.47 10555.57 -10707.107 10707.107 -10555.57 10831.47 -10382.683 10923.88 -10195.09 10980.785 -10000 11000 -9000 11000" fill="none" stroke-width="50"/></clipPath><mask id="cgZfJajsydf0_top_mech-mask"><g fill="#000" stroke="#000"><rect x="-11000" y="-11000" width="22000" height="22000" fill="#fff"/><use xlink:href="#cgZfJajsydf0_top_drill1"/></g></mask><mask id="cgZfJajsydf0_top_cf-mask"><g fill="#fff" stroke="#fff"><use xlink:href="#cgZfJajsydf0_top_soldermask"/></g></mask><mask id="cgZfJajsydf0_top_sm-mask"><g fill="#000" stroke="#000"><rect x="-11000" y="-11000" width="22000" height="22000" fill="#fff"/><use xlink:href="#cgZfJajsydf0_top_soldermask"/></g></mask></defs><g transform="translate(0,0) scale(1,-1)"><g mask="url(#cgZfJajsydf0_top_mech-mask)" clip-path="url(#cgZfJajsydf0_top_outline)"><rect x="-11000" y="-11000" width="22000" height="22000" fill="currentColor" class="cgZfJajsydf0_fr4"/><use xlink:href="#cgZfJajsydf0_top_copper" fill="currentColor" stroke="currentColor" class="cgZfJajsydf0_cu"/><use xlink:href="#cgZfJajsydf0_top_copper" fill="currentColor" stroke="currentColor" class="cgZfJajsydf0_cf" mask="url(#cgZfJajsydf0_top_cf-mask)"/><g mask="url(#cgZfJajsydf0_top_sm-mask)"><rect x="-11000" y="-11000" width="22000" height="22000" fill="currentColor" class="cgZfJajsydf0_sm"/><use xlink:href="#cgZfJajsydf0_top_silkscreen" fill="currentColor" stroke="currentColor" class="cgZfJajsydf0_ss"/></g><use xlink:href="#cgZfJajsydf0_top_solderpaste" fill="currentColor" stroke="currentColor" class="cgZfJajsydf0_sp"/></g></g></svg>