<svg version="1.1" xmlns="http://www.w3.org/2000/svg" xmlns:xlink="http://www.w3.org/1999/xlink" stroke-linecap="round" stroke-linejoin="round" stroke-width="0" fill-rule="evenodd" clip-rule="evenodd" id="_ePVR1LENNY6_bottom" viewBox="-20000 -10000 40000 20000" width="40mm" height="20mm"><defs><style>._ePVR1LENNY6_fr4 {color: #666666;}
._ePVR1LENNY6_cu {color: #cccccc;}
._ePVR1LENNY6_cf {color: #cc9933;}
._ePVR1LENNY6_sm {color: #004200; opacity: 0.7490196078431373;}
._ePVR1LENNY6_ss {color: #ffffff;}
._ePVR1LENNY6_sp {color: #999999;}
._ePVR1LENNY6_out {color: #000000;}</style><mask id="JfId6Vz8WTDk_clear-1" fill="#000" stroke="#000"><g><rect x="5613.376" y="-2047.838" width="6773.248" height="4095.676" fill="#fff"/><path d="M 11677.109 189.086 11795.586 279.282 11871.685 450.203 11805.764 912.337 11602.797 1202.309 11463.942 1255.4 11263.908 1236.363 11112.592 1116.745 11049.766 975.911 11105.934 553.161 11238.797 321.717 11367.282 206.775 11538.588 158.976 11677.109 189.086 M 9518.15 578.513 9723.347 9.79 9768.636 -148.754 9782.261 -273.443 9760.186 -380.09 9710.8 -463.267 9620.85 -543.098 9493.977 -607.084 9395.183 -625.213 9303.761 -611.525 9240.399 -579.564 9209.163 -554.765 9149.524 -484.256 9096.258 -381.486 8830.089 326.34 M 7487.02 -160.758 6650.838 -465.103 M 7056.513 -317.45 7427.522 -1336.789" fill="none" stroke-width="200"/></g></mask><g id="_ePVR1LENNY6_bottom_copper"><g mask="url(#JfId6Vz8WTDk_clear-1)"><path d="M 12386.624 168.453 6297.416 -2047.838 5613.376 -168.453 11702.584 2047.838 12386.624 168.453"/></g></g><clipPath id="_ePVR1LENNY6_bottom_outline"><path d="M -20000 -10000 20000 -10000 20000 10000 -20000 10000 -20000 -10000" fill="none" stroke-width="50"/></clipPath><mask id="_ePVR1LENNY6_bottom_mech-mask"><g fill="#000" stroke="#000"><rect x="-20000" y="-10000" width="40000" height="20000" fill="#fff"/></g></mask><mask id="_ePVR1LENNY6_bottom_cf-mask"><g fill="#fff" stroke="#fff"><rect x="-20000" y="-10000" width="40000" height="20000"/></g></mask></defs><g transform="translate(0,0) scale(1,-1)"><g mask="url(#_ePVR1LENNY6_bottom_mech-mask)" clip-path="url(#_ePVR1LENNY6_bottom_outline)" transform="translate(0,0) scale(-1,1)"><rect x="-20000" y="-10000" width="40000" height="20000" fill="currentColor" class="_ePVR1LENNY6_fr4"/><use xlink:href="#_ePVR1LENNY6_bottom_copper" fill="currentColor" stroke="currentColor" class="_ePVR1LENNY6_cu"/><use xlink:href="#_ePVR1LENNY6_bottom_copper" fill="currentColor" stroke="currentColor" class="_ePVR1LENNY6_cf" mask="url(#_ePVR1LENNY6_bottom_cf-mask)"/></g></g></svg>