<svg version="1.1" xmlns="http://www.w3.org/2000/svg" xmlns:xlink="http://www.w3.org/1999/xlink" stroke-linecap="round" stroke-linejoin="round" stroke-width="0" fill-rule="evenodd" clip-rule="evenodd" id="QmrF8ttzIAqa_bottom" viewBox="-20000 -10000 40000 20000" width="40mm" height="20mm"><defs><style>.QmrF8ttzIAqa_fr4 {color: #666666;}
.QmrF8ttzIAqa_cu {color: #cccccc;}
.QmrF8ttzIAqa_cf {color: #cc9933;}
.QmrF8ttzIAqa_sm {color: #004200; opacity: 0.7490196078431373;}
.QmrF8ttzIAqa_ss {color: #ffffff;}
.QmrF8ttzIAqa_sp {color: #999999;}
.QmrF8ttzIAqa_out {color: #000000;}</style><mask id="ZTwpJXahyUwy_clear-1" fill="#000" stroke="#000"><g><rect x="6991.367" y="-1350.64" width="4017.266" height="2701.28" fill="#fff"/><path d="M 10435.069 -27.389 10518.003 35.749 10571.273 155.393 10525.128 478.886 10383.051 681.867 10285.852 719.031 10145.828 705.705 10039.907 621.972 9995.929 523.389 10035.247 227.464 10128.251 65.453 10218.19 -15.007 10338.104 -48.466 10435.069 -27.389 M 9356.73 402.784 9500.368 4.678 9532.07 -106.302 9541.607 -193.584 9526.155 -268.238 9491.585 -326.462 9428.62 -382.343 9339.809 -427.133 9270.653 -439.824 9206.658 -430.242 9162.304 -407.87 9140.439 -390.51 9098.692 -341.154 9061.406 -269.215 8875.087 226.264 M 8367.871 42.869 7782.544 -170.173 M 8066.516 -66.815 8326.223 -780.353" fill="none" stroke-width="144"/></g></mask><g id="QmrF8ttzIAqa_bottom_copper"><g mask="url(#ZTwpJXahyUwy_clear-1)"><path d="M 11008.633 -77.693 7511.238 -1350.64 6991.367 77.693 10488.762 1350.64 11008.633 -77.693"/></g></g><clipPath id="QmrF8ttzIAqa_bottom_outline"><path d="M -20000 -10000 20000 -10000 20000 10000 -20000 10000 -20000 -10000" fill="none" stroke-width="50"/></clipPath><mask id="QmrF8ttzIAqa_bottom_mech-mask"><g fill="#000" stroke="#000"><rect x="-20000" y="-10000" width="40000" height="20000" fill="#fff"/></g></mask><mask id="QmrF8ttzIAqa_bottom_cf-mask"><g fill="#fff" stroke="#fff"><rect x="-20000" y="-10000" width="40000" height="20000"/></g></mask></defs><g transform="translate(0,0) scale(1,-1)"><g mask="url(#QmrF8ttzIAqa_bottom_mech-mask)" clip-path="url(#QmrF8ttzIAqa_bottom_outline)" transform="translate(0,0) scale(-1,1)"><rect x="-20000" y="-10000" width="40000" height="20000" fill="currentColor" class="QmrF8ttzIAqa_fr4"/><use xlink:href="#QmrF8ttzIAqa_bottom_copper" fill="currentColor" stroke="currentColor" class="QmrF8ttzIAqa_cu"/><use xlink:href="#QmrF8ttzIAqa_bottom_copper" fill="currentColor" stroke="currentColor" class="QmrF8ttzIAqa_cf" mask="url(#QmrF8ttzIAqa_bottom_cf-mask)"/></g></g></svg>