<svg version="1.1" xmlns="http://www.w3.org/2000/svg" xmlns:xlink="http://www.w3.org/1999/xlink" stroke-linecap="round" stroke-linejoin="round" stroke-width="0" fill-rule="evenodd" width="32.15mm" height="11.230611000000001mm" viewBox="-16075 -6533 32150 11230.611" color="#cccccc"><defs><circle cx="0" cy="0" r="150" id="four-layer-In1_Cu_pad-15"/></defs><g transform="translate(0,-1835.3889999999992) scale(1,-1)" fill="currentColor" stroke="currentColor"><path d="M -16000 3810 -2440.606 3810" fill="none" stroke-width="150"/><path d="M -2440.606 3810 -2306.06 3675.455" fill="none" stroke-width="150"/><path d="M -2306.06 3675.455 -2405.393 3740" fill="none" stroke-width="150"/><path d="M -2405.393 3740 -2405.393 3740" fill="none" stroke-width="150"/><path d="M -1901.632 3779.89 -1101.442 4622.611" fill="none" stroke-width="150"/><path d="M -1101.442 4622.611 3374.946 4622.611" fill="none" stroke-width="150"/><path d="M 3374.946 4622.611 3494.683 4503.16" fill="none" stroke-width="150"/><path d="M 3494.683 4503.16 3494.473 2981.85" fill="none" stroke-width="150"/><path d="M 3494.473 2981.85 3494.398 2829.398" fill="none" stroke-width="150"/><path d="M 3494.398 2829.398 3251.037 2586.037" fill="none" stroke-width="150"/><path d="M 3251.037 2586.037 3191.494 2526" fill="none" stroke-width="150"/><path d="M 3191.494 2526 3191.494 2526" fill="none" stroke-width="150"/><path d="M 2981.163 3122.644 2851.445 3020.867" fill="none" stroke-width="150"/><path d="M 2851.445 3020.867 2851.796 -384.485" fill="none" stroke-width="150"/><path d="M 2851.796 -384.485 2851.867 -446.867" fill="none" stroke-width="150"/><path d="M 2851.867 -446.867 2983.322 -578.322" fill="none" stroke-width="150"/><path d="M 2983.322 -578.322 3012 -607" fill="none" stroke-width="150"/><path d="M 3012 -607 3012 -607" fill="none" stroke-width="150"/><path d="M 5527 -620 5527 -1390" fill="none" stroke-width="150"/><path d="M 5527 -1390 4836.823 -2080.177" fill="none" stroke-width="150"/><path d="M 4836.823 -2080.177 4776 -2141" fill="none" stroke-width="150"/><path d="M 4776 -2141 4776 -2141" fill="none" stroke-width="150"/><path d="M 16000 3810 4771 3810" fill="none" stroke-width="150"/><path d="M 4771 3810 4579.694 4001.306" fill="none" stroke-width="150"/><path d="M 4579.694 4001.306 4579 4002" fill="none" stroke-width="150"/><path d="M 4579 4002 4579 4002" fill="none" stroke-width="150"/><path d="M 3154.639 4184 2622.939 4181.296" fill="none" stroke-width="150"/><path d="M 2622.939 4181.296 1234.001 2794.241" fill="none" stroke-width="150"/><path d="M 1234.001 2794.241 725.786 2796.096" fill="none" stroke-width="150"/><path d="M 725.786 2796.096 -3688.789 -1615.966" fill="none" stroke-width="150"/><path d="M -3688.789 -1615.966 -3687.44 -1896.851" fill="none" stroke-width="150"/><path d="M -3687.44 -1896.851 -3841.878 -2051.289" fill="none" stroke-width="150"/><path d="M -3841.878 -2051.289 -3841.878 -2076.878" fill="none" stroke-width="150"/><path d="M -3841.878 -2076.878 -3946 -2181" fill="none" stroke-width="150"/><path d="M -3946 -2181 -3946 -2181" fill="none" stroke-width="150"/><path d="M 16000 -3810 2765.956 -3810" fill="none" stroke-width="150"/><path d="M 2765.956 -3810 2578.956 -3997" fill="none" stroke-width="150"/><path d="M 2578.956 -3997 2500.801 -3997" fill="none" stroke-width="150"/><path d="M 2500.801 -3997 2458 -3880" fill="none" stroke-width="150"/><path d="M 2458 -3880 2458 -3880" fill="none" stroke-width="150"/><path d="M 1943 -3880 -1904.069 -3901.804" fill="none" stroke-width="150"/><path d="M -1904.069 -3901.804 -3212.104 -2593.769" fill="none" stroke-width="150"/><path d="M -3212.104 -2593.769 -3212.104 -1737.218" fill="none" stroke-width="150"/><path d="M -3212.104 -1737.218 -3119.809 -1644.924" fill="none" stroke-width="150"/><path d="M -3119.809 -1644.924 -3119.809 -1622.191" fill="none" stroke-width="150"/><path d="M -3119.809 -1622.191 -3161.571 -1569.741" fill="none" stroke-width="150"/><path d="M -3161.571 -1569.741 -3161.571 -1569.741" fill="none" stroke-width="150"/><path d="M -4803 -6383 -4803 -1409" fill="none" stroke-width="150"/><path d="M -4803 -1409 -5348.301 -863.699" fill="none" stroke-width="150"/><path d="M -5348.301 -863.699 -5384 -828" fill="none" stroke-width="150"/><path d="M -5384 -828 -5384 -828" fill="none" stroke-width="150"/><use xlink:href="#four-layer-In1_Cu_pad-15" x="-2405.393" y="3740"/><use xlink:href="#four-layer-In1_Cu_pad-15" x="-1901.632" y="3779.89"/><use xlink:href="#four-layer-In1_Cu_pad-15" x="3191.494" y="2526"/><use xlink:href="#four-layer-In1_Cu_pad-15" x="2981.163" y="3122.644"/><use xlink:href="#four-layer-In1_Cu_pad-15" x="3012" y="-607"/><use xlink:href="#four-layer-In1_Cu_pad-15" x="5527" y="-620"/><use xlink:href="#four-layer-In1_Cu_pad-15" x="4776" y="-2141"/><use xlink:href="#four-layer-In1_Cu_pad-15" x="4579" y="4002"/><use xlink:href="#four-layer-In1_Cu_pad-15" x="3154.639" y="4184"/><use xlink:href="#four-layer-In1_Cu_pad-15" x="-3946" y="-2181"/><use xlink:href="#four-layer-In1_Cu_pad-15" x="2458" y="-3880"/><use xlink:href="#four-layer-In1_Cu_pad-15" x="1943" y="-3880"/><use xlink:href="#four-layer-In1_Cu_pad-15" x="-3161.571" y="-1569.741"/><use xlink:href="#four-layer-In1_Cu_pad-15" x="-4803" y="-6383"/><use xlink:href="#four-layer-In1_Cu_pad-15" x="-5384" y="-828"/></g></svg>