<svg version="1.1" xmlns="http://www.w3.org/2000/svg" xmlns:xlink="http://www.w3.org/1999/xlink" viewBox="0 0 1604 648" width="1604" height="648"><defs><style><![CDATA[.snapshot-label { font: 600 24px ui-monospace, SFMono-Regular, Menlo, monospace; fill: #e5e7eb; }.snapshot-subtitle { font: 500 16px ui-monospace, SFMono-Regular, Menlo, monospace; fill: #94a3b8; }.snapshot-message { font: 500 21px ui-monospace, SFMono-Regular, Menlo, monospace; fill: #f8fafc; }]]></style></defs><rect x="0" y="0" width="1604" height="648" fill="#0b1020"/><rect x="28" y="28" width="760" height="592" rx="18" fill="#111827" stroke="#334155" stroke-width="2"/><rect x="816" y="28" width="760" height="592" rx="18" fill="#111827" stroke="#334155" stroke-width="2"/><text x="48" y="54" class="snapshot-label">Circuit JSON PCB view</text><text x="836" y="54" class="snapshot-label">Current failure</text><text x="48" y="76" class="snapshot-subtitle">Input</text><text x="836" y="76" class="snapshot-subtitle">Output</text><svg x="48" y="80" width="720" height="520" preserveAspectRatio="xMidYMid meet" viewBox="0 0 800 640" xmlns="http://www.w3.org/2000/svg"><style></style><rect class="boundary" x="0" y="0" fill="#111111" width="800" height="640" data-type="pcb_background" data-pcb-layer="global"/><rect class="pcb-boundary" fill="none" stroke="#fff" stroke-width="0.3" x="80" y="64" width="640" height="512" data-type="pcb_boundary" data-pcb-layer="global"/><path class="pcb-board" d="M 80 576 L 720 576 L 720 64 L 80 64 Z" fill="none" stroke="rgba(255, 255, 255, 0.5)" stroke-width="6.4" data-type="pcb_board" data-pcb-layer="board"/><rect class="pcb-pad" fill="rgb(200, 52, 52)" x="195.2" y="284.8" width="153.6" height="70.4" rx="35.2" ry="35.2" data-type="pcb_smtpad" data-pcb-layer="top"/><rect class="pcb-pad" fill="rgb(200, 52, 52)" x="-76.8" y="-35.2" width="153.6" height="70.4" rx="35.2" ry="35.2" data-type="pcb_smtpad" data-pcb-layer="top" transform="translate(528 320) rotate(-90)"/></svg><rect x="836" y="80" width="720" height="520" rx="14" fill="#0f172a" stroke="#1e293b" stroke-width="2"/><text x="860" y="136" class="snapshot-message" fill="#fca5a5">Gerber generation currently throws:</text><text x="860" y="166" class="snapshot-message" fill="#fca5a5">Unsupported shape pill</text></svg>