<svg version="1.1" xmlns="http://www.w3.org/2000/svg" xmlns:xlink="http://www.w3.org/1999/xlink" stroke-linecap="round" stroke-linejoin="round" stroke-width="0" fill-rule="evenodd" clip-rule="evenodd" id="XW3h4NwLcW3y_top" viewBox="-10000 -5000 20000 10000" width="20mm" height="10mm"><defs><style>.XW3h4NwLcW3y_fr4 {color: #666666;}
.XW3h4NwLcW3y_cu {color: #cccccc;}
.XW3h4NwLcW3y_cf {color: #cc9933;}
.XW3h4NwLcW3y_sm {color: #004200; opacity: 0.7490196078431373;}
.XW3h4NwLcW3y_ss {color: #ffffff;}
.XW3h4NwLcW3y_sp {color: #999999;}
.XW3h4NwLcW3y_out {color: #000000;}</style><g id="XW3h4NwLcW3y_top_silkscreen"><path d="M -8000 0 8000 0" fill="none" stroke-width="800"/><path d="M -9388.048 400.757 -9388.048 -785.697 M -8571.049 321.661 -9388.048 -328.69 M -9078.153 -144.132 -8458.359 -759.33 M -6881.226 -785.697 -6881.226 400.757 -6065.183 -785.697 -6081.196 400.757 M -4047.237 -807.125 -4202.747 -758.742 -4344.9 -611.539 -4450.024 -111.904 -4349.891 262.054 -4227.037 368.564 -4014.323 423.827 -3814.055 357.49 -3696.8 236.245 -3596.385 -219.264 -3646.359 -506.842 -3735.417 -673.043 -3893.603 -786.252 -4047.237 -807.125 M -1174.155 140.268 -1227.756 270.907 -1326.083 363.403 -1512.297 423.827 -1649.902 405.375 -1771.164 343.441 -1889.575 200.494 -1972.253 -174.727 -1907.372 -551.924 -1810.583 -703.82 -1709.955 -774.902 -1513.918 -807.125 -1343.072 -765.938 -1216.572 -645.748 -1174.155 -476.114 M 411.952 400.757 411.952 -785.697 M 1228.952 321.661 411.952 -328.69 M 721.847 -144.132 1341.641 -759.33 M 3302.763 -807.125 3147.253 -758.742 3005.1 -611.539 2899.976 -111.904 3000.109 262.054 3122.963 368.564 3335.677 423.827 3535.945 357.49 3653.2 236.245 3753.615 -219.264 3703.641 -506.842 3614.583 -673.043 3456.397 -786.252 3302.763 -807.125 M 5376.039 400.757 5377.89 -260.531 5390.651 -440.422 5423.292 -573.673 5485.876 -675.026 5567.749 -742.04 5690.062 -790.44 5844.396 -808.743 5952.718 -790.419 6041.56 -742.15 6094.727 -685.599 6117.554 -648.426 6152.473 -553.648 6168.775 -428.096 6177.554 398.97 M 7740.161 400.757 8713.43 400.757 M 8241.247 400.757 8241.247 -785.697" fill="none" stroke-width="312.5"/></g><clipPath id="XW3h4NwLcW3y_top_outline"><path d="M -10000 -5000 10000 -5000 10000 5000 -10000 5000 -10000 -5000" fill="none" stroke-width="50"/></clipPath><mask id="XW3h4NwLcW3y_top_mech-mask"><g fill="#000" stroke="#000"><rect x="-10000" y="-5000" width="20000" height="10000" fill="#fff"/></g></mask></defs><g transform="translate(0,0) scale(1,-1)"><g mask="url(#XW3h4NwLcW3y_top_mech-mask)" clip-path="url(#XW3h4NwLcW3y_top_outline)"><rect x="-10000" y="-5000" width="20000" height="10000" fill="currentColor" class="XW3h4NwLcW3y_fr4"/></g></g></svg>