<svg version="1.1" xmlns="http://www.w3.org/2000/svg" xmlns:xlink="http://www.w3.org/1999/xlink" stroke-linecap="round" stroke-linejoin="round" stroke-width="0" fill-rule="evenodd" clip-rule="evenodd" id="Frzhy_ph7o_W_top" viewBox="-20000 -15000 40000 30000" width="40mm" height="30mm"><defs><style>.Frzhy_ph7o_W_fr4 {color: #666666;}
.Frzhy_ph7o_W_cu {color: #cccccc;}
.Frzhy_ph7o_W_cf {color: #cc9933;}
.Frzhy_ph7o_W_sm {color: #004200; opacity: 0.7490196078431373;}
.Frzhy_ph7o_W_ss {color: #ffffff;}
.Frzhy_ph7o_W_sp {color: #999999;}
.Frzhy_ph7o_W_out {color: #000000;}</style><rect x="-2000" y="-1000" width="4000" height="2000" id="NTfNQItEIrl__pad-10"/><rect x="-1500" y="-1000" width="3000" height="2000" id="NTfNQItEIrl__pad-11"/><circle cx="0" cy="0" r="750" id="NTfNQItEIrl__pad-17"/><circle cx="0" cy="0" r="1000" id="NTfNQItEIrl__pad-18"/><rect x="-2000" y="-1250" width="4000" height="2500" id="NTfNQItEIrl__pad-16"/><rect x="-2000" y="-1000" width="4000" height="2000" id="HJ3co3gayCIm_pad-10"/><rect x="-1500" y="-1000" width="3000" height="2000" id="HJ3co3gayCIm_pad-11"/><circle cx="0" cy="0" r="750" id="HJ3co3gayCIm_pad-17"/><circle cx="0" cy="0" r="1000" id="HJ3co3gayCIm_pad-18"/><rect x="-2000" y="-1250" width="4000" height="2500" id="HJ3co3gayCIm_pad-16"/><g id="QHtgK4t6-S60_pad-12"><rect x="-1750" y="-750" width="3500" height="1500"/><circle cx="-1750" cy="0" r="750"/><circle cx="1750" cy="0" r="750"/></g><g id="QHtgK4t6-S60_pad-14"><rect x="-1000" y="-3000" width="2000" height="6000"/><circle cx="0" cy="-3000" r="1000"/><circle cx="0" cy="3000" r="1000"/></g><circle cx="0" cy="0" r="500" id="YsYk2Qkkgdj6_pad-10"/><circle cx="0" cy="0" r="750" id="YsYk2Qkkgdj6_pad-11"/><g id="Frzhy_ph7o_W_top_copper"><use xlink:href="#NTfNQItEIrl__pad-10" x="5000" y="-3000"/><use xlink:href="#NTfNQItEIrl__pad-11" x="15000" y="-3000"/><use xlink:href="#NTfNQItEIrl__pad-17" x="3762.563" y="762.563"/><use xlink:href="#NTfNQItEIrl__pad-17" x="6237.437" y="3237.437"/><path d="M 3762.563 762.563 6237.437 3237.437" fill="none" stroke-width="1500"/><use xlink:href="#NTfNQItEIrl__pad-17" x="-11750" y="-2000"/><use xlink:href="#NTfNQItEIrl__pad-17" x="-8250" y="-2000"/><path d="M -11750 -2000 -8250 -2000" fill="none" stroke-width="1500"/><use xlink:href="#NTfNQItEIrl__pad-18" x="-4000" y="-1000"/><use xlink:href="#NTfNQItEIrl__pad-18" x="-4000" y="5000"/><path d="M -4000 -1000 -4000 5000" fill="none" stroke-width="2000"/><use xlink:href="#NTfNQItEIrl__pad-16" x="-1000" y="-6000"/></g><g id="Frzhy_ph7o_W_top_soldermask"><use xlink:href="#HJ3co3gayCIm_pad-10" x="5000" y="-3000"/><use xlink:href="#HJ3co3gayCIm_pad-11" x="15000" y="-3000"/><use xlink:href="#HJ3co3gayCIm_pad-17" x="3762.563" y="762.563"/><use xlink:href="#HJ3co3gayCIm_pad-17" x="6237.437" y="3237.437"/><path d="M 3762.563 762.563 6237.437 3237.437" fill="none" stroke-width="1500"/><use xlink:href="#HJ3co3gayCIm_pad-17" x="-11750" y="-2000"/><use xlink:href="#HJ3co3gayCIm_pad-17" x="-8250" y="-2000"/><path d="M -11750 -2000 -8250 -2000" fill="none" stroke-width="1500"/><use xlink:href="#HJ3co3gayCIm_pad-18" x="-4000" y="-1000"/><use xlink:href="#HJ3co3gayCIm_pad-18" x="-4000" y="5000"/><path d="M -4000 -1000 -4000 5000" fill="none" stroke-width="2000"/><use xlink:href="#HJ3co3gayCIm_pad-16" x="-1000" y="-6000"/></g><g id="Frzhy_ph7o_W_top_solderpaste"><use xlink:href="#QHtgK4t6-S60_pad-12" x="5000" y="2000" transform="rotate(45 5000 2000)" /><use xlink:href="#QHtgK4t6-S60_pad-12" x="-10000" y="-2000"/><use xlink:href="#QHtgK4t6-S60_pad-14" x="-4000" y="2000"/></g><g id="Frzhy_ph7o_W_top_drill1"><use xlink:href="#YsYk2Qkkgdj6_pad-10" x="3800" y="-3000"/><use xlink:href="#YsYk2Qkkgdj6_pad-10" x="4800" y="-3000"/><use xlink:href="#YsYk2Qkkgdj6_pad-10" x="3939.3" y="939.3"/><use xlink:href="#YsYk2Qkkgdj6_pad-10" x="6061" y="3061"/><use xlink:href="#YsYk2Qkkgdj6_pad-10" x="-4000" y="500"/><use xlink:href="#YsYk2Qkkgdj6_pad-10" x="-4000" y="3500"/><use xlink:href="#YsYk2Qkkgdj6_pad-10" x="-1433" y="-6250"/><use xlink:href="#YsYk2Qkkgdj6_pad-10" x="-567" y="-5750"/><use xlink:href="#YsYk2Qkkgdj6_pad-11" x="15500" y="-3500"/><use xlink:href="#YsYk2Qkkgdj6_pad-11" x="-11750" y="-2000"/><use xlink:href="#YsYk2Qkkgdj6_pad-11" x="-8250" y="-2000"/><use xlink:href="#Frzhy_ph7o_W_top_slot-0"/><use xlink:href="#Frzhy_ph7o_W_top_slot-1"/><use xlink:href="#Frzhy_ph7o_W_top_slot-2"/><use xlink:href="#Frzhy_ph7o_W_top_slot-3"/><use xlink:href="#Frzhy_ph7o_W_top_slot-4"/></g><clipPath id="Frzhy_ph7o_W_top_outline"><path d="M -20000 -15000 20000 -15000 20000 15000 -20000 15000 -20000 -15000" fill="none" stroke-width="50"/></clipPath><mask id="Frzhy_ph7o_W_top_mech-mask"><g fill="#000" stroke="#000"><rect x="-20000" y="-15000" width="40000" height="30000" fill="#fff"/><use xlink:href="#Frzhy_ph7o_W_top_drill1"/></g></mask><mask id="Frzhy_ph7o_W_top_cf-mask"><g fill="#fff" stroke="#fff"><use xlink:href="#Frzhy_ph7o_W_top_soldermask"/></g></mask><mask id="Frzhy_ph7o_W_top_sm-mask"><g fill="#000" stroke="#000"><rect x="-20000" y="-15000" width="40000" height="30000" fill="#fff"/><use xlink:href="#Frzhy_ph7o_W_top_soldermask"/></g></mask><path id="Frzhy_ph7o_W_top_slot-0" d="M 3800.000 -2500.000 L 4800.000 -2500.000 A 500.000 500.000 0 0 0 4800.000 -3500.000 L 3800.000 -3500.000 A 500.000 500.000 0 0 0 3800.000 -2500.000 Z" fill="#000"/><path id="Frzhy_ph7o_W_top_slot-1" d="M 3585.747 1292.853 L 5707.447 3414.553 A 500.000 500.000 0 0 0 6414.553 2707.447 L 4292.853 585.747 A 500.000 500.000 0 0 0 3585.747 1292.853 Z" fill="#000"/><path id="Frzhy_ph7o_W_top_slot-2" d="M -4500.000 500.000 L -4500.000 3500.000 A 500.000 500.000 0 0 0 -3500.000 3500.000 L -3500.000 500.000 A 500.000 500.000 0 0 0 -4500.000 500.000 Z" fill="#000"/><path id="Frzhy_ph7o_W_top_slot-3" d="M -1683.006 -5816.990 L -817.006 -5316.990 A 500.000 500.000 0 0 0 -316.994 -6183.010 L -1182.994 -6683.010 A 500.000 500.000 0 0 0 -1683.006 -5816.990 Z" fill="#000"/><path id="Frzhy_ph7o_W_top_slot-4" d="M -11750.000 -1250.000 L -8250.000 -1250.000 A 750.000 750.000 0 0 0 -8250.000 -2750.000 L -11750.000 -2750.000 A 750.000 750.000 0 0 0 -11750.000 -1250.000 Z" fill="#000"/></defs><g transform="translate(0,0) scale(1,-1)"><g mask="url(#Frzhy_ph7o_W_top_mech-mask)" clip-path="url(#Frzhy_ph7o_W_top_outline)"><rect x="-20000" y="-15000" width="40000" height="30000" fill="currentColor" class="Frzhy_ph7o_W_fr4"/><use xlink:href="#Frzhy_ph7o_W_top_copper" fill="currentColor" stroke="currentColor" class="Frzhy_ph7o_W_cu"/><use xlink:href="#Frzhy_ph7o_W_top_copper" fill="currentColor" stroke="currentColor" class="Frzhy_ph7o_W_cf" mask="url(#Frzhy_ph7o_W_top_cf-mask)"/><g mask="url(#Frzhy_ph7o_W_top_sm-mask)"><rect x="-20000" y="-15000" width="40000" height="30000" fill="currentColor" class="Frzhy_ph7o_W_sm"/></g><use xlink:href="#Frzhy_ph7o_W_top_solderpaste" fill="currentColor" stroke="currentColor" class="Frzhy_ph7o_W_sp"/></g></g></svg>