<svg version="1.1" xmlns="http://www.w3.org/2000/svg" xmlns:xlink="http://www.w3.org/1999/xlink" stroke-linecap="round" stroke-linejoin="round" stroke-width="0" fill-rule="evenodd" clip-rule="evenodd" id="Feq9uszoTDTb_top" viewBox="-10000 -10000 20000 20000" width="20mm" height="20mm"><defs><style>.Feq9uszoTDTb_fr4 {color: #666666;}
.Feq9uszoTDTb_cu {color: #cccccc;}
.Feq9uszoTDTb_cf {color: #cc9933;}
.Feq9uszoTDTb_sm {color: #004200; opacity: 0.7490196078431373;}
.Feq9uszoTDTb_ss {color: #ffffff;}
.Feq9uszoTDTb_sp {color: #999999;}
.Feq9uszoTDTb_out {color: #000000;}</style><circle cx="0" cy="0" r="750" id="dROxUujSm34W_pad-14"/><circle cx="0" cy="0" r="1000" id="dROxUujSm34W_pad-15"/><circle cx="0" cy="0" r="750" id="TR6H2NdM657M_pad-14"/><circle cx="0" cy="0" r="1000" id="TR6H2NdM657M_pad-15"/><g id="yjGTFBiSIIdm_pad-10"><rect x="-1750" y="-750" width="3500" height="1500"/><circle cx="-1750" cy="0" r="750"/><circle cx="1750" cy="0" r="750"/></g><g id="yjGTFBiSIIdm_pad-12"><rect x="-1000" y="-3000" width="2000" height="6000"/><circle cx="0" cy="-3000" r="1000"/><circle cx="0" cy="3000" r="1000"/></g><circle cx="0" cy="0" r="500" id="Wbj8w8PjPmw1_pad-10"/><circle cx="0" cy="0" r="750" id="Wbj8w8PjPmw1_pad-11"/><g id="Feq9uszoTDTb_top_copper"><use xlink:href="#dROxUujSm34W_pad-14" x="250" y="2000"/><use xlink:href="#dROxUujSm34W_pad-14" x="3750" y="2000"/><path d="M 250 2000 3750 2000" fill="none" stroke-width="1500"/><use xlink:href="#dROxUujSm34W_pad-15" x="-4000" y="-5000"/><use xlink:href="#dROxUujSm34W_pad-15" x="-4000" y="1000"/><path d="M -4000 -5000 -4000 1000" fill="none" stroke-width="2000"/></g><g id="Feq9uszoTDTb_top_soldermask"><use xlink:href="#TR6H2NdM657M_pad-14" x="250" y="2000"/><use xlink:href="#TR6H2NdM657M_pad-14" x="3750" y="2000"/><path d="M 250 2000 3750 2000" fill="none" stroke-width="1500"/><use xlink:href="#TR6H2NdM657M_pad-15" x="-4000" y="-5000"/><use xlink:href="#TR6H2NdM657M_pad-15" x="-4000" y="1000"/><path d="M -4000 -5000 -4000 1000" fill="none" stroke-width="2000"/></g><g id="Feq9uszoTDTb_top_solderpaste"><use xlink:href="#yjGTFBiSIIdm_pad-10" x="2000" y="2000"/><use xlink:href="#yjGTFBiSIIdm_pad-12" x="-4000" y="-2000"/></g><g id="Feq9uszoTDTb_top_drill1"><use xlink:href="#Wbj8w8PjPmw1_pad-10" x="500" y="2000"/><use xlink:href="#Wbj8w8PjPmw1_pad-10" x="3500" y="2000"/><use xlink:href="#Wbj8w8PjPmw1_pad-11" x="-4000" y="-3250"/><use xlink:href="#Wbj8w8PjPmw1_pad-11" x="-4000" y="-750"/><use xlink:href="#Feq9uszoTDTb_top_slot-0"/><use xlink:href="#Feq9uszoTDTb_top_slot-1"/></g><clipPath id="Feq9uszoTDTb_top_outline"><path d="M -10000 -10000 10000 -10000 10000 10000 -10000 10000 -10000 -10000" fill="none" stroke-width="50"/></clipPath><mask id="Feq9uszoTDTb_top_mech-mask"><g fill="#000" stroke="#000"><rect x="-10000" y="-10000" width="20000" height="20000" fill="#fff"/><use xlink:href="#Feq9uszoTDTb_top_drill1"/></g></mask><mask id="Feq9uszoTDTb_top_cf-mask"><g fill="#fff" stroke="#fff"><use xlink:href="#Feq9uszoTDTb_top_soldermask"/></g></mask><mask id="Feq9uszoTDTb_top_sm-mask"><g fill="#000" stroke="#000"><rect x="-10000" y="-10000" width="20000" height="20000" fill="#fff"/><use xlink:href="#Feq9uszoTDTb_top_soldermask"/></g></mask><path id="Feq9uszoTDTb_top_slot-0" d="M 500.000 2500.000 L 3500.000 2500.000 A 500.000 500.000 0 0 0 3500.000 1500.000 L 500.000 1500.000 A 500.000 500.000 0 0 0 500.000 2500.000 Z" fill="#000"/><path id="Feq9uszoTDTb_top_slot-1" d="M -4750.000 -3250.000 L -4750.000 -750.000 A 750.000 750.000 0 0 0 -3250.000 -750.000 L -3250.000 -3250.000 A 750.000 750.000 0 0 0 -4750.000 -3250.000 Z" fill="#000"/></defs><g transform="translate(0,0) scale(1,-1)"><g mask="url(#Feq9uszoTDTb_top_mech-mask)" clip-path="url(#Feq9uszoTDTb_top_outline)"><rect x="-10000" y="-10000" width="20000" height="20000" fill="currentColor" class="Feq9uszoTDTb_fr4"/><use xlink:href="#Feq9uszoTDTb_top_copper" fill="currentColor" stroke="currentColor" class="Feq9uszoTDTb_cu"/><use xlink:href="#Feq9uszoTDTb_top_copper" fill="currentColor" stroke="currentColor" class="Feq9uszoTDTb_cf" mask="url(#Feq9uszoTDTb_top_cf-mask)"/><g mask="url(#Feq9uszoTDTb_top_sm-mask)"><rect x="-10000" y="-10000" width="20000" height="20000" fill="currentColor" class="Feq9uszoTDTb_sm"/></g><use xlink:href="#Feq9uszoTDTb_top_solderpaste" fill="currentColor" stroke="currentColor" class="Feq9uszoTDTb_sp"/></g></g></svg>