<svg version="1.1" xmlns="http://www.w3.org/2000/svg" xmlns:xlink="http://www.w3.org/1999/xlink" stroke-linecap="round" stroke-linejoin="round" stroke-width="0" fill-rule="evenodd" clip-rule="evenodd" id="FDTj0KjM33Xn_top" viewBox="-6000 -4000 12000 8000" width="12mm" height="8mm"><defs><style>.FDTj0KjM33Xn_fr4 {color: #666666;}
.FDTj0KjM33Xn_cu {color: #cccccc;}
.FDTj0KjM33Xn_cf {color: #cc9933;}
.FDTj0KjM33Xn_sm {color: #004200; opacity: 0.7490196078431373;}
.FDTj0KjM33Xn_ss {color: #ffffff;}
.FDTj0KjM33Xn_sp {color: #999999;}
.FDTj0KjM33Xn_out {color: #000000;}</style><rect x="-270" y="-320" width="540" height="640" id="OolFI_tQsumD_pad-11"/><circle cx="0" cy="0" r="150" id="OolFI_tQsumD_pad-15"/><rect x="-270" y="-320" width="540" height="640" id="jaqLzqshueBh_pad-11"/><rect x="-189" y="-224" width="378" height="448" id="lnJ1O4ttYg5l_pad-12"/><circle cx="0" cy="0" r="100" id="tLz2Gz-9_jUS_pad-10"/><g id="FDTj0KjM33Xn_top_copper"><use xlink:href="#OolFI_tQsumD_pad-11" x="-3510" y="0"/><use xlink:href="#OolFI_tQsumD_pad-11" x="-2490" y="0"/><use xlink:href="#OolFI_tQsumD_pad-11" x="2490" y="0"/><use xlink:href="#OolFI_tQsumD_pad-11" x="3510" y="0"/><path d="M -3510 0 -4031 510" fill="none" stroke-width="150"/><path d="M 2490 0 3000 510" fill="none" stroke-width="150"/><use xlink:href="#OolFI_tQsumD_pad-15" x="-4031" y="510"/><use xlink:href="#OolFI_tQsumD_pad-15" x="3000" y="510"/></g><g id="FDTj0KjM33Xn_top_silkscreen"><path d="M -3153.641 380 -2846.359 380" fill="none" stroke-width="120"/><path d="M -3153.641 -380 -2846.359 -380" fill="none" stroke-width="120"/><path d="M -3267.045 1095.649 -3267.045 1279.204 -3213.225 1284.121 -3175.45 1282.477 -3152.662 1277.426 -3143.08 1273.308 -3135.194 1267.948 -3129.368 1261.211 -3124.231 1242.943 -3124.713 1226.742 -3129.971 1215.011 -3139.408 1206.975 -3152.427 1201.856 -3177.366 1197.953 -3263.478 1194.904 M -3191.966 1187.154 -3118.022 1094.288 M -2938.281 1245.634 -2893.145 1284.121 -2893.145 1094.29" fill="none" stroke-width="36"/><path d="M 2846.359 380 3153.641 380" fill="none" stroke-width="120"/><path d="M 2846.359 -380 3153.641 -380" fill="none" stroke-width="120"/><path d="M 2732.955 1095.649 2732.955 1279.204 2786.775 1284.121 2824.55 1282.477 2847.338 1277.426 2856.92 1273.308 2864.806 1267.948 2870.632 1261.211 2875.769 1242.943 2875.287 1226.742 2870.029 1215.011 2860.592 1206.975 2847.573 1201.856 2822.634 1197.953 2736.522 1194.904 M 2808.034 1187.154 2881.978 1094.288 M 3030.915 1250.206 3035.174 1264.158 3047.76 1277.17 3068.386 1285.993 3081.625 1287.812 3104.529 1286.136 3121.711 1278.603 3131.107 1267.05 3134.482 1253.624 3134.258 1244.694 3130.225 1229.746 3112.72 1200.683 3068.638 1145.397 3022.285 1094.547 3146.289 1094.547" fill="none" stroke-width="36"/></g><g id="FDTj0KjM33Xn_top_soldermask"><use xlink:href="#jaqLzqshueBh_pad-11" x="-3510" y="0"/><use xlink:href="#jaqLzqshueBh_pad-11" x="-2490" y="0"/><use xlink:href="#jaqLzqshueBh_pad-11" x="2490" y="0"/><use xlink:href="#jaqLzqshueBh_pad-11" x="3510" y="0"/></g><g id="FDTj0KjM33Xn_top_solderpaste"><use xlink:href="#lnJ1O4ttYg5l_pad-12" x="-3510" y="0"/><use xlink:href="#lnJ1O4ttYg5l_pad-12" x="-2490" y="0"/><use xlink:href="#lnJ1O4ttYg5l_pad-12" x="2490" y="0"/><use xlink:href="#lnJ1O4ttYg5l_pad-12" x="3510" y="0"/></g><g id="FDTj0KjM33Xn_top_drill1"><use xlink:href="#tLz2Gz-9_jUS_pad-10" x="-4031" y="510"/><use xlink:href="#tLz2Gz-9_jUS_pad-10" x="3000" y="510"/></g><clipPath id="FDTj0KjM33Xn_top_outline"><path d="M -6000 -4000 6000 -4000 6000 4000 -6000 4000 -6000 -4000" fill="none" stroke-width="50"/></clipPath><mask id="FDTj0KjM33Xn_top_mech-mask"><g fill="#000" stroke="#000"><rect x="-6000" y="-4000" width="12000" height="8000" fill="#fff"/><use xlink:href="#FDTj0KjM33Xn_top_drill1"/></g></mask><mask id="FDTj0KjM33Xn_top_cf-mask"><g fill="#fff" stroke="#fff"><use xlink:href="#FDTj0KjM33Xn_top_soldermask"/></g></mask><mask id="FDTj0KjM33Xn_top_sm-mask"><g fill="#000" stroke="#000"><rect x="-6000" y="-4000" width="12000" height="8000" fill="#fff"/><use xlink:href="#FDTj0KjM33Xn_top_soldermask"/></g></mask></defs><g transform="translate(0,0) scale(1,-1)"><g mask="url(#FDTj0KjM33Xn_top_mech-mask)" clip-path="url(#FDTj0KjM33Xn_top_outline)"><rect x="-6000" y="-4000" width="12000" height="8000" fill="currentColor" class="FDTj0KjM33Xn_fr4"/><use xlink:href="#FDTj0KjM33Xn_top_copper" fill="currentColor" stroke="currentColor" class="FDTj0KjM33Xn_cu"/><use xlink:href="#FDTj0KjM33Xn_top_copper" fill="currentColor" stroke="currentColor" class="FDTj0KjM33Xn_cf" mask="url(#FDTj0KjM33Xn_top_cf-mask)"/><g mask="url(#FDTj0KjM33Xn_top_sm-mask)"><rect x="-6000" y="-4000" width="12000" height="8000" fill="currentColor" class="FDTj0KjM33Xn_sm"/><use xlink:href="#FDTj0KjM33Xn_top_silkscreen" fill="currentColor" stroke="currentColor" class="FDTj0KjM33Xn_ss"/></g><use xlink:href="#FDTj0KjM33Xn_top_solderpaste" fill="currentColor" stroke="currentColor" class="FDTj0KjM33Xn_sp"/></g></g></svg>