<svg version="1.1" xmlns="http://www.w3.org/2000/svg" xmlns:xlink="http://www.w3.org/1999/xlink" stroke-linecap="round" stroke-linejoin="round" stroke-width="0" fill-rule="evenodd" clip-rule="evenodd" id="XMHTBs5AYPr0_top" viewBox="-4020 -2750 8040 5500" width="8.04mm" height="5.5mm"><defs><style>.XMHTBs5AYPr0_fr4 {color: #666666;}
.XMHTBs5AYPr0_cu {color: #cccccc;}
.XMHTBs5AYPr0_cf {color: #cc9933;}
.XMHTBs5AYPr0_sm {color: #004200; opacity: 0.7490196078431373;}
.XMHTBs5AYPr0_ss {color: #ffffff;}
.XMHTBs5AYPr0_sp {color: #999999;}
.XMHTBs5AYPr0_out {color: #000000;}</style><rect x="-750" y="-750" width="1500" height="1500" id="gJ_czgvwPdHw_pad-10"/><circle cx="0" cy="0" r="750" id="gJ_czgvwPdHw_pad-12"/><rect x="-750" y="-750" width="1500" height="1500" id="lARd1lNsk6Tf_pad-10"/><circle cx="0" cy="0" r="750" id="lARd1lNsk6Tf_pad-12"/><circle cx="0" cy="0" r="750" id="kGKW9UgJfsbq_pad-12"/><circle cx="0" cy="0" r="500" id="kMoiCe_3vTlK_pad-10"/><g id="XMHTBs5AYPr0_top_copper"><use xlink:href="#gJ_czgvwPdHw_pad-10" x="-1270" y="0"/><use xlink:href="#gJ_czgvwPdHw_pad-12" x="1270" y="0"/></g><g id="XMHTBs5AYPr0_top_silkscreen"><path d="M -2534.722 900.515 -2534.722 1233.105 -2466.48 1239.502 -2405.433 1235.504 -2365.738 1224.743 -2347.989 1216.046 -2319.682 1190.536 -2307.102 1163.136 -2304.252 1123.08 -2315.533 1097.898 -2333.138 1083.979 -2361.212 1072.818 -2401.813 1064.814 -2456.993 1060.366 -2528.816 1059.871 M -1719.487 1239.502 -1719.487 900.515 M -1136.065 900.515 -1136.065 1239.502 -902.91 900.515 -907.485 1239.502 M -359.787 1170.775 -279.187 1239.502 -279.187 900.517" fill="none" stroke-width="62.5"/><path d="M 5.278 900.515 5.278 1233.105 73.52 1239.502 134.567 1235.504 174.263 1224.743 192.011 1216.046 220.318 1190.536 232.898 1163.136 235.748 1123.08 224.467 1097.898 206.862 1083.979 178.788 1072.818 138.187 1064.814 83.007 1060.366 11.184 1059.871 M 820.513 1239.502 820.513 900.515 M 1403.935 900.515 1403.935 1239.502 1637.09 900.515 1632.515 1239.502 M 2125.204 1178.94 2132.81 1203.854 2155.285 1227.089 2192.119 1242.845 2215.759 1246.094 2256.66 1243.101 2287.341 1229.648 2304.119 1209.017 2310.146 1185.044 2309.746 1169.097 2302.544 1142.404 2271.286 1090.506 2192.567 991.781 2109.795 900.978 2331.231 900.978" fill="none" stroke-width="62.5"/><path d="M -485.213 2700.303 -484.53 2342.465 -491.072 2297.682 -503.487 2273.448 -520.895 2254.176 -541.734 2239.414 -587.478 2221.632 -628.244 2216.503 -683.499 2222.453 -724.234 2238.782 -744.05 2254.6 -758.5 2273.782 -768.025 2295.827 -773.057 2320.237 -774.033 2346.511 M 294.298 2604.085 407.138 2700.303 407.138 2225.724" fill="none" stroke-width="87.5"/></g><g id="XMHTBs5AYPr0_top_soldermask"><use xlink:href="#lARd1lNsk6Tf_pad-10" x="-1270" y="0"/><use xlink:href="#lARd1lNsk6Tf_pad-12" x="1270" y="0"/></g><g id="XMHTBs5AYPr0_top_solderpaste"><use xlink:href="#kGKW9UgJfsbq_pad-12" x="1270" y="0"/></g><g id="XMHTBs5AYPr0_top_drill1"><use xlink:href="#kMoiCe_3vTlK_pad-10" x="-1270" y="0"/><use xlink:href="#kMoiCe_3vTlK_pad-10" x="1270" y="0"/></g><clipPath id="XMHTBs5AYPr0_top_outline"><path d="M -4020 -2750 4020 -2750 4020 2750 -4020 2750 -4020 -2750" fill="none" stroke-width="50"/></clipPath><mask id="XMHTBs5AYPr0_top_mech-mask"><g fill="#000" stroke="#000"><rect x="-4020" y="-2750" width="8040" height="5500" fill="#fff"/><use xlink:href="#XMHTBs5AYPr0_top_drill1"/></g></mask><mask id="XMHTBs5AYPr0_top_cf-mask"><g fill="#fff" stroke="#fff"><use xlink:href="#XMHTBs5AYPr0_top_soldermask"/></g></mask><mask id="XMHTBs5AYPr0_top_sm-mask"><g fill="#000" stroke="#000"><rect x="-4020" y="-2750" width="8040" height="5500" fill="#fff"/><use xlink:href="#XMHTBs5AYPr0_top_soldermask"/></g></mask></defs><g transform="translate(0,0) scale(1,-1)"><g mask="url(#XMHTBs5AYPr0_top_mech-mask)" clip-path="url(#XMHTBs5AYPr0_top_outline)"><rect x="-4020" y="-2750" width="8040" height="5500" fill="currentColor" class="XMHTBs5AYPr0_fr4"/><use xlink:href="#XMHTBs5AYPr0_top_copper" fill="currentColor" stroke="currentColor" class="XMHTBs5AYPr0_cu"/><use xlink:href="#XMHTBs5AYPr0_top_copper" fill="currentColor" stroke="currentColor" class="XMHTBs5AYPr0_cf" mask="url(#XMHTBs5AYPr0_top_cf-mask)"/><g mask="url(#XMHTBs5AYPr0_top_sm-mask)"><rect x="-4020" y="-2750" width="8040" height="5500" fill="currentColor" class="XMHTBs5AYPr0_sm"/><use xlink:href="#XMHTBs5AYPr0_top_silkscreen" fill="currentColor" stroke="currentColor" class="XMHTBs5AYPr0_ss"/></g><use xlink:href="#XMHTBs5AYPr0_top_solderpaste" fill="currentColor" stroke="currentColor" class="XMHTBs5AYPr0_sp"/></g></g></svg>