<svg version="1.1" xmlns="http://www.w3.org/2000/svg" xmlns:xlink="http://www.w3.org/1999/xlink" viewBox="0 0 1604 648" width="1604" height="648"><defs><style><![CDATA[.snapshot-label { font: 600 24px ui-monospace, SFMono-Regular, Menlo, monospace; fill: #e5e7eb; }.snapshot-subtitle { font: 500 16px ui-monospace, SFMono-Regular, Menlo, monospace; fill: #94a3b8; }]]></style></defs><rect x="0" y="0" width="1604" height="648" fill="#0b1020"/><rect x="28" y="28" width="760" height="592" rx="18" fill="#111827" stroke="#334155" stroke-width="2"/><rect x="816" y="28" width="760" height="592" rx="18" fill="#111827" stroke="#334155" stroke-width="2"/><text x="48" y="54" class="snapshot-label">Circuit JSON PCB view</text><text x="836" y="54" class="snapshot-label">Gerber view: F_Cu + B_Cu</text><text x="48" y="76" class="snapshot-subtitle">Input</text><text x="836" y="76" class="snapshot-subtitle">Output</text><svg x="48" y="80" width="720" height="520" preserveAspectRatio="xMidYMid meet" viewBox="0 0 800 800" xmlns="http://www.w3.org/2000/svg"><style></style><rect class="boundary" x="0" y="0" fill="#111111" width="800" height="800" data-type="pcb_background" data-pcb-layer="global"/><rect class="pcb-boundary" fill="none" stroke="#fff" stroke-width="0.3" x="80" y="80" width="640" height="640" data-type="pcb_boundary" data-pcb-layer="global"/><path class="pcb-board" d="M 80 720 L 720 720 L 720 80 L 80 80 Z" fill="none" stroke="rgba(255, 255, 255, 0.5)" stroke-width="8" data-type="pcb_board" data-pcb-layer="board"/><g data-type="pcb_plated_hole" data-pcb-layer="through"><path class="pcb-hole-outer" fill="rgb(200, 52, 52)" d="M44,-36 v72 a44,44 0 0 1 -88,0 v-72 a44,44 0 0 1 88,0 z" transform="translate(400 400) rotate(-45)" data-type="pcb_plated_hole" data-pcb-layer="top"/><path class="pcb-hole-inner" fill="#FF26E2" d="M24,-36 v72 a24,24 0 0 1 -48,0 v-72 a24,24 0 0 1 48,0 z" transform="translate(400 400) rotate(-45)" data-type="pcb_plated_hole_drill" data-pcb-layer="drill"/></g></svg><svg x="836" y="80" width="720" height="520" preserveAspectRatio="xMidYMid meet" viewBox="-4000 -4000 8000 8000" version="1.1" xmlns="http://www.w3.org/2000/svg" xmlns:xlink="http://www.w3.org/1999/xlink" stroke-linecap="round" stroke-linejoin="round" stroke-width="0" fill-rule="evenodd" clip-rule="evenodd" id="zQ4VsOC7hIMr_top"><defs><style>.zQ4VsOC7hIMr_fr4 {color: #666666;}
.zQ4VsOC7hIMr_cu {color: #cccccc;}
.zQ4VsOC7hIMr_cf {color: #cc9933;}
.zQ4VsOC7hIMr_sm {color: #004200; opacity: 0.7490196078431373;}
.zQ4VsOC7hIMr_ss {color: #ffffff;}
.zQ4VsOC7hIMr_sp {color: #999999;}
.zQ4VsOC7hIMr_out {color: #000000;}</style><circle cx="0" cy="0" r="550" id="TQWRAPq3qWb8_pad-11"/><circle cx="0" cy="0" r="550" id="t9eESa8iQJSv_pad-11"/><circle cx="0" cy="0" r="300" id="QNdPVQfK1u0v_pad-10"/><g id="zQ4VsOC7hIMr_top_copper"><use xlink:href="#TQWRAPq3qWb8_pad-11" x="318.198" y="-318.198"/><use xlink:href="#TQWRAPq3qWb8_pad-11" x="-318.198" y="318.198"/><path d="M 318.198 -318.198 -318.198 318.198" fill="none" stroke-width="1100"/></g><g id="zQ4VsOC7hIMr_top_soldermask"><use xlink:href="#t9eESa8iQJSv_pad-11" x="318.198" y="-318.198"/><use xlink:href="#t9eESa8iQJSv_pad-11" x="-318.198" y="318.198"/><path d="M 318.198 -318.198 -318.198 318.198" fill="none" stroke-width="1100"/></g><g id="zQ4VsOC7hIMr_top_drill1"><use xlink:href="#QNdPVQfK1u0v_pad-10" x="318.2" y="-318.2"/><use xlink:href="#QNdPVQfK1u0v_pad-10" x="-318" y="318"/><use xlink:href="#zQ4VsOC7hIMr_top_slot-0"/></g><clipPath id="zQ4VsOC7hIMr_top_outline"><path d="M -4000 -4000 4000 -4000 4000 4000 -4000 4000 -4000 -4000" fill="none" stroke-width="50"/></clipPath><mask id="zQ4VsOC7hIMr_top_mech-mask"><g fill="#000" stroke="#000"><rect x="-4000" y="-4000" width="8000" height="8000" fill="#fff"/><use xlink:href="#zQ4VsOC7hIMr_top_drill1"/></g></mask><mask id="zQ4VsOC7hIMr_top_cf-mask"><g fill="#fff" stroke="#fff"><use xlink:href="#zQ4VsOC7hIMr_top_soldermask"/></g></mask><mask id="zQ4VsOC7hIMr_top_sm-mask"><g fill="#000" stroke="#000"><rect x="-4000" y="-4000" width="8000" height="8000" fill="#fff"/><use xlink:href="#zQ4VsOC7hIMr_top_soldermask"/></g></mask><path id="zQ4VsOC7hIMr_top_slot-0" d="M 106.068 -530.332 L -530.132 105.868 A 300.000 300.000 0 0 0 -105.868 530.132 L 530.332 -106.068 A 300.000 300.000 0 0 0 106.068 -530.332 Z" fill="#000"/></defs><g transform="translate(0,0) scale(1,-1)"><g mask="url(#zQ4VsOC7hIMr_top_mech-mask)" clip-path="url(#zQ4VsOC7hIMr_top_outline)"><rect x="-4000" y="-4000" width="8000" height="8000" fill="currentColor" class="zQ4VsOC7hIMr_fr4"/><use xlink:href="#zQ4VsOC7hIMr_top_copper" fill="currentColor" stroke="currentColor" class="zQ4VsOC7hIMr_cu"/><use xlink:href="#zQ4VsOC7hIMr_top_copper" fill="currentColor" stroke="currentColor" class="zQ4VsOC7hIMr_cf" mask="url(#zQ4VsOC7hIMr_top_cf-mask)"/><g mask="url(#zQ4VsOC7hIMr_top_sm-mask)"><rect x="-4000" y="-4000" width="8000" height="8000" fill="currentColor" class="zQ4VsOC7hIMr_sm"/></g></g></g></svg></svg>