<svg version="1.1" xmlns="http://www.w3.org/2000/svg" xmlns:xlink="http://www.w3.org/1999/xlink" viewBox="0 0 1604 648" width="1604" height="648"><defs><style><![CDATA[.snapshot-label { font: 600 24px ui-monospace, SFMono-Regular, Menlo, monospace; fill: #e5e7eb; }.snapshot-subtitle { font: 500 16px ui-monospace, SFMono-Regular, Menlo, monospace; fill: #94a3b8; }]]></style></defs><rect x="0" y="0" width="1604" height="648" fill="#0b1020"/><rect x="28" y="28" width="760" height="592" rx="18" fill="#111827" stroke="#334155" stroke-width="2"/><rect x="816" y="28" width="760" height="592" rx="18" fill="#111827" stroke="#334155" stroke-width="2"/><text x="48" y="54" class="snapshot-label">Circuit JSON PCB view</text><text x="836" y="54" class="snapshot-label">Gerber view: F_Cu</text><text x="48" y="76" class="snapshot-subtitle">Input</text><text x="836" y="76" class="snapshot-subtitle">Output</text><svg x="48" y="80" width="720" height="520" preserveAspectRatio="xMidYMid meet" viewBox="0 0 800 800" xmlns="http://www.w3.org/2000/svg"><style></style><rect class="boundary" x="0" y="0" fill="#111111" width="800" height="800" data-type="pcb_background" data-pcb-layer="global"/><rect class="pcb-boundary" fill="none" stroke="#fff" stroke-width="0.3" x="66.66666666666669" y="66.66666666666657" width="666.6666666666667" height="666.6666666666667" data-type="pcb_boundary" data-pcb-layer="global"/><path class="pcb-board" d="M 66.66666666666669 733.3333333333333 L 733.3333333333335 733.3333333333333 L 733.3333333333335 66.66666666666657 L 66.66666666666669 66.66666666666657 Z" fill="none" stroke="rgba(255, 255, 255, 0.5)" stroke-width="6.666666666666668" data-type="pcb_board" data-pcb-layer="board"/><rect class="pcb-pad" fill="rgb(200, 52, 52)" x="-20" y="-56.66666666666667" width="40" height="113.33333333333334" transform="translate(281.00000000000006 339.9333333333333) rotate(-45)" data-type="pcb_smtpad" data-pcb-layer="top"/><rect class="pcb-pad" fill="rgb(200, 52, 52)" x="-20" y="-56.66666666666667" width="40" height="113.33333333333334" transform="translate(339.9333333333334 280.99999999999994) rotate(-45)" data-type="pcb_smtpad" data-pcb-layer="top"/><rect class="pcb-pad" fill="rgb(200, 52, 52)" x="-43.333333333333336" y="-96.66666666666667" width="86.66666666666667" height="193.33333333333334" transform="translate(577.9333333333334 344.59999999999997) rotate(-45)" data-type="pcb_smtpad" data-pcb-layer="top"/><rect class="pcb-pad" fill="rgb(200, 52, 52)" x="-43.333333333333336" y="-96.66666666666667" width="86.66666666666667" height="193.33333333333334" transform="translate(344.6000000000001 577.9333333333333) rotate(-45)" data-type="pcb_smtpad" data-pcb-layer="top"/></svg><svg x="836" y="80" width="720" height="520" preserveAspectRatio="xMidYMid meet" viewBox="-5000 -5000 10000 10000" version="1.1" xmlns="http://www.w3.org/2000/svg" xmlns:xlink="http://www.w3.org/1999/xlink" stroke-linecap="round" stroke-linejoin="round" stroke-width="0" fill-rule="evenodd" clip-rule="evenodd" id="rrNogKTiM9Hc_top"><defs><style>.rrNogKTiM9Hc_fr4 {color: #666666;}
.rrNogKTiM9Hc_cu {color: #cccccc;}
.rrNogKTiM9Hc_cf {color: #cc9933;}
.rrNogKTiM9Hc_sm {color: #004200; opacity: 0.7490196078431373;}
.rrNogKTiM9Hc_ss {color: #ffffff;}
.rrNogKTiM9Hc_sp {color: #999999;}
.rrNogKTiM9Hc_out {color: #000000;}</style><g id="rrNogKTiM9Hc_top_copper"><path d="M -2598.173 1289.909 -2173.909 1714.173 -971.827 512.091 -1396.091 87.827 -2598.173 1289.909"/><path d="M -1714.173 2173.909 -1289.909 2598.173 -87.827 1396.091 -512.091 971.827 -1714.173 2173.909"/><path d="M 1184.076 1396.685 2103.315 2315.924 4153.924 265.315 3234.685 -653.924 1184.076 1396.685"/><path d="M -2315.924 -2103.315 -1396.685 -1184.076 653.924 -3234.685 -265.315 -4153.924 -2315.924 -2103.315"/></g><g id="rrNogKTiM9Hc_top_soldermask"><path d="M -2598.173 1289.909 -2173.909 1714.173 -971.827 512.091 -1396.091 87.827 -2598.173 1289.909"/><path d="M -1714.173 2173.909 -1289.909 2598.173 -87.827 1396.091 -512.091 971.827 -1714.173 2173.909"/><path d="M 1184.076 1396.685 2103.315 2315.924 4153.924 265.315 3234.685 -653.924 1184.076 1396.685"/><path d="M -2315.924 -2103.315 -1396.685 -1184.076 653.924 -3234.685 -265.315 -4153.924 -2315.924 -2103.315"/></g><clipPath id="rrNogKTiM9Hc_top_outline"><path d="M -5000 -5000 5000 -5000 5000 5000 -5000 5000 -5000 -5000" fill="none" stroke-width="50"/></clipPath><mask id="rrNogKTiM9Hc_top_mech-mask"><g fill="#000" stroke="#000"><rect x="-5000" y="-5000" width="10000" height="10000" fill="#fff"/></g></mask><mask id="rrNogKTiM9Hc_top_cf-mask"><g fill="#fff" stroke="#fff"><use xlink:href="#rrNogKTiM9Hc_top_soldermask"/></g></mask><mask id="rrNogKTiM9Hc_top_sm-mask"><g fill="#000" stroke="#000"><rect x="-5000" y="-5000" width="10000" height="10000" fill="#fff"/><use xlink:href="#rrNogKTiM9Hc_top_soldermask"/></g></mask></defs><g transform="translate(0,0) scale(1,-1)"><g mask="url(#rrNogKTiM9Hc_top_mech-mask)" clip-path="url(#rrNogKTiM9Hc_top_outline)"><rect x="-5000" y="-5000" width="10000" height="10000" fill="currentColor" class="rrNogKTiM9Hc_fr4"/><use xlink:href="#rrNogKTiM9Hc_top_copper" fill="currentColor" stroke="currentColor" class="rrNogKTiM9Hc_cu"/><use xlink:href="#rrNogKTiM9Hc_top_copper" fill="currentColor" stroke="currentColor" class="rrNogKTiM9Hc_cf" mask="url(#rrNogKTiM9Hc_top_cf-mask)"/><g mask="url(#rrNogKTiM9Hc_top_sm-mask)"><rect x="-5000" y="-5000" width="10000" height="10000" fill="currentColor" class="rrNogKTiM9Hc_sm"/></g></g></g></svg></svg>