<svg version="1.1" xmlns="http://www.w3.org/2000/svg" xmlns:xlink="http://www.w3.org/1999/xlink" stroke-linecap="round" stroke-linejoin="round" stroke-width="0" fill-rule="evenodd" clip-rule="evenodd" id="C2Ly41KAeRjQ_top" viewBox="-42500 -30000 85000 60000" width="85mm" height="60mm"><defs><style>.C2Ly41KAeRjQ_fr4 {color: #666666;}
.C2Ly41KAeRjQ_cu {color: #cccccc;}
.C2Ly41KAeRjQ_cf {color: #cc9933;}
.C2Ly41KAeRjQ_sm {color: #004200; opacity: 0.7490196078431373;}
.C2Ly41KAeRjQ_ss {color: #ffffff;}
.C2Ly41KAeRjQ_sp {color: #999999;}
.C2Ly41KAeRjQ_out {color: #000000;}</style><rect x="-800" y="-800" width="1600" height="1600" id="JJlBtyX6724I_pad-12"/><circle cx="0" cy="0" r="800" id="JJlBtyX6724I_pad-13"/><circle cx="0" cy="0" r="1500" id="ZpZa6H2Nax2x_pad-10"/><circle cx="0" cy="0" r="1250" id="ZpZa6H2Nax2x_pad-11"/><rect x="-800" y="-800" width="1600" height="1600" id="ZpZa6H2Nax2x_pad-14"/><circle cx="0" cy="0" r="800" id="ZpZa6H2Nax2x_pad-15"/><circle cx="0" cy="0" r="800" id="gva5YbR1UjDb_pad-13"/><g id="C2Ly41KAeRjQ_top_copper"><use xlink:href="#JJlBtyX6724I_pad-12" x="30150" y="13970"/><use xlink:href="#JJlBtyX6724I_pad-13" x="30150" y="11430"/><use xlink:href="#JJlBtyX6724I_pad-13" x="30150" y="8890"/><use xlink:href="#JJlBtyX6724I_pad-13" x="30150" y="6350"/><use xlink:href="#JJlBtyX6724I_pad-13" x="30150" y="3810"/><use xlink:href="#JJlBtyX6724I_pad-13" x="30150" y="1270"/><use xlink:href="#JJlBtyX6724I_pad-13" x="30150" y="-1270"/><use xlink:href="#JJlBtyX6724I_pad-13" x="30150" y="-3810"/><use xlink:href="#JJlBtyX6724I_pad-13" x="30150" y="-6350"/><use xlink:href="#JJlBtyX6724I_pad-13" x="30150" y="-8890"/><use xlink:href="#JJlBtyX6724I_pad-13" x="30150" y="-11430"/><use xlink:href="#JJlBtyX6724I_pad-13" x="30150" y="-13970"/><use xlink:href="#JJlBtyX6724I_pad-13" x="30850" y="-13970"/><use xlink:href="#JJlBtyX6724I_pad-13" x="30850" y="-11430"/><use xlink:href="#JJlBtyX6724I_pad-13" x="30850" y="-8890"/><use xlink:href="#JJlBtyX6724I_pad-13" x="30850" y="-6350"/><use xlink:href="#JJlBtyX6724I_pad-13" x="30850" y="-3810"/><use xlink:href="#JJlBtyX6724I_pad-13" x="30850" y="-1270"/><use xlink:href="#JJlBtyX6724I_pad-13" x="30850" y="1270"/><use xlink:href="#JJlBtyX6724I_pad-13" x="30850" y="3810"/><use xlink:href="#JJlBtyX6724I_pad-13" x="30850" y="6350"/><use xlink:href="#JJlBtyX6724I_pad-13" x="30850" y="8890"/><use xlink:href="#JJlBtyX6724I_pad-13" x="30850" y="11430"/><use xlink:href="#JJlBtyX6724I_pad-13" x="30850" y="13970"/></g><g id="C2Ly41KAeRjQ_top_silkscreen"><path d="M 31450 -14970 31450 14970 30816.667 14970 30792.562 15091.183 30723.917 15193.917 30621.183 15262.562 30500 15286.667 30378.817 15262.562 30276.083 15193.917 30207.438 15091.183 30183.333 14970 29550 14970 29550 -14970 31450 -14970" fill="none" stroke-width="100"/><path d="M 29823.213 15607.402 29823.848 15380.675 29828.223 15318.998 29839.414 15273.312 29860.872 15238.563 29888.943 15215.586 29930.878 15198.992 29983.793 15192.717 30020.932 15198.999 30051.392 15215.548 30069.621 15234.937 30077.447 15247.683 30089.419 15280.178 30095.008 15323.224 30098.019 15606.79 M 30752.256 15524.93 30848.976 15607.402 30848.976 15200.62" fill="none" stroke-width="75"/></g><g id="C2Ly41KAeRjQ_top_soldermask"><use xlink:href="#ZpZa6H2Nax2x_pad-10" x="-28375" y="-15780"/><use xlink:href="#ZpZa6H2Nax2x_pad-10" x="-34725" y="-18320"/><use xlink:href="#ZpZa6H2Nax2x_pad-11" x="-31000" y="-20860"/><use xlink:href="#ZpZa6H2Nax2x_pad-10" x="-9325" y="-15780"/><use xlink:href="#ZpZa6H2Nax2x_pad-10" x="-15675" y="-18320"/><use xlink:href="#ZpZa6H2Nax2x_pad-11" x="-11950" y="-20860"/><use xlink:href="#ZpZa6H2Nax2x_pad-10" x="9725" y="-15780"/><use xlink:href="#ZpZa6H2Nax2x_pad-10" x="3375" y="-18320"/><use xlink:href="#ZpZa6H2Nax2x_pad-11" x="7100" y="-20860"/><use xlink:href="#ZpZa6H2Nax2x_pad-10" x="-28375" y="3270"/><use xlink:href="#ZpZa6H2Nax2x_pad-10" x="-34725" y="730"/><use xlink:href="#ZpZa6H2Nax2x_pad-11" x="-31000" y="-1810"/><use xlink:href="#ZpZa6H2Nax2x_pad-10" x="-9325" y="3270"/><use xlink:href="#ZpZa6H2Nax2x_pad-10" x="-15675" y="730"/><use xlink:href="#ZpZa6H2Nax2x_pad-11" x="-11950" y="-1810"/><use xlink:href="#ZpZa6H2Nax2x_pad-10" x="9725" y="3270"/><use xlink:href="#ZpZa6H2Nax2x_pad-10" x="3375" y="730"/><use xlink:href="#ZpZa6H2Nax2x_pad-11" x="7100" y="-1810"/><use xlink:href="#ZpZa6H2Nax2x_pad-10" x="-28375" y="22320"/><use xlink:href="#ZpZa6H2Nax2x_pad-10" x="-34725" y="19780"/><use xlink:href="#ZpZa6H2Nax2x_pad-11" x="-31000" y="17240"/><use xlink:href="#ZpZa6H2Nax2x_pad-10" x="-9325" y="22320"/><use xlink:href="#ZpZa6H2Nax2x_pad-10" x="-15675" y="19780"/><use xlink:href="#ZpZa6H2Nax2x_pad-11" x="-11950" y="17240"/><use xlink:href="#ZpZa6H2Nax2x_pad-10" x="9725" y="22320"/><use xlink:href="#ZpZa6H2Nax2x_pad-10" x="3375" y="19780"/><use xlink:href="#ZpZa6H2Nax2x_pad-11" x="7100" y="17240"/><use xlink:href="#ZpZa6H2Nax2x_pad-14" x="30150" y="13970"/><use xlink:href="#ZpZa6H2Nax2x_pad-15" x="30150" y="11430"/><use xlink:href="#ZpZa6H2Nax2x_pad-15" x="30150" y="8890"/><use xlink:href="#ZpZa6H2Nax2x_pad-15" x="30150" y="6350"/><use xlink:href="#ZpZa6H2Nax2x_pad-15" x="30150" y="3810"/><use xlink:href="#ZpZa6H2Nax2x_pad-15" x="30150" y="1270"/><use xlink:href="#ZpZa6H2Nax2x_pad-15" x="30150" y="-1270"/><use xlink:href="#ZpZa6H2Nax2x_pad-15" x="30150" y="-3810"/><use xlink:href="#ZpZa6H2Nax2x_pad-15" x="30150" y="-6350"/><use xlink:href="#ZpZa6H2Nax2x_pad-15" x="30150" y="-8890"/><use xlink:href="#ZpZa6H2Nax2x_pad-15" x="30150" y="-11430"/><use xlink:href="#ZpZa6H2Nax2x_pad-15" x="30150" y="-13970"/><use xlink:href="#ZpZa6H2Nax2x_pad-15" x="30850" y="-13970"/><use xlink:href="#ZpZa6H2Nax2x_pad-15" x="30850" y="-11430"/><use xlink:href="#ZpZa6H2Nax2x_pad-15" x="30850" y="-8890"/><use xlink:href="#ZpZa6H2Nax2x_pad-15" x="30850" y="-6350"/><use xlink:href="#ZpZa6H2Nax2x_pad-15" x="30850" y="-3810"/><use xlink:href="#ZpZa6H2Nax2x_pad-15" x="30850" y="-1270"/><use xlink:href="#ZpZa6H2Nax2x_pad-15" x="30850" y="1270"/><use xlink:href="#ZpZa6H2Nax2x_pad-15" x="30850" y="3810"/><use xlink:href="#ZpZa6H2Nax2x_pad-15" x="30850" y="6350"/><use xlink:href="#ZpZa6H2Nax2x_pad-15" x="30850" y="8890"/><use xlink:href="#ZpZa6H2Nax2x_pad-15" x="30850" y="11430"/><use xlink:href="#ZpZa6H2Nax2x_pad-15" x="30850" y="13970"/></g><g id="C2Ly41KAeRjQ_top_solderpaste"><use xlink:href="#gva5YbR1UjDb_pad-13" x="30150" y="11430"/><use xlink:href="#gva5YbR1UjDb_pad-13" x="30150" y="8890"/><use xlink:href="#gva5YbR1UjDb_pad-13" x="30150" y="6350"/><use xlink:href="#gva5YbR1UjDb_pad-13" x="30150" y="3810"/><use xlink:href="#gva5YbR1UjDb_pad-13" x="30150" y="1270"/><use xlink:href="#gva5YbR1UjDb_pad-13" x="30150" y="-1270"/><use xlink:href="#gva5YbR1UjDb_pad-13" x="30150" y="-3810"/><use xlink:href="#gva5YbR1UjDb_pad-13" x="30150" y="-6350"/><use xlink:href="#gva5YbR1UjDb_pad-13" x="30150" y="-8890"/><use xlink:href="#gva5YbR1UjDb_pad-13" x="30150" y="-11430"/><use xlink:href="#gva5YbR1UjDb_pad-13" x="30150" y="-13970"/><use xlink:href="#gva5YbR1UjDb_pad-13" x="30850" y="-13970"/><use xlink:href="#gva5YbR1UjDb_pad-13" x="30850" y="-11430"/><use xlink:href="#gva5YbR1UjDb_pad-13" x="30850" y="-8890"/><use xlink:href="#gva5YbR1UjDb_pad-13" x="30850" y="-6350"/><use xlink:href="#gva5YbR1UjDb_pad-13" x="30850" y="-3810"/><use xlink:href="#gva5YbR1UjDb_pad-13" x="30850" y="-1270"/><use xlink:href="#gva5YbR1UjDb_pad-13" x="30850" y="1270"/><use xlink:href="#gva5YbR1UjDb_pad-13" x="30850" y="3810"/><use xlink:href="#gva5YbR1UjDb_pad-13" x="30850" y="6350"/><use xlink:href="#gva5YbR1UjDb_pad-13" x="30850" y="8890"/><use xlink:href="#gva5YbR1UjDb_pad-13" x="30850" y="11430"/><use xlink:href="#gva5YbR1UjDb_pad-13" x="30850" y="13970"/></g><g id="C2Ly41KAeRjQ_top_drill1"><path d="M 29191.167 13985.309 29191.167 14184.863 29232.112 14188.701 29268.74 14186.302 29292.558 14179.846 29303.207 14174.628 29320.191 14159.321 29327.739 14142.882 29329.449 14118.848 29322.68 14103.739 29312.117 14095.387 29295.273 14088.691 29270.913 14083.888 29237.804 14081.22 29194.71 14080.923 M 29680.308 14188.701 29680.308 13985.309 M 30030.361 13985.309 30030.361 14188.701 30170.254 13985.309 30167.509 14188.701 M 30496.128 14147.465 30544.488 14188.701 30544.488 13985.31" fill="none" stroke-width="37.5"/><path d="M 29191.167 11445.309 29191.167 11644.863 29232.112 11648.701 29268.74 11646.302 29292.558 11639.846 29303.207 11634.628 29320.191 11619.321 29327.739 11602.882 29329.449 11578.848 29322.68 11563.739 29312.117 11555.387 29295.273 11548.691 29270.913 11543.888 29237.804 11541.22 29194.71 11540.923 M 29680.308 11648.701 29680.308 11445.309 M 30030.361 11445.309 30030.361 11648.701 30170.254 11445.309 30167.509 11648.701 M 30463.123 11612.364 30467.686 11627.312 30481.171 11641.253 30503.271 11650.707 30517.455 11652.656 30541.996 11650.86 30560.405 11642.789 30570.472 11630.41 30574.088 11616.026 30573.848 11606.458 30569.526 11590.442 30550.771 11559.304 30503.54 11500.069 30453.877 11445.587 30586.739 11445.587" fill="none" stroke-width="37.5"/><path d="M 29191.167 8905.309 29191.167 9104.863 29232.112 9108.701 29268.74 9106.302 29292.558 9099.846 29303.207 9094.628 29320.191 9079.321 29327.739 9062.882 29329.449 9038.848 29322.68 9023.739 29312.117 9015.387 29295.273 9008.691 29270.913 9003.888 29237.804 9001.22 29194.71 9000.923 M 29680.308 9108.701 29680.308 8905.309 M 30030.361 8905.309 30030.361 9108.701 30170.254 8905.309 30167.509 9108.701 M 30454.482 9086.478 30465.746 9095.31 30483.699 9104.773 30506.58 9112.656 30534.74 9111.081 30559.381 9103.196 30576.982 9089.001 30587.542 9071.653 30584.022 9052.727 30569.942 9038.532 30545.3 9027.492 30517.139 9021.184 30492.499 9018.03 30517.139 9014.875 30545.3 9006.99 30569.942 8994.372 30585.782 8977.023 30589.302 8958.098 30582.262 8937.595 30566.421 8920.246 30541.78 8906.052 30523.124 8901.636 30492.851 8902.267 30468.21 8906.052 30451.314 8911.099" fill="none" stroke-width="37.5"/><path d="M 29191.167 6365.309 29191.167 6564.863 29232.112 6568.701 29268.74 6566.302 29292.558 6559.846 29303.207 6554.628 29320.191 6539.321 29327.739 6522.882 29329.449 6498.848 29322.68 6483.739 29312.117 6475.387 29295.273 6468.691 29270.913 6463.888 29237.804 6461.22 29194.71 6460.923 M 29680.308 6568.701 29680.308 6365.309 M 30030.361 6365.309 30030.361 6568.701 30170.254 6365.309 30167.509 6568.701 M 30555.548 6568.701 30444.648 6432.74 30595.967 6432.74 M 30554.254 6476.55 30554.254 6365.309" fill="none" stroke-width="37.5"/><path d="M 29191.167 3825.309 29191.167 4024.863 29232.112 4028.701 29268.74 4026.302 29292.558 4019.846 29303.207 4014.628 29320.191 3999.321 29327.739 3982.882 29329.449 3958.848 29322.68 3943.739 29312.117 3935.387 29295.273 3928.691 29270.913 3923.888 29237.804 3921.22 29194.71 3920.923 M 29680.308 4028.701 29680.308 3825.309 M 30030.361 3825.309 30030.361 4028.701 30170.254 3825.309 30167.509 4028.701 M 30452.485 4028.701 30452.485 3925.59 30510.297 3939.15 30551.574 3934.049 30568.001 3924.843 30579.408 3911.781 30588.13 3876.18 30584.006 3857.685 30573.182 3843.13 30551.913 3829.611 30527.334 3822.499 30504.22 3821.358 30484.755 3825.07 30469.02 3832.348 30452.485 3847.318 M 30452.485 4028.701 30588.13 4028.701" fill="none" stroke-width="37.5"/><path d="M 29191.167 1285.309 29191.167 1484.863 29232.112 1488.701 29268.74 1486.302 29292.558 1479.846 29303.207 1474.628 29320.191 1459.321 29327.739 1442.882 29329.449 1418.848 29322.68 1403.739 29312.117 1395.387 29295.273 1388.691 29270.913 1383.888 29237.804 1381.22 29194.71 1380.923 M 29680.308 1488.701 29680.308 1285.309 M 30030.361 1285.309 30030.361 1488.701 30170.254 1285.309 30167.509 1488.701 M 30558.565 1492.656 30532.43 1484.484 30508.219 1476.37 30487.656 1461.945 30471.671 1446.709 30459.466 1419.873 30451.075 1394.72 30450.179 1368.785 30449.549 1342.941 30456.149 1323.708 30462.45 1311.687 30477.375 1296.061 30493.294 1285.542 30517.837 1281.636 30545.364 1283.138 30566.923 1292.755 30582.179 1305.677 30590.47 1323.408 30591.133 1338.433 30586.49 1354.361 30579.525 1367.884 30568.913 1379.003 30554.319 1385.915 30534.088 1390.423 30514.852 1391.324 30494.621 1388.319 30473.727 1377.501 30462.782 1366.381 30449.483 1352.798" fill="none" stroke-width="37.5"/><path d="M 29191.167 -1254.691 29191.167 -1055.137 29232.112 -1051.299 29268.74 -1053.698 29292.558 -1060.154 29303.207 -1065.372 29320.191 -1080.679 29327.739 -1097.118 29329.449 -1121.152 29322.68 -1136.261 29312.117 -1144.613 29295.273 -1151.309 29270.913 -1156.112 29237.804 -1158.78 29194.71 -1159.077 M 29680.308 -1051.299 29680.308 -1254.691 M 30030.361 -1254.691 30030.361 -1051.299 30170.254 -1254.691 30167.509 -1051.299 M 30451.46 -1051.299 30589.156 -1051.299 30578.781 -1057.511 30573.326 -1061.622 30560.556 -1073.834 30553.62 -1082.241 30546.57 -1092.388 30539.595 -1104.429 30532.883 -1118.519 30526.624 -1134.81 30521.009 -1153.457 30516.225 -1174.615 30511.023 -1211.395 30508.759 -1254.691" fill="none" stroke-width="37.5"/><path d="M 29191.167 -3794.691 29191.167 -3595.137 29232.112 -3591.299 29268.74 -3593.698 29292.558 -3600.154 29303.207 -3605.372 29320.191 -3620.679 29327.739 -3637.118 29329.449 -3661.152 29322.68 -3676.262 29312.117 -3684.613 29295.273 -3691.31 29270.913 -3696.112 29237.804 -3698.78 29194.71 -3699.077 M 29680.308 -3591.299 29680.308 -3794.691 M 30030.361 -3794.691 30030.361 -3591.299 30170.254 -3794.691 30167.509 -3591.299 M 30516.028 -3587.344 30493.205 -3591.486 30472.42 -3601.687 30457.748 -3624.638 30463.454 -3645.038 30480.571 -3660.658 30498.504 -3671.815 30543.334 -3688.391 30571.048 -3703.691 30587.758 -3721.861 30591.426 -3747.681 30582.052 -3772.863 30561.675 -3788.164 30531.923 -3798.364 30509.1 -3797.727 30482.201 -3788.801 30460.601 -3774.457 30449.19 -3753.419 30450.005 -3732.38 30460.601 -3711.342 30484.239 -3692.534 30507.877 -3684.247 30537.629 -3674.684 30566.973 -3659.064 30575.939 -3644.082 30576.347 -3618.9 30566.158 -3600.73 30545.372 -3589.574 30516.028 -3587.344" fill="none" stroke-width="37.5"/><path d="M 29191.167 -6334.691 29191.167 -6135.137 29232.112 -6131.299 29268.74 -6133.698 29292.558 -6140.154 29303.207 -6145.372 29320.191 -6160.679 29327.739 -6177.118 29329.449 -6201.152 29322.68 -6216.262 29312.117 -6224.613 29295.273 -6231.31 29270.913 -6236.112 29237.804 -6238.78 29194.71 -6239.077 M 29680.308 -6131.299 29680.308 -6334.691 M 30030.361 -6334.691 30030.361 -6131.299 30170.254 -6334.691 30167.509 -6131.299 M 30583.308 -6181.344 30577.308 -6154.344 30565.308 -6139.344 30547.308 -6130.344 30523.308 -6127.344 30499.308 -6130.344 30478.308 -6139.344 30463.308 -6154.344 30457.308 -6175.344 30463.308 -6196.344 30478.308 -6211.344 30499.308 -6220.344 30523.308 -6223.344 30547.308 -6217.344 30565.308 -6205.344 30577.308 -6193.344 30583.308 -6181.344 M 30583.008 -6181.644 30560.208 -6241.044 30544.308 -6283.344 30531.108 -6313.944 30520.308 -6337.344" fill="none" stroke-width="37.5"/><path d="M 29191.167 -8874.691 29191.167 -8675.137 29232.112 -8671.299 29268.74 -8673.698 29292.558 -8680.154 29303.207 -8685.372 29320.191 -8700.679 29327.739 -8717.118 29329.449 -8741.152 29322.68 -8756.261 29312.117 -8764.613 29295.273 -8771.31 29270.913 -8776.112 29237.804 -8778.78 29194.71 -8779.077 M 29680.308 -8671.299 29680.308 -8874.691 M 30030.361 -8874.691 30030.361 -8671.299 30170.254 -8874.691 30167.509 -8671.299 M 30496.128 -8712.535 30544.488 -8671.299 30544.488 -8874.69 M 30940.308 -8667.344 30911.978 -8675.015 30886.613 -8698.392 30872.777 -8732.332 30869.483 -8782.666 30877.389 -8824.867 30897.813 -8859.839 30927.131 -8878.364 30953.484 -8878.364 30982.803 -8859.839 31003.227 -8824.867 31011.133 -8782.666 31007.839 -8732.332 30994.004 -8698.392 30968.638 -8675.015 30940.308 -8667.344" fill="none" stroke-width="37.5"/><path d="M 29191.167 -11414.691 29191.167 -11215.137 29232.112 -11211.299 29268.74 -11213.698 29292.558 -11220.154 29303.207 -11225.372 29320.191 -11240.679 29327.739 -11257.118 29329.449 -11281.152 29322.68 -11296.261 29312.117 -11304.613 29295.273 -11311.309 29270.913 -11316.112 29237.804 -11318.78 29194.71 -11319.077 M 29680.308 -11211.299 29680.308 -11414.691 M 30030.361 -11414.691 30030.361 -11211.299 30170.254 -11414.691 30167.509 -11211.299 M 30496.128 -11252.535 30544.488 -11211.299 30544.488 -11414.69 M 30916.128 -11252.535 30964.488 -11211.299 30964.488 -11414.69" fill="none" stroke-width="37.5"/><path d="M 29191.167 -13954.691 29191.167 -13755.137 29232.112 -13751.299 29268.74 -13753.698 29292.558 -13760.154 29303.207 -13765.372 29320.191 -13780.679 29327.739 -13797.118 29329.449 -13821.152 29322.68 -13836.262 29312.117 -13844.613 29295.273 -13851.31 29270.913 -13856.112 29237.804 -13858.78 29194.71 -13859.077 M 29680.308 -13751.299 29680.308 -13954.691 M 30030.361 -13954.691 30030.361 -13751.299 30170.254 -13954.691 30167.509 -13751.299 M 30496.128 -13792.535 30544.488 -13751.299 30544.488 -13954.69 M 30883.123 -13787.636 30887.686 -13772.688 30901.171 -13758.747 30923.271 -13749.293 30937.455 -13747.344 30961.996 -13749.14 30980.405 -13757.212 30990.472 -13769.59 30994.088 -13783.974 30993.848 -13793.542 30989.526 -13809.558 30970.771 -13840.696 30923.54 -13899.931 30873.877 -13954.414 31006.739 -13954.414" fill="none" stroke-width="37.5"/><path d="M 32691.167 -13954.691 32691.167 -13755.137 32732.112 -13751.299 32768.74 -13753.698 32792.558 -13760.154 32803.207 -13765.372 32820.191 -13780.679 32827.739 -13797.118 32829.449 -13821.152 32822.68 -13836.262 32812.117 -13844.613 32795.273 -13851.31 32770.913 -13856.112 32737.804 -13858.78 32694.71 -13859.077 M 33180.308 -13751.299 33180.308 -13954.691 M 33530.361 -13954.691 33530.361 -13751.299 33670.254 -13954.691 33667.509 -13751.299 M 33996.128 -13792.535 34044.488 -13751.299 34044.488 -13954.69 M 34374.482 -13773.522 34385.746 -13764.69 34403.699 -13755.227 34426.58 -13747.344 34454.74 -13748.919 34479.381 -13756.804 34496.982 -13770.999 34507.542 -13788.347 34504.022 -13807.273 34489.942 -13821.468 34465.3 -13832.508 34437.139 -13838.816 34412.499 -13841.971 34437.139 -13845.125 34465.3 -13853.011 34489.942 -13865.628 34505.782 -13882.977 34509.302 -13901.902 34502.262 -13922.405 34486.421 -13939.754 34461.78 -13953.948 34443.124 -13958.364 34412.851 -13957.733 34388.21 -13953.948 34371.314 -13948.901" fill="none" stroke-width="37.5"/><path d="M 32691.167 -11414.691 32691.167 -11215.137 32732.112 -11211.299 32768.74 -11213.698 32792.558 -11220.154 32803.207 -11225.372 32820.191 -11240.679 32827.739 -11257.118 32829.449 -11281.152 32822.68 -11296.262 32812.117 -11304.613 32795.273 -11311.31 32770.913 -11316.112 32737.804 -11318.78 32694.71 -11319.077 M 33180.308 -11211.299 33180.308 -11414.691 M 33530.361 -11414.691 33530.361 -11211.299 33670.254 -11414.691 33667.509 -11211.299 M 33996.128 -11252.535 34044.488 -11211.299 34044.488 -11414.69 M 34475.548 -11211.299 34364.648 -11347.26 34515.967 -11347.26 M 34474.254 -11303.45 34474.254 -11414.691" fill="none" stroke-width="37.5"/><path d="M 32691.167 -8874.691 32691.167 -8675.137 32732.112 -8671.299 32768.74 -8673.698 32792.558 -8680.154 32803.207 -8685.372 32820.191 -8700.679 32827.739 -8717.118 32829.449 -8741.152 32822.68 -8756.262 32812.117 -8764.613 32795.273 -8771.31 32770.913 -8776.112 32737.804 -8778.78 32694.71 -8779.077 M 33180.308 -8671.299 33180.308 -8874.691 M 33530.361 -8874.691 33530.361 -8671.299 33670.254 -8874.691 33667.509 -8671.299 M 33996.128 -8712.535 34044.488 -8671.299 34044.488 -8874.69 M 34372.485 -8671.299 34372.485 -8774.41 34430.297 -8760.85 34471.574 -8765.951 34488.001 -8775.157 34499.408 -8788.219 34508.13 -8823.82 34504.006 -8842.315 34493.182 -8856.87 34471.913 -8870.389 34447.334 -8877.501 34424.22 -8878.642 34404.755 -8874.93 34389.02 -8867.652 34372.485 -8852.682 M 34372.485 -8671.299 34508.13 -8671.299" fill="none" stroke-width="37.5"/><path d="M 32691.167 -6334.691 32691.167 -6135.137 32732.112 -6131.299 32768.74 -6133.698 32792.558 -6140.154 32803.207 -6145.372 32820.191 -6160.679 32827.739 -6177.118 32829.449 -6201.152 32822.68 -6216.262 32812.117 -6224.613 32795.273 -6231.31 32770.913 -6236.112 32737.804 -6238.78 32694.71 -6239.077 M 33180.308 -6131.299 33180.308 -6334.691 M 33530.361 -6334.691 33530.361 -6131.299 33670.254 -6334.691 33667.509 -6131.299 M 33996.128 -6172.535 34044.488 -6131.299 34044.488 -6334.69 M 34478.565 -6127.344 34452.43 -6135.516 34428.219 -6143.63 34407.656 -6158.055 34391.671 -6173.291 34379.466 -6200.127 34371.075 -6225.28 34370.179 -6251.215 34369.549 -6277.059 34376.149 -6296.292 34382.45 -6308.313 34397.375 -6323.939 34413.294 -6334.458 34437.837 -6338.364 34465.364 -6336.862 34486.923 -6327.245 34502.179 -6314.323 34510.47 -6296.593 34511.133 -6281.567 34506.49 -6265.639 34499.525 -6252.116 34488.913 -6240.997 34474.319 -6234.085 34454.088 -6229.577 34434.852 -6228.676 34414.621 -6231.681 34393.727 -6242.5 34382.782 -6253.619 34369.483 -6267.202" fill="none" stroke-width="37.5"/><path d="M 32691.167 -3794.691 32691.167 -3595.137 32732.112 -3591.299 32768.74 -3593.698 32792.558 -3600.154 32803.207 -3605.372 32820.191 -3620.679 32827.739 -3637.118 32829.449 -3661.152 32822.68 -3676.262 32812.117 -3684.613 32795.273 -3691.31 32770.913 -3696.112 32737.804 -3698.78 32694.71 -3699.077 M 33180.308 -3591.299 33180.308 -3794.691 M 33530.361 -3794.691 33530.361 -3591.299 33670.254 -3794.691 33667.509 -3591.299 M 33996.128 -3632.535 34044.488 -3591.299 34044.488 -3794.69 M 34371.46 -3591.299 34509.156 -3591.299 34498.781 -3597.511 34493.326 -3601.622 34480.556 -3613.834 34473.62 -3622.241 34466.57 -3632.388 34459.595 -3644.429 34452.883 -3658.519 34446.624 -3674.81 34441.009 -3693.457 34436.225 -3714.615 34431.023 -3751.395 34428.759 -3794.691" fill="none" stroke-width="37.5"/><path d="M 32691.167 -1254.691 32691.167 -1055.137 32732.112 -1051.299 32768.74 -1053.698 32792.558 -1060.154 32803.207 -1065.372 32820.191 -1080.679 32827.739 -1097.118 32829.449 -1121.152 32822.68 -1136.262 32812.117 -1144.613 32795.273 -1151.31 32770.913 -1156.112 32737.804 -1158.78 32694.71 -1159.077 M 33180.308 -1051.299 33180.308 -1254.691 M 33530.361 -1254.691 33530.361 -1051.299 33670.254 -1254.691 33667.509 -1051.299 M 33996.128 -1092.535 34044.488 -1051.299 34044.488 -1254.69 M 34436.028 -1047.344 34413.205 -1051.486 34392.42 -1061.687 34377.748 -1084.638 34383.454 -1105.038 34400.571 -1120.658 34418.504 -1131.815 34463.334 -1148.391 34491.048 -1163.691 34507.758 -1181.861 34511.426 -1207.681 34502.052 -1232.863 34481.675 -1248.164 34451.923 -1258.364 34429.1 -1257.727 34402.201 -1248.801 34380.601 -1234.457 34369.19 -1213.419 34370.005 -1192.38 34380.601 -1171.342 34404.239 -1152.534 34427.877 -1144.247 34457.629 -1134.684 34486.973 -1119.064 34495.939 -1104.082 34496.347 -1078.9 34486.158 -1060.73 34465.372 -1049.574 34436.028 -1047.344" fill="none" stroke-width="37.5"/><path d="M 32691.167 1285.309 32691.167 1484.863 32732.112 1488.701 32768.74 1486.302 32792.558 1479.846 32803.207 1474.628 32820.191 1459.321 32827.739 1442.882 32829.449 1418.848 32822.68 1403.738 32812.117 1395.387 32795.273 1388.69 32770.913 1383.888 32737.804 1381.22 32694.71 1380.923 M 33180.308 1488.701 33180.308 1285.309 M 33530.361 1285.309 33530.361 1488.701 33670.254 1285.309 33667.509 1488.701 M 33996.128 1447.465 34044.488 1488.701 34044.488 1285.31 M 34503.308 1438.656 34497.308 1465.656 34485.308 1480.656 34467.308 1489.656 34443.308 1492.656 34419.308 1489.656 34398.308 1480.656 34383.308 1465.656 34377.308 1444.656 34383.308 1423.656 34398.308 1408.656 34419.308 1399.656 34443.308 1396.656 34467.308 1402.656 34485.308 1414.656 34497.308 1426.656 34503.308 1438.656 M 34503.008 1438.356 34480.208 1378.956 34464.308 1336.656 34451.108 1306.056 34440.308 1282.656" fill="none" stroke-width="37.5"/><path d="M 32691.167 3825.309 32691.167 4024.863 32732.112 4028.701 32768.74 4026.302 32792.558 4019.846 32803.207 4014.628 32820.191 3999.321 32827.739 3982.882 32829.449 3958.848 32822.68 3943.739 32812.117 3935.387 32795.273 3928.691 32770.913 3923.888 32737.804 3921.22 32694.71 3920.923 M 33180.308 4028.701 33180.308 3825.309 M 33530.361 3825.309 33530.361 4028.701 33670.254 3825.309 33667.509 4028.701 M 33963.123 3992.364 33967.686 4007.312 33981.171 4021.253 34003.271 4030.707 34017.455 4032.656 34041.996 4030.86 34060.405 4022.789 34070.472 4010.41 34074.088 3996.026 34073.848 3986.458 34069.526 3970.442 34050.771 3939.304 34003.54 3880.069 33953.877 3825.587 34086.739 3825.587 M 34440.308 4032.656 34411.978 4024.985 34386.613 4001.608 34372.777 3967.668 34369.483 3917.334 34377.389 3875.133 34397.813 3840.161 34427.131 3821.636 34453.484 3821.636 34482.803 3840.161 34503.227 3875.133 34511.133 3917.334 34507.839 3967.668 34494.004 4001.608 34468.638 4024.985 34440.308 4032.656" fill="none" stroke-width="37.5"/><path d="M 32691.167 6365.309 32691.167 6564.863 32732.112 6568.701 32768.74 6566.302 32792.558 6559.846 32803.207 6554.628 32820.191 6539.321 32827.739 6522.882 32829.449 6498.848 32822.68 6483.738 32812.117 6475.387 32795.273 6468.69 32770.913 6463.888 32737.804 6461.22 32694.71 6460.923 M 33180.308 6568.701 33180.308 6365.309 M 33530.361 6365.309 33530.361 6568.701 33670.254 6365.309 33667.509 6568.701 M 33963.123 6532.364 33967.686 6547.312 33981.171 6561.253 34003.271 6570.707 34017.455 6572.656 34041.996 6570.86 34060.405 6562.789 34070.472 6550.41 34074.088 6536.026 34073.848 6526.458 34069.526 6510.442 34050.771 6479.304 34003.54 6420.069 33953.877 6365.587 34086.739 6365.587 M 34416.128 6527.465 34464.488 6568.701 34464.488 6365.31" fill="none" stroke-width="37.5"/><path d="M 32691.167 8905.309 32691.167 9104.863 32732.112 9108.701 32768.74 9106.302 32792.558 9099.846 32803.207 9094.628 32820.191 9079.321 32827.739 9062.882 32829.449 9038.848 32822.68 9023.738 32812.117 9015.387 32795.273 9008.69 32770.913 9003.888 32737.804 9001.22 32694.71 9000.923 M 33180.308 9108.701 33180.308 8905.309 M 33530.361 8905.309 33530.361 9108.701 33670.254 8905.309 33667.509 9108.701 M 33963.123 9072.364 33967.686 9087.312 33981.171 9101.253 34003.271 9110.707 34017.455 9112.656 34041.996 9110.86 34060.405 9102.788 34070.472 9090.41 34074.088 9076.026 34073.848 9066.458 34069.526 9050.442 34050.771 9019.304 34003.54 8960.069 33953.877 8905.586 34086.739 8905.586 M 34383.123 9072.364 34387.686 9087.312 34401.171 9101.253 34423.271 9110.707 34437.455 9112.656 34461.996 9110.86 34480.405 9102.788 34490.472 9090.41 34494.088 9076.026 34493.848 9066.458 34489.526 9050.442 34470.771 9019.304 34423.54 8960.069 34373.877 8905.586 34506.739 8905.586" fill="none" stroke-width="37.5"/><path d="M 32691.167 11445.309 32691.167 11644.863 32732.112 11648.701 32768.74 11646.302 32792.558 11639.846 32803.207 11634.628 32820.191 11619.321 32827.739 11602.882 32829.449 11578.848 32822.68 11563.738 32812.117 11555.387 32795.273 11548.69 32770.913 11543.888 32737.804 11541.22 32694.71 11540.923 M 33180.308 11648.701 33180.308 11445.309 M 33530.361 11445.309 33530.361 11648.701 33670.254 11445.309 33667.509 11648.701 M 33963.123 11612.364 33967.686 11627.312 33981.171 11641.253 34003.271 11650.707 34017.455 11652.656 34041.996 11650.86 34060.405 11642.788 34070.472 11630.41 34074.088 11616.026 34073.848 11606.458 34069.526 11590.442 34050.771 11559.304 34003.54 11500.069 33953.877 11445.586 34086.739 11445.586 M 34374.482 11626.478 34385.746 11635.31 34403.699 11644.773 34426.58 11652.656 34454.74 11651.081 34479.381 11643.196 34496.982 11629.001 34507.542 11611.653 34504.022 11592.727 34489.942 11578.532 34465.3 11567.492 34437.139 11561.184 34412.499 11558.029 34437.139 11554.875 34465.3 11546.989 34489.942 11534.372 34505.782 11517.023 34509.302 11498.098 34502.262 11477.595 34486.421 11460.246 34461.78 11446.052 34443.124 11441.636 34412.851 11442.267 34388.21 11446.052 34371.314 11451.099" fill="none" stroke-width="37.5"/><path d="M 32691.167 13985.309 32691.167 14184.863 32732.112 14188.701 32768.74 14186.302 32792.558 14179.846 32803.207 14174.628 32820.191 14159.321 32827.739 14142.882 32829.449 14118.848 32822.68 14103.739 32812.117 14095.387 32795.273 14088.691 32770.913 14083.888 32737.804 14081.22 32694.71 14080.923 M 33180.308 14188.701 33180.308 13985.309 M 33530.361 13985.309 33530.361 14188.701 33670.254 13985.309 33667.509 14188.701 M 33963.123 14152.364 33967.686 14167.312 33981.171 14181.253 34003.271 14190.707 34017.455 14192.656 34041.996 14190.86 34060.405 14182.789 34070.472 14170.41 34074.088 14156.026 34073.848 14146.458 34069.526 14130.442 34050.771 14099.304 34003.54 14040.069 33953.877 13985.587 34086.739 13985.587 M 34475.548 14188.701 34364.648 14052.74 34515.967 14052.74 M 34474.254 14096.55 34474.254 13985.309" fill="none" stroke-width="37.5"/></g><clipPath id="C2Ly41KAeRjQ_top_outline"><path d="M -42500 -30000 42500 -30000 42500 30000 -42500 30000 -42500 -30000" fill="none" stroke-width="50"/></clipPath><mask id="C2Ly41KAeRjQ_top_mech-mask"><g fill="#000" stroke="#000"><rect x="-42500" y="-30000" width="85000" height="60000" fill="#fff"/><use xlink:href="#C2Ly41KAeRjQ_top_drill1"/></g></mask><mask id="C2Ly41KAeRjQ_top_cf-mask"><g fill="#fff" stroke="#fff"><use xlink:href="#C2Ly41KAeRjQ_top_soldermask"/></g></mask><mask id="C2Ly41KAeRjQ_top_sm-mask"><g fill="#000" stroke="#000"><rect x="-42500" y="-30000" width="85000" height="60000" fill="#fff"/><use xlink:href="#C2Ly41KAeRjQ_top_soldermask"/></g></mask></defs><g transform="translate(0,0) scale(1,-1)"><g mask="url(#C2Ly41KAeRjQ_top_mech-mask)" clip-path="url(#C2Ly41KAeRjQ_top_outline)"><rect x="-42500" y="-30000" width="85000" height="60000" fill="currentColor" class="C2Ly41KAeRjQ_fr4"/><use xlink:href="#C2Ly41KAeRjQ_top_copper" fill="currentColor" stroke="currentColor" class="C2Ly41KAeRjQ_cu"/><use xlink:href="#C2Ly41KAeRjQ_top_copper" fill="currentColor" stroke="currentColor" class="C2Ly41KAeRjQ_cf" mask="url(#C2Ly41KAeRjQ_top_cf-mask)"/><g mask="url(#C2Ly41KAeRjQ_top_sm-mask)"><rect x="-42500" y="-30000" width="85000" height="60000" fill="currentColor" class="C2Ly41KAeRjQ_sm"/><use xlink:href="#C2Ly41KAeRjQ_top_silkscreen" fill="currentColor" stroke="currentColor" class="C2Ly41KAeRjQ_ss"/></g><use xlink:href="#C2Ly41KAeRjQ_top_solderpaste" fill="currentColor" stroke="currentColor" class="C2Ly41KAeRjQ_sp"/></g></g></svg>