<svg version="1.1" xmlns="http://www.w3.org/2000/svg" xmlns:xlink="http://www.w3.org/1999/xlink" stroke-linecap="round" stroke-linejoin="round" stroke-width="0" fill-rule="evenodd" viewBox="-20025 -10025 40050 20050" width="40.05mm" height="20.05mm"><defs><circle cx="0" cy="0" r="350" id="stiffener-top-registration-F_Cu_pad-10"/></defs><rect x="-20025" y="-10025" width="40050" height="20050" fill="#1c2430"/><g transform="scale(1,-1)"><g id="stiffener-top-registration-Edge_Cuts" fill="#ffffff" stroke="#ffffff"><path d="M -20000 -10000 20000 -10000 20000 10000 -20000 10000 -20000 -10000" fill="none" stroke-width="50"/></g><g id="stiffener-top-registration-F_Cu" fill="#e76666" stroke="#e76666"><use xlink:href="#stiffener-top-registration-F_Cu_pad-10" x="-11500" y="5500"/><use xlink:href="#stiffener-top-registration-F_Cu_pad-10" x="-4000" y="5000"/><use xlink:href="#stiffener-top-registration-F_Cu_pad-10" x="5000" y="4000"/><use xlink:href="#stiffener-top-registration-F_Cu_pad-10" x="14500" y="5500"/></g><g id="stiffener-top-registration-F_Stiffener_fr4" fill="#8dd09a" stroke="#8dd09a"><path d="M -13000 4000 -10000 4000 -10000 6000 -12000 7000 -13000 6000 -13000 4000" fill="none" stroke-width="50"/></g><g id="stiffener-top-registration-F_Stiffener_polyimide" fill="#e5b65c" stroke="#e5b65c"><path d="M -7298.629 4392.508 -2506.816 8003.398 -701.371 5607.492 -5493.184 1996.602 -7298.629 4392.508" fill="none" stroke-width="50"/></g><g id="stiffener-top-registration-F_Stiffener_stainless_steel" fill="#c9d0d8" stroke="#c9d0d8"><path d="M 3163.799 6264.589 7862.262 4554.489 6836.201 1735.411 2137.738 3445.511 3163.799 6264.589" fill="none" stroke-width="50"/></g><g id="stiffener-top-registration-F_Stiffener_aluminum" fill="#9cbbef" stroke="#9cbbef"><path d="M 13000 4000 16000 4000 16000 6000 14000 7000 13000 6000 13000 4000" fill="none" stroke-width="50"/></g></g></svg>