<svg version="1.1" xmlns="http://www.w3.org/2000/svg" xmlns:xlink="http://www.w3.org/1999/xlink" stroke-linecap="round" stroke-linejoin="round" stroke-width="0" fill-rule="evenodd" viewBox="-40025 -30025 80050 60050" width="80.05mm" height="60.05mm"><defs><circle cx="0" cy="0" r="1500" id="ten-layer-all-copper-F_Cu_pad-11"/><circle cx="0" cy="0" r="1500" id="ten-layer-all-copper-In1_Cu_pad-11"/><circle cx="0" cy="0" r="1500" id="ten-layer-all-copper-In2_Cu_pad-11"/><circle cx="0" cy="0" r="1500" id="ten-layer-all-copper-In3_Cu_pad-11"/><circle cx="0" cy="0" r="1500" id="ten-layer-all-copper-In4_Cu_pad-11"/><circle cx="0" cy="0" r="1500" id="ten-layer-all-copper-In5_Cu_pad-11"/><circle cx="0" cy="0" r="1500" id="ten-layer-all-copper-In6_Cu_pad-11"/><circle cx="0" cy="0" r="1500" id="ten-layer-all-copper-In7_Cu_pad-11"/><circle cx="0" cy="0" r="1500" id="ten-layer-all-copper-In8_Cu_pad-11"/><circle cx="0" cy="0" r="1500" id="ten-layer-all-copper-B_Cu_pad-11"/></defs><rect x="-40025" y="-30025" width="80050" height="60050" fill="#666666"/><g transform="scale(1,-1)"><g id="ten-layer-all-copper-F_Cu" fill="#c83434" stroke="#c83434"><path d="M -32000 -27000 32000 -27000" fill="none" stroke-width="1000"/><use xlink:href="#ten-layer-all-copper-F_Cu_pad-11" x="0" y="0"/></g><g id="ten-layer-all-copper-In1_Cu" fill="#7fc97f" stroke="#7fc97f"><path d="M -32000 -21000 32000 -21000" fill="none" stroke-width="1100"/><use xlink:href="#ten-layer-all-copper-In1_Cu_pad-11" x="0" y="0"/></g><g id="ten-layer-all-copper-In2_Cu" fill="#ce7d2c" stroke="#ce7d2c"><path d="M -32000 -15000 32000 -15000" fill="none" stroke-width="1200"/><use xlink:href="#ten-layer-all-copper-In2_Cu_pad-11" x="0" y="0"/></g><g id="ten-layer-all-copper-In3_Cu" fill="#7f7fc9" stroke="#7f7fc9"><path d="M -32000 -9000 32000 -9000" fill="none" stroke-width="1300"/><use xlink:href="#ten-layer-all-copper-In3_Cu_pad-11" x="0" y="0"/></g><g id="ten-layer-all-copper-In4_Cu" fill="#c97f7f" stroke="#c97f7f"><path d="M -32000 -3000 32000 -3000" fill="none" stroke-width="1400"/><use xlink:href="#ten-layer-all-copper-In4_Cu_pad-11" x="0" y="0"/></g><g id="ten-layer-all-copper-In5_Cu" fill="#7fc9c9" stroke="#7fc9c9"><path d="M -32000 3000 32000 3000" fill="none" stroke-width="1500"/><use xlink:href="#ten-layer-all-copper-In5_Cu_pad-11" x="0" y="0"/></g><g id="ten-layer-all-copper-In6_Cu" fill="#c9c97f" stroke="#c9c97f"><path d="M -32000 9000 32000 9000" fill="none" stroke-width="1600"/><use xlink:href="#ten-layer-all-copper-In6_Cu_pad-11" x="0" y="0"/></g><g id="ten-layer-all-copper-In7_Cu" fill="#c97fc9" stroke="#c97fc9"><path d="M -32000 15000 32000 15000" fill="none" stroke-width="1700"/><use xlink:href="#ten-layer-all-copper-In7_Cu_pad-11" x="0" y="0"/></g><g id="ten-layer-all-copper-In8_Cu" fill="#7fa8c9" stroke="#7fa8c9"><path d="M -32000 21000 32000 21000" fill="none" stroke-width="1800"/><use xlink:href="#ten-layer-all-copper-In8_Cu_pad-11" x="0" y="0"/></g><g id="ten-layer-all-copper-B_Cu" fill="#4d7fc4" stroke="#4d7fc4"><path d="M -32000 27000 32000 27000" fill="none" stroke-width="1900"/><use xlink:href="#ten-layer-all-copper-B_Cu_pad-11" x="0" y="0"/></g></g></svg>