<svg version="1.1" xmlns="http://www.w3.org/2000/svg" xmlns:xlink="http://www.w3.org/1999/xlink" stroke-linecap="round" stroke-linejoin="round" stroke-width="0" fill-rule="evenodd" clip-rule="evenodd" id="LmBBDSLsuncx_top" viewBox="-7000 24000 14000 14000" width="14mm" height="14mm"><defs><style>.LmBBDSLsuncx_fr4 {color: #666666;}
.LmBBDSLsuncx_cu {color: #cccccc;}
.LmBBDSLsuncx_cf {color: #cc9933;}
.LmBBDSLsuncx_sm {color: #004200; opacity: 0.7490196078431373;}
.LmBBDSLsuncx_ss {color: #ffffff;}
.LmBBDSLsuncx_sp {color: #999999;}
.LmBBDSLsuncx_out {color: #000000;}</style><circle cx="0" cy="0" r="549.999" id="KPsEj95fIBu2_pad-19"/><circle cx="0" cy="0" r="599.999" id="KPsEj95fIBu2_pad-20"/><rect x="-275.006" y="-549.999" width="550.012" height="1099.998" id="KPsEj95fIBu2_pad-13"/><rect x="-149.9995" y="-549.999" width="299.999" height="1099.998" id="KPsEj95fIBu2_pad-14"/><rect x="-350" y="-450" width="700" height="900" id="KPsEj95fIBu2_pad-17"/><circle cx="0" cy="0" r="350.012" id="X31rptitGxNO_pad-11"/><circle cx="0" cy="0" r="549.999" id="X31rptitGxNO_pad-20"/><circle cx="0" cy="0" r="599.999" id="X31rptitGxNO_pad-21"/><rect x="-275.006" y="-549.999" width="550.012" height="1099.998" id="X31rptitGxNO_pad-14"/><rect x="-149.9995" y="-549.999" width="299.999" height="1099.998" id="X31rptitGxNO_pad-15"/><rect x="-350" y="-450" width="700" height="900" id="X31rptitGxNO_pad-18"/><circle cx="0" cy="0" r="299.9995" id="mQoElaZPd5zr_pad-10"/><circle cx="0" cy="0" r="350.012" id="MPVfw4D8qa_Y_pad-10"/><g id="LmBBDSLsuncx_top_copper"><use xlink:href="#KPsEj95fIBu2_pad-19" x="4324.985" y="29874.882"/><use xlink:href="#KPsEj95fIBu2_pad-19" x="4324.985" y="28974.883"/><path d="M 4324.985 29874.882 4324.985 28974.883" fill="none" stroke-width="1099.998"/><use xlink:href="#KPsEj95fIBu2_pad-19" x="-4324.985" y="29874.882"/><use xlink:href="#KPsEj95fIBu2_pad-19" x="-4324.985" y="28974.883"/><path d="M -4324.985 29874.882 -4324.985 28974.883" fill="none" stroke-width="1099.998"/><use xlink:href="#KPsEj95fIBu2_pad-20" x="4324.985" y="33925.026"/><use xlink:href="#KPsEj95fIBu2_pad-20" x="4324.985" y="33325.027"/><path d="M 4324.985 33925.026 4324.985 33325.027" fill="none" stroke-width="1199.998"/><use xlink:href="#KPsEj95fIBu2_pad-20" x="-4324.985" y="33925.026"/><use xlink:href="#KPsEj95fIBu2_pad-20" x="-4324.985" y="33325.027"/><path d="M -4324.985 33925.026 -4324.985 33325.027" fill="none" stroke-width="1199.998"/><use xlink:href="#KPsEj95fIBu2_pad-13" x="3200.019" y="28874.972"/><use xlink:href="#KPsEj95fIBu2_pad-13" x="2399.919" y="28874.972"/><use xlink:href="#KPsEj95fIBu2_pad-14" x="1749.933" y="28874.972"/><use xlink:href="#KPsEj95fIBu2_pad-14" x="1249.807" y="28874.972"/><use xlink:href="#KPsEj95fIBu2_pad-14" x="749.935" y="28874.972"/><use xlink:href="#KPsEj95fIBu2_pad-14" x="250.063" y="28874.972"/><use xlink:href="#KPsEj95fIBu2_pad-14" x="-250.063" y="28874.972"/><use xlink:href="#KPsEj95fIBu2_pad-14" x="-749.935" y="28874.972"/><use xlink:href="#KPsEj95fIBu2_pad-14" x="-1250.061" y="28874.972"/><use xlink:href="#KPsEj95fIBu2_pad-14" x="-1750.187" y="28874.972"/><use xlink:href="#KPsEj95fIBu2_pad-13" x="-2400.173" y="28874.972"/><use xlink:href="#KPsEj95fIBu2_pad-13" x="-3200.019" y="28874.972"/><use xlink:href="#KPsEj95fIBu2_pad-17" x="-550" y="25600"/><use xlink:href="#KPsEj95fIBu2_pad-17" x="550" y="25600"/><path d="M 250.063 28874.972 550 25600" fill="none" stroke-width="150"/></g><g id="LmBBDSLsuncx_top_silkscreen"><path d="M -4572.076 32646.949 -4572.076 30652.998" fill="none" stroke-width="100"/><path d="M -4572.076 36075.974 -4572.076 34603.003" fill="none" stroke-width="100"/><path d="M 4499.915 32643.824 4499.915 30656.097" fill="none" stroke-width="100"/><path d="M 4499.915 36224.97 4499.915 34606.127" fill="none" stroke-width="100"/><path d="M -4500.067 36224.97 4499.915 36224.97" fill="none" stroke-width="100"/><path d="M 1618.379 26966.172 1616.731 27483.921 1632.556 27548.715 1662.573 27583.78 1704.661 27611.666 1755.049 27633.023 1865.651 27658.752 1964.222 27666.172 2097.826 27657.563 2196.318 27633.938 2244.229 27611.051 2279.171 27583.298 2302.199 27551.401 2314.368 27516.083 2316.731 27478.067 M 1336.731 27666.172 636.731 27666.172 M 356.731 26966.172 355.114 27348.894 343.97 27453.007 315.462 27530.126 260.807 27588.784 189.302 27627.569 82.479 27655.58 -52.308 27666.172 -146.906 27655.568 -224.498 27627.631 -270.932 27594.903 -290.87 27573.39 -321.367 27518.536 -335.602 27445.872 -343.269 26967.206 M -1245.354 27072.201 -1132.601 26975.819 -865.345 26966.172 -715.545 27035.614 -654.387 27162.963 -679.717 27225.842 -774.491 27280.158 -1150.048 27323.954 -1276.387 27375.724 -1323.269 27465.268 -1261.513 27605.313 -1072.892 27666.172 -830.371 27661.643 -697.738 27612.262 -623.269 27496.126 M -1603.269 27666.172 -1603.269 26974.388 -1817.929 26966.172 -2014.486 26990.332 -2146.903 27071.41 -2126.307 27189.948 -1970.49 27253.381 -1633.92 27280.603 -1961.175 27294.957 -2201.088 27354.865 -2303.269 27446.965 -2294.875 27566.074 -2248.88 27618.692 -2134.168 27661.454 -1603.269 27666.172" fill="none" stroke-width="125"/><path d="M -588 24358.51 -588 24832.308 -411.036 24845 -286.832 24840.756 -211.902 24827.718 -180.398 24817.089 -154.468 24803.254 -135.311 24785.865 -118.418 24738.71 -120.005 24696.892 -137.293 24666.612 -168.322 24645.868 -211.128 24632.656 -293.13 24622.581 -576.27 24614.712 M -341.134 24594.707 -98 24355 M 195.02 24711.72 361.13 24845 362.6 24355" fill="none" stroke-width="87.5"/></g><g id="LmBBDSLsuncx_top_soldermask"><use xlink:href="#X31rptitGxNO_pad-11" x="2889.885" y="29945.074"/><use xlink:href="#X31rptitGxNO_pad-11" x="-2890.139" y="29945.074"/><use xlink:href="#X31rptitGxNO_pad-20" x="4324.985" y="29874.882"/><use xlink:href="#X31rptitGxNO_pad-20" x="4324.985" y="28974.883"/><path d="M 4324.985 29874.882 4324.985 28974.883" fill="none" stroke-width="1099.998"/><use xlink:href="#X31rptitGxNO_pad-20" x="-4324.985" y="29874.882"/><use xlink:href="#X31rptitGxNO_pad-20" x="-4324.985" y="28974.883"/><path d="M -4324.985 29874.882 -4324.985 28974.883" fill="none" stroke-width="1099.998"/><use xlink:href="#X31rptitGxNO_pad-21" x="4324.985" y="33925.026"/><use xlink:href="#X31rptitGxNO_pad-21" x="4324.985" y="33325.027"/><path d="M 4324.985 33925.026 4324.985 33325.027" fill="none" stroke-width="1199.998"/><use xlink:href="#X31rptitGxNO_pad-21" x="-4324.985" y="33925.026"/><use xlink:href="#X31rptitGxNO_pad-21" x="-4324.985" y="33325.027"/><path d="M -4324.985 33925.026 -4324.985 33325.027" fill="none" stroke-width="1199.998"/><use xlink:href="#X31rptitGxNO_pad-14" x="3200.019" y="28874.972"/><use xlink:href="#X31rptitGxNO_pad-14" x="2399.919" y="28874.972"/><use xlink:href="#X31rptitGxNO_pad-15" x="1749.933" y="28874.972"/><use xlink:href="#X31rptitGxNO_pad-15" x="1249.807" y="28874.972"/><use xlink:href="#X31rptitGxNO_pad-15" x="749.935" y="28874.972"/><use xlink:href="#X31rptitGxNO_pad-15" x="250.063" y="28874.972"/><use xlink:href="#X31rptitGxNO_pad-15" x="-250.063" y="28874.972"/><use xlink:href="#X31rptitGxNO_pad-15" x="-749.935" y="28874.972"/><use xlink:href="#X31rptitGxNO_pad-15" x="-1250.061" y="28874.972"/><use xlink:href="#X31rptitGxNO_pad-15" x="-1750.187" y="28874.972"/><use xlink:href="#X31rptitGxNO_pad-14" x="-2400.173" y="28874.972"/><use xlink:href="#X31rptitGxNO_pad-14" x="-3200.019" y="28874.972"/><use xlink:href="#X31rptitGxNO_pad-18" x="-550" y="25600"/><use xlink:href="#X31rptitGxNO_pad-18" x="550" y="25600"/></g><g id="LmBBDSLsuncx_top_drill1"><use xlink:href="#mQoElaZPd5zr_pad-10" x="4325" y="29874.9"/><use xlink:href="#mQoElaZPd5zr_pad-10" x="4325" y="28975"/><use xlink:href="#mQoElaZPd5zr_pad-10" x="-4325" y="29874.9"/><use xlink:href="#mQoElaZPd5zr_pad-10" x="-4325" y="28975"/><use xlink:href="#mQoElaZPd5zr_pad-10" x="4325" y="33925"/><use xlink:href="#mQoElaZPd5zr_pad-10" x="4325" y="33325"/><use xlink:href="#mQoElaZPd5zr_pad-10" x="-4325" y="33925"/><use xlink:href="#mQoElaZPd5zr_pad-10" x="-4325" y="33325"/><use xlink:href="#LmBBDSLsuncx_top_slot-0"/><use xlink:href="#LmBBDSLsuncx_top_slot-1"/><use xlink:href="#LmBBDSLsuncx_top_slot-2"/><use xlink:href="#LmBBDSLsuncx_top_slot-3"/></g><g id="LmBBDSLsuncx_top_drill2"><use xlink:href="#MPVfw4D8qa_Y_pad-10" x="2889.9" y="29945.1"/><use xlink:href="#MPVfw4D8qa_Y_pad-10" x="-2890.1" y="29945.1"/><use xlink:href="#LmBBDSLsuncx_top_slot-0"/><use xlink:href="#LmBBDSLsuncx_top_slot-1"/><use xlink:href="#LmBBDSLsuncx_top_slot-2"/><use xlink:href="#LmBBDSLsuncx_top_slot-3"/></g><clipPath id="LmBBDSLsuncx_top_outline"><path d="M -7000 24000 7000 24000 7000 38000 -7000 38000 -7000 24000" fill="none" stroke-width="50"/></clipPath><mask id="LmBBDSLsuncx_top_mech-mask"><g fill="#000" stroke="#000"><rect x="-7000" y="24000" width="14000" height="14000" fill="#fff"/><use xlink:href="#LmBBDSLsuncx_top_drill1"/><use xlink:href="#LmBBDSLsuncx_top_drill2"/></g></mask><mask id="LmBBDSLsuncx_top_cf-mask"><g fill="#fff" stroke="#fff"><use xlink:href="#LmBBDSLsuncx_top_soldermask"/></g></mask><mask id="LmBBDSLsuncx_top_sm-mask"><g fill="#000" stroke="#000"><rect x="-7000" y="24000" width="14000" height="14000" fill="#fff"/><use xlink:href="#LmBBDSLsuncx_top_soldermask"/></g></mask><path id="LmBBDSLsuncx_top_slot-0" d="M 4624.999 29874.900 L 4624.999 28975.000 A 299.999 299.999 0 0 0 4025.001 28975.000 L 4025.001 29874.900 A 299.999 299.999 0 0 0 4624.999 29874.900 Z" fill="#000"/><path id="LmBBDSLsuncx_top_slot-1" d="M -4025.001 29874.900 L -4025.001 28975.000 A 299.999 299.999 0 0 0 -4624.999 28975.000 L -4624.999 29874.900 A 299.999 299.999 0 0 0 -4025.001 29874.900 Z" fill="#000"/><path id="LmBBDSLsuncx_top_slot-2" d="M 4624.999 33925.000 L 4624.999 33325.000 A 299.999 299.999 0 0 0 4025.001 33325.000 L 4025.001 33925.000 A 299.999 299.999 0 0 0 4624.999 33925.000 Z" fill="#000"/><path id="LmBBDSLsuncx_top_slot-3" d="M -4025.001 33925.000 L -4025.001 33325.000 A 299.999 299.999 0 0 0 -4624.999 33325.000 L -4624.999 33925.000 A 299.999 299.999 0 0 0 -4025.001 33925.000 Z" fill="#000"/></defs><g transform="translate(0,62000) scale(1,-1)"><g mask="url(#LmBBDSLsuncx_top_mech-mask)" clip-path="url(#LmBBDSLsuncx_top_outline)"><rect x="-7000" y="24000" width="14000" height="14000" fill="currentColor" class="LmBBDSLsuncx_fr4"/><use xlink:href="#LmBBDSLsuncx_top_copper" fill="currentColor" stroke="currentColor" class="LmBBDSLsuncx_cu"/><use xlink:href="#LmBBDSLsuncx_top_copper" fill="currentColor" stroke="currentColor" class="LmBBDSLsuncx_cf" mask="url(#LmBBDSLsuncx_top_cf-mask)"/><g mask="url(#LmBBDSLsuncx_top_sm-mask)"><rect x="-7000" y="24000" width="14000" height="14000" fill="currentColor" class="LmBBDSLsuncx_sm"/><use xlink:href="#LmBBDSLsuncx_top_silkscreen" fill="currentColor" stroke="currentColor" class="LmBBDSLsuncx_ss"/></g></g></g></svg>